0, 0, Header, 1, 8, 96
1, 0, Start_track
1, 0, Tempo, 300000
1, 0, End_track
2, 0, Start_track
2, 0, Title_t, "BASS Ebass (MIDI)"
2, 0, Control_c, 0, 10, 64
2, 0, Control_c, 0, 7, 100
2, 0, Pitch_bend_c, 0, 8192
2, 0, Control_c, 0, 101, 0
2, 0, Control_c, 0, 100, 0
2, 0, Control_c, 0, 6, 12
2, 0, Control_c, 0, 10, 64
2, 0, Control_c, 0, 7, 100
2, 0, Pitch_bend_c, 0, 8192
2, 0, Program_c, 0, 0
2, 0, Note_on_c, 0, 50, 110
2, 95, Note_off_c, 0, 50, 0
2, 96, Note_on_c, 0, 50, 110
2, 143, Note_off_c, 0, 50, 0
2, 144, Note_on_c, 0, 50, 110
2, 239, Note_off_c, 0, 50, 0
2, 240, Note_on_c, 0, 50, 110
2, 287, Note_off_c, 0, 50, 0
2, 288, Note_on_c, 0, 50, 110
2, 383, Note_off_c, 0, 50, 0
2, 384, Note_on_c, 0, 50, 110
2, 431, Note_off_c, 0, 50, 0
2, 432, Note_on_c, 0, 50, 110
2, 479, Note_off_c, 0, 50, 0
2, 480, Note_on_c, 0, 50, 110
2, 527, Note_off_c, 0, 50, 0
2, 528, Note_on_c, 0, 50, 110
2, 575, Note_off_c, 0, 50, 0
2, 576, Note_on_c, 0, 50, 110
2, 671, Note_off_c, 0, 50, 0
2, 672, Note_on_c, 0, 50, 110
2, 719, Note_off_c, 0, 50, 0
2, 720, Note_on_c, 0, 50, 110
2, 815, Note_off_c, 0, 50, 0
2, 816, Note_on_c, 0, 50, 110
2, 863, Note_off_c, 0, 50, 0
2, 864, Note_on_c, 0, 50, 110
2, 959, Note_off_c, 0, 50, 0
2, 960, Note_on_c, 0, 50, 110
2, 1007, Note_off_c, 0, 50, 0
2, 1008, Note_on_c, 0, 50, 110
2, 1055, Note_off_c, 0, 50, 0
2, 1056, Note_on_c, 0, 50, 100
2, 1103, Note_off_c, 0, 50, 64
2, 1104, Note_on_c, 0, 50, 110
2, 1151, Note_off_c, 0, 50, 0
2, 1152, Note_on_c, 0, 50, 110
2, 1247, Note_off_c, 0, 50, 0
2, 1248, Note_on_c, 0, 50, 110
2, 1295, Note_off_c, 0, 50, 0
2, 1296, Note_on_c, 0, 50, 110
2, 1391, Note_off_c, 0, 50, 0
2, 1392, Note_on_c, 0, 50, 110
2, 1439, Note_off_c, 0, 50, 0
2, 1440, Note_on_c, 0, 50, 110
2, 1535, Note_off_c, 0, 50, 0
2, 1536, Note_on_c, 0, 50, 110
2, 1583, Note_off_c, 0, 50, 0
2, 1584, Note_on_c, 0, 50, 110
2, 1631, Note_off_c, 0, 50, 0
2, 1632, Note_on_c, 0, 50, 100
2, 1679, Note_off_c, 0, 50, 64
2, 1680, Note_on_c, 0, 50, 110
2, 1727, Note_off_c, 0, 50, 0
2, 1728, Note_on_c, 0, 50, 110
2, 1823, Note_off_c, 0, 50, 0
2, 1824, Note_on_c, 0, 50, 110
2, 1871, Note_off_c, 0, 50, 0
2, 1872, Note_on_c, 0, 50, 110
2, 1967, Note_off_c, 0, 50, 0
2, 1968, Note_on_c, 0, 50, 110
2, 2015, Note_off_c, 0, 50, 0
2, 2016, Note_on_c, 0, 50, 110
2, 2111, Note_off_c, 0, 50, 0
2, 2112, Note_on_c, 0, 50, 110
2, 2159, Note_off_c, 0, 50, 0
2, 2160, Note_on_c, 0, 50, 110
2, 2207, Note_off_c, 0, 50, 0
2, 2208, Note_on_c, 0, 50, 100
2, 2255, Note_off_c, 0, 50, 64
2, 2256, Note_on_c, 0, 50, 100
2, 2303, Note_off_c, 0, 50, 64
2, 2304, Note_on_c, 0, 50, 110
2, 2399, Note_off_c, 0, 50, 0
2, 2400, Note_on_c, 0, 50, 110
2, 2447, Note_off_c, 0, 50, 0
2, 2448, Note_on_c, 0, 50, 110
2, 2543, Note_off_c, 0, 50, 0
2, 2544, Note_on_c, 0, 48, 110
2, 2591, Note_off_c, 0, 48, 0
2, 2592, Note_on_c, 0, 46, 110
2, 2687, Note_off_c, 0, 46, 0
2, 2688, Note_on_c, 0, 46, 110
2, 2735, Note_off_c, 0, 46, 0
2, 2736, Note_on_c, 0, 46, 110
2, 2831, Note_off_c, 0, 46, 0
2, 2832, Note_on_c, 0, 46, 110
2, 2879, Note_off_c, 0, 46, 0
2, 2880, Note_on_c, 0, 45, 110
2, 2975, Note_off_c, 0, 45, 0
2, 2976, Note_on_c, 0, 45, 110
2, 3023, Note_off_c, 0, 45, 0
2, 3024, Note_on_c, 0, 45, 110
2, 3119, Note_off_c, 0, 45, 0
2, 3120, Note_on_c, 0, 45, 110
2, 3167, Note_off_c, 0, 45, 0
2, 3168, Note_on_c, 0, 50, 110
2, 3263, Note_off_c, 0, 50, 0
2, 3264, Note_on_c, 0, 50, 110
2, 3311, Note_off_c, 0, 50, 0
2, 3312, Note_on_c, 0, 50, 110
2, 3407, Note_off_c, 0, 50, 0
2, 3408, Note_on_c, 0, 50, 110
2, 3455, Note_off_c, 0, 50, 0
2, 3456, Note_on_c, 0, 46, 110
2, 3551, Note_off_c, 0, 46, 0
2, 3552, Note_on_c, 0, 46, 110
2, 3599, Note_off_c, 0, 46, 0
2, 3600, Note_on_c, 0, 46, 110
2, 3695, Note_off_c, 0, 46, 0
2, 3696, Note_on_c, 0, 46, 110
2, 3743, Note_off_c, 0, 46, 0
2, 3744, Note_on_c, 0, 41, 110
2, 3839, Note_off_c, 0, 41, 0
2, 3840, Note_on_c, 0, 41, 110
2, 3887, Note_off_c, 0, 41, 0
2, 3888, Note_on_c, 0, 41, 110
2, 3983, Note_off_c, 0, 41, 0
2, 3984, Note_on_c, 0, 41, 110
2, 4031, Note_off_c, 0, 41, 0
2, 4032, Note_on_c, 0, 48, 110
2, 4127, Note_off_c, 0, 48, 0
2, 4128, Note_on_c, 0, 48, 110
2, 4175, Note_off_c, 0, 48, 0
2, 4176, Note_on_c, 0, 45, 110
2, 4271, Note_off_c, 0, 45, 0
2, 4272, Note_on_c, 0, 45, 110
2, 4319, Note_off_c, 0, 45, 0
2, 4320, Note_on_c, 0, 50, 110
2, 4415, Note_off_c, 0, 50, 0
2, 4416, Note_on_c, 0, 50, 110
2, 4463, Note_off_c, 0, 50, 0
2, 4464, Note_on_c, 0, 50, 110
2, 4559, Note_off_c, 0, 50, 0
2, 4560, Note_on_c, 0, 50, 110
2, 4607, Note_off_c, 0, 50, 0
2, 4608, Note_on_c, 0, 50, 110
2, 4703, Note_off_c, 0, 50, 0
2, 4704, Note_on_c, 0, 50, 110
2, 4751, Note_off_c, 0, 50, 0
2, 4752, Note_on_c, 0, 50, 110
2, 4847, Note_off_c, 0, 50, 0
2, 4848, Note_on_c, 0, 50, 110
2, 4895, Note_off_c, 0, 50, 0
2, 4896, Note_on_c, 0, 46, 110
2, 4991, Note_off_c, 0, 46, 0
2, 4992, Note_on_c, 0, 46, 110
2, 5039, Note_off_c, 0, 46, 0
2, 5040, Note_on_c, 0, 46, 110
2, 5135, Note_off_c, 0, 46, 0
2, 5136, Note_on_c, 0, 46, 110
2, 5183, Note_off_c, 0, 46, 0
2, 5184, Note_on_c, 0, 43, 110
2, 5279, Note_off_c, 0, 43, 0
2, 5280, Note_on_c, 0, 43, 110
2, 5327, Note_off_c, 0, 43, 0
2, 5328, Note_on_c, 0, 43, 110
2, 5423, Note_off_c, 0, 43, 0
2, 5424, Note_on_c, 0, 43, 110
2, 5471, Note_off_c, 0, 43, 0
2, 5472, Note_on_c, 0, 50, 110
2, 5567, Note_off_c, 0, 50, 0
2, 5568, Note_on_c, 0, 50, 110
2, 5615, Note_off_c, 0, 50, 0
2, 5616, Note_on_c, 0, 50, 110
2, 5711, Note_off_c, 0, 50, 0
2, 5712, Note_on_c, 0, 50, 110
2, 5759, Note_off_c, 0, 50, 0
2, 5760, Note_on_c, 0, 46, 110
2, 5855, Note_off_c, 0, 46, 0
2, 5856, Note_on_c, 0, 46, 110
2, 5903, Note_off_c, 0, 46, 0
2, 5904, Note_on_c, 0, 46, 110
2, 5999, Note_off_c, 0, 46, 0
2, 6000, Note_on_c, 0, 46, 110
2, 6047, Note_off_c, 0, 46, 0
2, 6048, Note_on_c, 0, 50, 110
2, 6143, Note_off_c, 0, 50, 0
2, 6144, Note_on_c, 0, 50, 110
2, 6191, Note_off_c, 0, 50, 0
2, 6192, Note_on_c, 0, 50, 110
2, 6287, Note_off_c, 0, 50, 0
2, 6288, Note_on_c, 0, 50, 110
2, 6335, Note_off_c, 0, 50, 0
2, 6336, Note_on_c, 0, 45, 110
2, 6431, Note_off_c, 0, 45, 0
2, 6432, Note_on_c, 0, 45, 110
2, 6479, Note_off_c, 0, 45, 0
2, 6480, Note_on_c, 0, 45, 110
2, 6575, Note_off_c, 0, 45, 0
2, 6576, Note_on_c, 0, 45, 110
2, 6623, Note_off_c, 0, 45, 0
2, 6624, Note_on_c, 0, 45, 110
2, 6719, Note_off_c, 0, 45, 0
2, 6720, Note_on_c, 0, 45, 110
2, 6767, Note_off_c, 0, 45, 0
2, 6768, Note_on_c, 0, 45, 110
2, 6863, Note_off_c, 0, 45, 0
2, 6864, Note_on_c, 0, 45, 110
2, 6911, Note_off_c, 0, 45, 0
2, 6912, Note_on_c, 0, 50, 110
2, 7007, Note_off_c, 0, 50, 0
2, 7008, Note_on_c, 0, 50, 110
2, 7055, Note_off_c, 0, 50, 0
2, 7056, Note_on_c, 0, 50, 110
2, 7151, Note_off_c, 0, 50, 0
2, 7152, Note_on_c, 0, 48, 110
2, 7199, Note_off_c, 0, 48, 0
2, 7200, Note_on_c, 0, 46, 110
2, 7295, Note_off_c, 0, 46, 0
2, 7296, Note_on_c, 0, 46, 110
2, 7343, Note_off_c, 0, 46, 0
2, 7344, Note_on_c, 0, 46, 110
2, 7439, Note_off_c, 0, 46, 0
2, 7440, Note_on_c, 0, 46, 110
2, 7487, Note_off_c, 0, 46, 0
2, 7488, Note_on_c, 0, 45, 110
2, 7583, Note_off_c, 0, 45, 0
2, 7584, Note_on_c, 0, 45, 110
2, 7631, Note_off_c, 0, 45, 0
2, 7632, Note_on_c, 0, 45, 110
2, 7727, Note_off_c, 0, 45, 0
2, 7728, Note_on_c, 0, 45, 110
2, 7775, Note_off_c, 0, 45, 0
2, 7776, Note_on_c, 0, 50, 110
2, 7871, Note_off_c, 0, 50, 0
2, 7872, Note_on_c, 0, 50, 110
2, 7919, Note_off_c, 0, 50, 0
2, 7920, Note_on_c, 0, 50, 110
2, 8015, Note_off_c, 0, 50, 0
2, 8016, Note_on_c, 0, 50, 110
2, 8063, Note_off_c, 0, 50, 0
2, 8064, Note_on_c, 0, 46, 110
2, 8159, Note_off_c, 0, 46, 0
2, 8160, Note_on_c, 0, 46, 110
2, 8207, Note_off_c, 0, 46, 0
2, 8208, Note_on_c, 0, 46, 110
2, 8303, Note_off_c, 0, 46, 0
2, 8304, Note_on_c, 0, 46, 110
2, 8351, Note_off_c, 0, 46, 0
2, 8352, Note_on_c, 0, 41, 110
2, 8447, Note_off_c, 0, 41, 0
2, 8448, Note_on_c, 0, 41, 110
2, 8495, Note_off_c, 0, 41, 0
2, 8496, Note_on_c, 0, 41, 110
2, 8591, Note_off_c, 0, 41, 0
2, 8592, Note_on_c, 0, 41, 110
2, 8639, Note_off_c, 0, 41, 0
2, 8640, Note_on_c, 0, 48, 110
2, 8735, Note_off_c, 0, 48, 0
2, 8736, Note_on_c, 0, 48, 110
2, 8783, Note_off_c, 0, 48, 0
2, 8784, Note_on_c, 0, 45, 110
2, 8879, Note_off_c, 0, 45, 0
2, 8880, Note_on_c, 0, 45, 110
2, 8927, Note_off_c, 0, 45, 0
2, 8928, Note_on_c, 0, 50, 110
2, 9023, Note_off_c, 0, 50, 0
2, 9024, Note_on_c, 0, 50, 110
2, 9071, Note_off_c, 0, 50, 0
2, 9072, Note_on_c, 0, 50, 110
2, 9167, Note_off_c, 0, 50, 0
2, 9168, Note_on_c, 0, 50, 110
2, 9215, Note_off_c, 0, 50, 0
2, 9216, Note_on_c, 0, 50, 110
2, 9311, Note_off_c, 0, 50, 0
2, 9312, Note_on_c, 0, 50, 110
2, 9359, Note_off_c, 0, 50, 0
2, 9360, Note_on_c, 0, 50, 110
2, 9455, Note_off_c, 0, 50, 0
2, 9456, Note_on_c, 0, 50, 110
2, 9503, Note_off_c, 0, 50, 0
2, 9504, Note_on_c, 0, 46, 110
2, 9599, Note_off_c, 0, 46, 0
2, 9600, Note_on_c, 0, 46, 110
2, 9647, Note_off_c, 0, 46, 0
2, 9648, Note_on_c, 0, 46, 110
2, 9743, Note_off_c, 0, 46, 0
2, 9744, Note_on_c, 0, 46, 110
2, 9791, Note_off_c, 0, 46, 0
2, 9792, Note_on_c, 0, 43, 110
2, 9887, Note_off_c, 0, 43, 0
2, 9888, Note_on_c, 0, 43, 110
2, 9935, Note_off_c, 0, 43, 0
2, 9936, Note_on_c, 0, 43, 110
2, 10031, Note_off_c, 0, 43, 0
2, 10032, Note_on_c, 0, 43, 110
2, 10079, Note_off_c, 0, 43, 0
2, 10080, Note_on_c, 0, 50, 110
2, 10175, Note_off_c, 0, 50, 0
2, 10176, Note_on_c, 0, 50, 110
2, 10223, Note_off_c, 0, 50, 0
2, 10224, Note_on_c, 0, 50, 110
2, 10319, Note_off_c, 0, 50, 0
2, 10320, Note_on_c, 0, 50, 110
2, 10367, Note_off_c, 0, 50, 0
2, 10368, Note_on_c, 0, 46, 110
2, 10463, Note_off_c, 0, 46, 0
2, 10464, Note_on_c, 0, 46, 110
2, 10511, Note_off_c, 0, 46, 0
2, 10512, Note_on_c, 0, 46, 110
2, 10607, Note_off_c, 0, 46, 0
2, 10608, Note_on_c, 0, 46, 110
2, 10655, Note_off_c, 0, 46, 0
2, 10656, Note_on_c, 0, 50, 110
2, 10751, Note_off_c, 0, 50, 0
2, 10752, Note_on_c, 0, 50, 110
2, 10799, Note_off_c, 0, 50, 0
2, 10800, Note_on_c, 0, 50, 110
2, 10895, Note_off_c, 0, 50, 0
2, 10896, Note_on_c, 0, 50, 110
2, 10943, Note_off_c, 0, 50, 0
2, 10944, Note_on_c, 0, 45, 110
2, 11039, Note_off_c, 0, 45, 0
2, 11040, Note_on_c, 0, 45, 110
2, 11087, Note_off_c, 0, 45, 0
2, 11088, Note_on_c, 0, 45, 110
2, 11183, Note_off_c, 0, 45, 0
2, 11184, Note_on_c, 0, 45, 110
2, 11231, Note_off_c, 0, 45, 0
2, 11232, Note_on_c, 0, 50, 110
2, 11327, Note_off_c, 0, 50, 0
2, 11328, Note_on_c, 0, 50, 110
2, 11423, Note_off_c, 0, 50, 0
2, 11424, Note_on_c, 0, 48, 110
2, 11519, Note_off_c, 0, 48, 0
2, 11520, Note_on_c, 0, 48, 110
2, 11615, Note_off_c, 0, 48, 0
2, 11616, Note_on_c, 0, 48, 110
2, 11711, Note_off_c, 0, 48, 0
2, 11712, Note_on_c, 0, 46, 110
2, 11807, Note_off_c, 0, 46, 0
2, 11808, Note_on_c, 0, 45, 110
2, 11903, Note_off_c, 0, 45, 0
2, 11904, Note_on_c, 0, 45, 110
2, 11951, Note_off_c, 0, 45, 0
2, 11952, Note_on_c, 0, 45, 110
2, 12047, Note_off_c, 0, 45, 0
2, 12048, Note_on_c, 0, 45, 110
2, 12095, Note_off_c, 0, 45, 0
2, 12096, Note_on_c, 0, 45, 110
2, 12191, Note_off_c, 0, 45, 0
2, 12192, Note_on_c, 0, 45, 110
2, 12239, Note_off_c, 0, 45, 0
2, 12240, Note_on_c, 0, 45, 110
2, 12335, Note_off_c, 0, 45, 0
2, 12336, Note_on_c, 0, 45, 110
2, 12383, Note_off_c, 0, 45, 0
2, 12384, Note_on_c, 0, 43, 110
2, 12479, Note_off_c, 0, 43, 0
2, 12480, Note_on_c, 0, 43, 110
2, 12527, Note_off_c, 0, 43, 0
2, 12528, Note_on_c, 0, 43, 110
2, 12623, Note_off_c, 0, 43, 0
2, 12624, Note_on_c, 0, 43, 110
2, 12671, Note_off_c, 0, 43, 0
2, 12672, Note_on_c, 0, 43, 110
2, 12767, Note_off_c, 0, 43, 0
2, 12768, Note_on_c, 0, 43, 110
2, 12815, Note_off_c, 0, 43, 0
2, 12816, Note_on_c, 0, 43, 110
2, 12911, Note_off_c, 0, 43, 0
2, 12912, Note_on_c, 0, 43, 110
2, 12959, Note_off_c, 0, 43, 0
2, 12960, Note_on_c, 0, 45, 110
2, 13055, Note_off_c, 0, 45, 0
2, 13056, Note_on_c, 0, 45, 110
2, 13103, Note_off_c, 0, 45, 0
2, 13104, Note_on_c, 0, 45, 110
2, 13199, Note_off_c, 0, 45, 0
2, 13200, Note_on_c, 0, 45, 110
2, 13247, Note_off_c, 0, 45, 0
2, 13248, Note_on_c, 0, 45, 110
2, 13343, Note_off_c, 0, 45, 0
2, 13344, Note_on_c, 0, 45, 110
2, 13391, Note_off_c, 0, 45, 0
2, 13392, Note_on_c, 0, 45, 110
2, 13487, Note_off_c, 0, 45, 0
2, 13488, Note_on_c, 0, 45, 110
2, 13535, Note_off_c, 0, 45, 0
2, 13536, Note_on_c, 0, 50, 110
2, 13631, Note_off_c, 0, 50, 0
2, 13632, Note_on_c, 0, 50, 110
2, 13679, Note_off_c, 0, 50, 0
2, 13680, Note_on_c, 0, 50, 110
2, 13775, Note_off_c, 0, 50, 0
2, 13776, Note_on_c, 0, 50, 110
2, 13823, Note_off_c, 0, 50, 0
2, 13824, Note_on_c, 0, 50, 110
2, 13919, Note_off_c, 0, 50, 0
2, 13920, Note_on_c, 0, 50, 110
2, 13967, Note_off_c, 0, 50, 0
2, 13968, Note_on_c, 0, 50, 110
2, 14015, Note_off_c, 0, 50, 0
2, 14016, Note_on_c, 0, 50, 110
2, 14063, Note_off_c, 0, 50, 0
2, 14064, Note_on_c, 0, 50, 110
2, 14111, Note_off_c, 0, 50, 0
2, 14112, Note_on_c, 0, 48, 110
2, 14207, Note_off_c, 0, 48, 0
2, 14208, Note_on_c, 0, 48, 110
2, 14255, Note_off_c, 0, 48, 0
2, 14256, Note_on_c, 0, 48, 110
2, 14351, Note_off_c, 0, 48, 0
2, 14352, Note_on_c, 0, 48, 110
2, 14399, Note_off_c, 0, 48, 0
2, 14400, Note_on_c, 0, 53, 110
2, 14495, Note_off_c, 0, 53, 0
2, 14496, Note_on_c, 0, 53, 110
2, 14543, Note_off_c, 0, 53, 0
2, 14544, Note_on_c, 0, 53, 110
2, 14591, Note_off_c, 0, 53, 0
2, 14592, Note_on_c, 0, 53, 110
2, 14639, Note_off_c, 0, 53, 0
2, 14640, Note_on_c, 0, 53, 110
2, 14687, Note_off_c, 0, 53, 0
2, 14688, Note_on_c, 0, 50, 110
2, 14783, Note_off_c, 0, 50, 0
2, 14784, Note_on_c, 0, 50, 110
2, 14831, Note_off_c, 0, 50, 0
2, 14832, Note_on_c, 0, 50, 110
2, 14927, Note_off_c, 0, 50, 0
2, 14928, Note_on_c, 0, 50, 110
2, 14975, Note_off_c, 0, 50, 0
2, 14976, Note_on_c, 0, 50, 110
2, 15071, Note_off_c, 0, 50, 0
2, 15072, Note_on_c, 0, 50, 110
2, 15119, Note_off_c, 0, 50, 0
2, 15120, Note_on_c, 0, 50, 110
2, 15167, Note_off_c, 0, 50, 0
2, 15168, Note_on_c, 0, 50, 110
2, 15215, Note_off_c, 0, 50, 0
2, 15216, Note_on_c, 0, 50, 110
2, 15263, Note_off_c, 0, 50, 0
2, 15264, Note_on_c, 0, 45, 100
2, 15359, Note_off_c, 0, 45, 64
2, 15360, Note_on_c, 0, 45, 100
2, 15407, Note_off_c, 0, 45, 64
2, 15408, Note_on_c, 0, 45, 110
2, 15503, Note_off_c, 0, 45, 0
2, 15504, Note_on_c, 0, 45, 110
2, 15551, Note_off_c, 0, 45, 0
2, 15552, Note_on_c, 0, 50, 110
2, 15647, Note_off_c, 0, 50, 0
2, 15648, Note_on_c, 0, 50, 110
2, 15695, Note_off_c, 0, 50, 0
2, 15696, Note_on_c, 0, 50, 110
2, 15791, Note_off_c, 0, 50, 0
2, 15792, Note_on_c, 0, 50, 110
2, 15839, Note_off_c, 0, 50, 0
2, 15840, Note_on_c, 0, 50, 110
2, 15935, Note_off_c, 0, 50, 0
2, 15936, Note_on_c, 0, 50, 110
2, 15983, Note_off_c, 0, 50, 0
2, 15984, Note_on_c, 0, 50, 110
2, 16079, Note_off_c, 0, 50, 0
2, 16080, Note_on_c, 0, 50, 110
2, 16127, Note_off_c, 0, 50, 0
2, 16128, Note_on_c, 0, 48, 110
2, 16223, Note_off_c, 0, 48, 0
2, 16224, Note_on_c, 0, 48, 110
2, 16271, Note_off_c, 0, 48, 0
2, 16272, Note_on_c, 0, 48, 110
2, 16319, Note_off_c, 0, 48, 0
2, 16320, Note_on_c, 0, 48, 110
2, 16367, Note_off_c, 0, 48, 0
2, 16368, Note_on_c, 0, 48, 110
2, 16415, Note_off_c, 0, 48, 0
2, 16416, Note_on_c, 0, 53, 110
2, 16511, Note_off_c, 0, 53, 0
2, 16512, Note_on_c, 0, 53, 110
2, 16559, Note_off_c, 0, 53, 0
2, 16560, Note_on_c, 0, 53, 110
2, 16607, Note_off_c, 0, 53, 0
2, 16608, Note_on_c, 0, 53, 110
2, 16655, Note_off_c, 0, 53, 0
2, 16656, Note_on_c, 0, 53, 110
2, 16703, Note_off_c, 0, 53, 0
2, 16704, Note_on_c, 0, 48, 110
2, 16799, Note_off_c, 0, 48, 0
2, 16800, Note_on_c, 0, 48, 110
2, 16847, Note_off_c, 0, 48, 0
2, 16848, Note_on_c, 0, 48, 110
2, 16895, Note_off_c, 0, 48, 0
2, 16896, Note_on_c, 0, 48, 110
2, 16943, Note_off_c, 0, 48, 0
2, 16944, Note_on_c, 0, 48, 110
2, 16991, Note_off_c, 0, 48, 0
2, 16992, Note_on_c, 0, 53, 110
2, 17087, Note_off_c, 0, 53, 0
2, 17088, Note_on_c, 0, 53, 110
2, 17135, Note_off_c, 0, 53, 0
2, 17136, Note_on_c, 0, 53, 110
2, 17183, Note_off_c, 0, 53, 0
2, 17184, Note_on_c, 0, 53, 110
2, 17231, Note_off_c, 0, 53, 0
2, 17232, Note_on_c, 0, 53, 110
2, 17279, Note_off_c, 0, 53, 0
2, 17280, Note_on_c, 0, 45, 110
2, 17375, Note_off_c, 0, 45, 0
2, 17376, Note_on_c, 0, 45, 110
2, 17423, Note_off_c, 0, 45, 0
2, 17424, Note_on_c, 0, 45, 110
2, 17471, Note_off_c, 0, 45, 0
2, 17472, Note_on_c, 0, 45, 110
2, 17519, Note_off_c, 0, 45, 0
2, 17520, Note_on_c, 0, 45, 110
2, 17567, Note_off_c, 0, 45, 0
2, 17568, Note_on_c, 0, 50, 110
2, 17663, Note_off_c, 0, 50, 0
2, 17664, Note_on_c, 0, 50, 110
2, 17711, Note_off_c, 0, 50, 0
2, 17712, Note_on_c, 0, 50, 110
2, 17807, Note_off_c, 0, 50, 0
2, 17808, Note_on_c, 0, 50, 110
2, 17855, Note_off_c, 0, 50, 0
2, 17856, Note_on_c, 0, 50, 110
2, 17951, Note_off_c, 0, 50, 0
2, 17952, Note_on_c, 0, 50, 110
2, 17999, Note_off_c, 0, 50, 0
2, 18000, Note_on_c, 0, 50, 110
2, 18047, Note_off_c, 0, 50, 0
2, 18048, Note_on_c, 0, 50, 110
2, 18095, Note_off_c, 0, 50, 0
2, 18096, Note_on_c, 0, 50, 110
2, 18143, Note_off_c, 0, 50, 0
2, 18144, Note_on_c, 0, 50, 110
2, 18239, Note_off_c, 0, 50, 0
2, 18240, Note_on_c, 0, 50, 110
2, 18287, Note_off_c, 0, 50, 0
2, 18288, Note_on_c, 0, 50, 110
2, 18335, Note_off_c, 0, 50, 0
2, 18336, Note_on_c, 0, 50, 110
2, 18383, Note_off_c, 0, 50, 0
2, 18384, Note_on_c, 0, 50, 110
2, 18431, Note_off_c, 0, 50, 0
2, 18432, Note_on_c, 0, 48, 110
2, 18527, Note_off_c, 0, 48, 0
2, 18528, Note_on_c, 0, 48, 110
2, 18575, Note_off_c, 0, 48, 0
2, 18576, Note_on_c, 0, 48, 110
2, 18623, Note_off_c, 0, 48, 0
2, 18624, Note_on_c, 0, 48, 110
2, 18671, Note_off_c, 0, 48, 0
2, 18672, Note_on_c, 0, 48, 110
2, 18719, Note_off_c, 0, 48, 0
2, 18720, Note_on_c, 0, 53, 110
2, 18815, Note_off_c, 0, 53, 0
2, 18816, Note_on_c, 0, 53, 110
2, 18863, Note_off_c, 0, 53, 0
2, 18864, Note_on_c, 0, 53, 110
2, 18911, Note_off_c, 0, 53, 0
2, 18912, Note_on_c, 0, 53, 110
2, 18959, Note_off_c, 0, 53, 0
2, 18960, Note_on_c, 0, 53, 110
2, 19007, Note_off_c, 0, 53, 0
2, 19008, Note_on_c, 0, 46, 110
2, 19103, Note_off_c, 0, 46, 0
2, 19104, Note_on_c, 0, 46, 110
2, 19151, Note_off_c, 0, 46, 0
2, 19152, Note_on_c, 0, 46, 110
2, 19199, Note_off_c, 0, 46, 0
2, 19200, Note_on_c, 0, 46, 110
2, 19247, Note_off_c, 0, 46, 0
2, 19248, Note_on_c, 0, 46, 110
2, 19295, Note_off_c, 0, 46, 0
2, 19296, Note_on_c, 0, 50, 110
2, 19391, Note_off_c, 0, 50, 0
2, 19392, Note_on_c, 0, 50, 110
2, 19439, Note_off_c, 0, 50, 0
2, 19440, Note_on_c, 0, 50, 110
2, 19487, Note_off_c, 0, 50, 0
2, 19488, Note_on_c, 0, 50, 110
2, 19535, Note_off_c, 0, 50, 0
2, 19536, Note_on_c, 0, 50, 110
2, 19583, Note_off_c, 0, 50, 0
2, 19584, Note_on_c, 0, 43, 110
2, 19679, Note_off_c, 0, 43, 0
2, 19680, Note_on_c, 0, 43, 110
2, 19727, Note_off_c, 0, 43, 0
2, 19728, Note_on_c, 0, 43, 110
2, 19775, Note_off_c, 0, 43, 0
2, 19776, Note_on_c, 0, 43, 110
2, 19823, Note_off_c, 0, 43, 0
2, 19824, Note_on_c, 0, 43, 110
2, 19871, Note_off_c, 0, 43, 0
2, 19872, Note_on_c, 0, 45, 110
2, 19967, Note_off_c, 0, 45, 0
2, 19968, Note_on_c, 0, 45, 110
2, 20015, Note_off_c, 0, 45, 0
2, 20016, Note_on_c, 0, 45, 110
2, 20063, Note_off_c, 0, 45, 0
2, 20064, Note_on_c, 0, 45, 110
2, 20111, Note_off_c, 0, 45, 0
2, 20112, Note_on_c, 0, 45, 110
2, 20159, Note_off_c, 0, 45, 0
2, 20160, Note_on_c, 0, 45, 110
2, 20255, Note_off_c, 0, 45, 0
2, 20256, Note_on_c, 0, 45, 110
2, 20303, Note_off_c, 0, 45, 0
2, 20304, Note_on_c, 0, 45, 110
2, 20351, Note_off_c, 0, 45, 0
2, 20352, Note_on_c, 0, 45, 110
2, 20399, Note_off_c, 0, 45, 0
2, 20400, Note_on_c, 0, 45, 110
2, 20447, Note_off_c, 0, 45, 0
2, 20448, Note_on_c, 0, 50, 110
2, 20543, Note_off_c, 0, 50, 0
2, 20544, Note_on_c, 0, 50, 110
2, 20591, Note_off_c, 0, 50, 0
2, 20592, Note_on_c, 0, 50, 110
2, 20639, Note_off_c, 0, 50, 0
2, 20640, Note_on_c, 0, 50, 110
2, 20687, Note_off_c, 0, 50, 0
2, 20688, Note_on_c, 0, 50, 110
2, 20735, Note_off_c, 0, 50, 0
2, 20736, Note_on_c, 0, 43, 110
2, 20831, Note_off_c, 0, 43, 0
2, 20832, Note_on_c, 0, 43, 110
2, 20879, Note_off_c, 0, 43, 0
2, 20880, Note_on_c, 0, 43, 110
2, 20927, Note_off_c, 0, 43, 0
2, 20928, Note_on_c, 0, 43, 110
2, 20975, Note_off_c, 0, 43, 0
2, 20976, Note_on_c, 0, 43, 110
2, 21023, Note_off_c, 0, 43, 0
2, 21408, Note_on_c, 0, 48, 110
2, 21455, Note_off_c, 0, 48, 0
2, 21456, Note_on_c, 0, 48, 110
2, 21503, Note_off_c, 0, 48, 0
2, 21504, Note_on_c, 0, 48, 110
2, 21551, Note_off_c, 0, 48, 0
2, 21552, Note_on_c, 0, 48, 110
2, 21599, Note_off_c, 0, 48, 0
2, 21600, Note_on_c, 0, 43, 110
2, 21695, Note_off_c, 0, 43, 0
2, 21696, Note_on_c, 0, 43, 110
2, 21743, Note_off_c, 0, 43, 0
2, 21744, Note_on_c, 0, 43, 110
2, 21791, Note_off_c, 0, 43, 0
2, 21792, Note_on_c, 0, 43, 110
2, 21839, Note_off_c, 0, 43, 0
2, 21840, Note_on_c, 0, 43, 110
2, 21887, Note_off_c, 0, 43, 0
2, 21888, Note_on_c, 0, 45, 110
2, 21983, Note_off_c, 0, 45, 0
2, 21984, Note_on_c, 0, 45, 110
2, 22031, Note_off_c, 0, 45, 0
2, 22032, Note_on_c, 0, 45, 110
2, 22079, Note_off_c, 0, 45, 0
2, 22080, Note_on_c, 0, 45, 110
2, 22127, Note_off_c, 0, 45, 0
2, 22128, Note_on_c, 0, 45, 110
2, 22175, Note_off_c, 0, 45, 0
2, 22176, Note_on_c, 0, 45, 110
2, 22271, Note_off_c, 0, 45, 0
2, 22272, Note_on_c, 0, 45, 110
2, 22319, Note_off_c, 0, 45, 0
2, 22320, Note_on_c, 0, 45, 110
2, 22367, Note_off_c, 0, 45, 0
2, 22368, Note_on_c, 0, 45, 110
2, 22415, Note_off_c, 0, 45, 0
2, 22416, Note_on_c, 0, 45, 110
2, 22463, Note_off_c, 0, 45, 0
2, 22464, Note_on_c, 0, 50, 110
2, 22559, Note_off_c, 0, 50, 0
2, 22560, Note_on_c, 0, 50, 110
2, 22607, Note_off_c, 0, 50, 0
2, 22608, Note_on_c, 0, 50, 110
2, 22655, Note_off_c, 0, 50, 0
2, 22656, Note_on_c, 0, 50, 110
2, 22703, Note_off_c, 0, 50, 0
2, 22704, Note_on_c, 0, 50, 110
2, 22751, Note_off_c, 0, 50, 0
2, 22752, Note_on_c, 0, 50, 110
2, 22847, Note_off_c, 0, 50, 0
2, 22848, Note_on_c, 0, 50, 110
2, 22895, Note_off_c, 0, 50, 0
2, 22896, Note_on_c, 0, 50, 110
2, 22943, Note_off_c, 0, 50, 0
2, 22944, Note_on_c, 0, 50, 110
2, 22991, Note_off_c, 0, 50, 0
2, 22992, Note_on_c, 0, 50, 110
2, 23039, Note_off_c, 0, 50, 0
2, 23040, Note_on_c, 0, 46, 110
2, 23135, Note_off_c, 0, 46, 0
2, 23136, Note_on_c, 0, 46, 110
2, 23183, Note_off_c, 0, 46, 0
2, 23184, Note_on_c, 0, 46, 110
2, 23231, Note_off_c, 0, 46, 0
2, 23232, Note_on_c, 0, 46, 110
2, 23279, Note_off_c, 0, 46, 0
2, 23280, Note_on_c, 0, 46, 110
2, 23327, Note_off_c, 0, 46, 0
2, 23328, Note_on_c, 0, 53, 110
2, 23423, Note_off_c, 0, 53, 0
2, 23424, Note_on_c, 0, 53, 110
2, 23471, Note_off_c, 0, 53, 0
2, 23472, Note_on_c, 0, 53, 110
2, 23519, Note_off_c, 0, 53, 0
2, 23520, Note_on_c, 0, 53, 110
2, 23567, Note_off_c, 0, 53, 0
2, 23568, Note_on_c, 0, 53, 110
2, 23615, Note_off_c, 0, 53, 0
2, 23616, Note_on_c, 0, 48, 110
2, 23711, Note_off_c, 0, 48, 0
2, 23712, Note_on_c, 0, 48, 110
2, 23759, Note_off_c, 0, 48, 0
2, 23760, Note_on_c, 0, 48, 110
2, 23807, Note_off_c, 0, 48, 0
2, 23808, Note_on_c, 0, 48, 110
2, 23855, Note_off_c, 0, 48, 0
2, 23856, Note_on_c, 0, 48, 110
2, 23903, Note_off_c, 0, 48, 0
2, 23904, Note_on_c, 0, 43, 110
2, 23999, Note_off_c, 0, 43, 0
2, 24000, Note_on_c, 0, 43, 110
2, 24047, Note_off_c, 0, 43, 0
2, 24048, Note_on_c, 0, 43, 110
2, 24095, Note_off_c, 0, 43, 0
2, 24096, Note_on_c, 0, 43, 110
2, 24143, Note_off_c, 0, 43, 0
2, 24144, Note_on_c, 0, 43, 110
2, 24191, Note_off_c, 0, 43, 0
2, 24192, Note_on_c, 0, 45, 110
2, 24287, Note_off_c, 0, 45, 0
2, 24288, Note_on_c, 0, 45, 110
2, 24335, Note_off_c, 0, 45, 0
2, 24336, Note_on_c, 0, 45, 110
2, 24383, Note_off_c, 0, 45, 0
2, 24384, Note_on_c, 0, 45, 110
2, 24431, Note_off_c, 0, 45, 0
2, 24432, Note_on_c, 0, 45, 110
2, 24479, Note_off_c, 0, 45, 0
2, 24480, Note_on_c, 0, 45, 110
2, 24575, Note_off_c, 0, 45, 0
2, 24576, Note_on_c, 0, 45, 110
2, 24623, Note_off_c, 0, 45, 0
2, 24624, Note_on_c, 0, 45, 110
2, 24671, Note_off_c, 0, 45, 0
2, 24672, Note_on_c, 0, 45, 110
2, 24719, Note_off_c, 0, 45, 0
2, 24720, Note_on_c, 0, 45, 110
2, 24767, Note_off_c, 0, 45, 0
2, 24768, Note_on_c, 0, 50, 110
2, 24911, Note_off_c, 0, 50, 0
2, 24912, Note_on_c, 0, 50, 110
2, 25007, Note_off_c, 0, 50, 0
2, 25008, Note_on_c, 0, 50, 110
2, 25055, Note_off_c, 0, 50, 0
2, 25056, Note_on_c, 0, 46, 110
2, 25151, Note_off_c, 0, 46, 0
2, 25152, Note_on_c, 0, 46, 110
2, 25199, Note_off_c, 0, 46, 0
2, 25200, Note_on_c, 0, 46, 110
2, 25295, Note_off_c, 0, 46, 0
2, 25296, Note_on_c, 0, 46, 110
2, 25343, Note_off_c, 0, 46, 0
2, 25344, Note_on_c, 0, 50, 110
2, 25439, Note_off_c, 0, 50, 0
2, 25440, Note_on_c, 0, 50, 110
2, 25487, Note_off_c, 0, 50, 0
2, 25488, Note_on_c, 0, 50, 110
2, 25583, Note_off_c, 0, 50, 0
2, 25584, Note_on_c, 0, 50, 110
2, 25631, Note_off_c, 0, 50, 0
2, 25632, Note_on_c, 0, 45, 110
2, 25727, Note_off_c, 0, 45, 0
2, 25728, Note_on_c, 0, 45, 110
2, 25775, Note_off_c, 0, 45, 0
2, 25776, Note_on_c, 0, 45, 110
2, 25871, Note_off_c, 0, 45, 0
2, 25872, Note_on_c, 0, 45, 110
2, 25919, Note_off_c, 0, 45, 0
2, 25920, Note_on_c, 0, 50, 110
2, 26015, Note_off_c, 0, 50, 0
2, 26016, Note_on_c, 0, 50, 110
2, 26111, Note_off_c, 0, 50, 0
2, 26496, Control_c, 0, 101, 0
2, 26496, Control_c, 0, 100, 0
2, 26496, Control_c, 0, 6, 12
2, 26496, Control_c, 0, 10, 64
2, 26496, Control_c, 0, 7, 100
2, 26496, Pitch_bend_c, 0, 8192
2, 26496, Program_c, 0, 0
2, 26496, Control_c, 0, 101, 0
2, 26496, Control_c, 0, 100, 0
2, 26496, Control_c, 0, 6, 12
2, 26496, Control_c, 0, 10, 64
2, 26496, Control_c, 0, 7, 100
2, 26496, Pitch_bend_c, 0, 8192
2, 26496, Program_c, 0, 0
2, 26496, Control_c, 0, 101, 0
2, 26496, Control_c, 0, 100, 0
2, 26496, Control_c, 0, 6, 12
2, 26496, Control_c, 0, 10, 64
2, 26496, Control_c, 0, 7, 100
2, 26496, Pitch_bend_c, 0, 8192
2, 26496, Program_c, 0, 0
2, 26496, End_track
3, 0, Start_track
3, 0, Title_t, "DIST Metal (MIDI)"
3, 0, Control_c, 1, 10, 64
3, 0, Control_c, 1, 7, 100
3, 0, Pitch_bend_c, 1, 8192
3, 0, Control_c, 1, 101, 0
3, 0, Control_c, 1, 100, 0
3, 0, Control_c, 1, 6, 12
3, 0, Control_c, 1, 10, 64
3, 0, Control_c, 1, 7, 100
3, 0, Pitch_bend_c, 1, 8192
3, 0, Program_c, 1, 0
3, 1152, Note_on_c, 1, 62, 100
3, 2207, Note_off_c, 1, 62, 64
3, 2208, Note_on_c, 1, 57, 100
3, 2255, Note_off_c, 1, 57, 64
3, 2256, Note_on_c, 1, 60, 100
3, 2303, Note_off_c, 1, 60, 64
3, 2304, Note_on_c, 1, 62, 100
3, 2399, Note_off_c, 1, 62, 64
3, 2400, Note_on_c, 1, 62, 100
3, 2495, Note_off_c, 1, 62, 64
3, 2496, Note_on_c, 1, 62, 100
3, 2543, Note_off_c, 1, 62, 64
3, 2544, Note_on_c, 1, 64, 100
3, 2591, Note_off_c, 1, 64, 64
3, 2592, Note_on_c, 1, 65, 100
3, 2687, Note_off_c, 1, 65, 64
3, 2688, Note_on_c, 1, 65, 100
3, 2783, Note_off_c, 1, 65, 64
3, 2784, Note_on_c, 1, 67, 100
3, 2879, Note_off_c, 1, 67, 64
3, 2880, Note_on_c, 1, 64, 100
3, 2975, Note_off_c, 1, 64, 64
3, 2976, Note_on_c, 1, 64, 100
3, 3071, Note_off_c, 1, 64, 64
3, 3072, Note_on_c, 1, 62, 100
3, 3119, Note_off_c, 1, 62, 64
3, 3120, Note_on_c, 1, 60, 100
3, 3167, Note_off_c, 1, 60, 64
3, 3168, Note_on_c, 1, 62, 100
3, 3359, Note_off_c, 1, 62, 64
3, 3360, Note_on_c, 1, 57, 100
3, 3407, Note_off_c, 1, 57, 64
3, 3408, Note_on_c, 1, 60, 100
3, 3455, Note_off_c, 1, 60, 64
3, 3456, Note_on_c, 1, 62, 100
3, 3551, Note_off_c, 1, 62, 64
3, 3552, Note_on_c, 1, 62, 100
3, 3647, Note_off_c, 1, 62, 64
3, 3648, Note_on_c, 1, 62, 100
3, 3695, Note_off_c, 1, 62, 64
3, 3696, Note_on_c, 1, 64, 100
3, 3743, Note_off_c, 1, 64, 64
3, 3744, Note_on_c, 1, 65, 100
3, 3839, Note_off_c, 1, 65, 64
3, 3840, Note_on_c, 1, 65, 100
3, 3935, Note_off_c, 1, 65, 64
3, 3936, Note_on_c, 1, 67, 100
3, 4031, Note_off_c, 1, 67, 64
3, 4032, Note_on_c, 1, 64, 100
3, 4127, Note_off_c, 1, 64, 64
3, 4128, Note_on_c, 1, 64, 100
3, 4223, Note_off_c, 1, 64, 64
3, 4224, Note_on_c, 1, 62, 100
3, 4271, Note_off_c, 1, 62, 64
3, 4272, Note_on_c, 1, 60, 100
3, 4319, Note_off_c, 1, 60, 64
3, 4320, Note_on_c, 1, 62, 100
3, 4511, Note_off_c, 1, 62, 64
3, 4512, Note_on_c, 1, 57, 100
3, 4559, Note_off_c, 1, 57, 64
3, 4560, Note_on_c, 1, 60, 100
3, 4607, Note_off_c, 1, 60, 64
3, 4608, Note_on_c, 1, 62, 100
3, 4703, Note_off_c, 1, 62, 64
3, 4704, Note_on_c, 1, 62, 100
3, 4799, Note_off_c, 1, 62, 64
3, 4800, Note_on_c, 1, 62, 100
3, 4847, Note_off_c, 1, 62, 64
3, 4848, Note_on_c, 1, 65, 100
3, 4895, Note_off_c, 1, 65, 64
3, 4896, Note_on_c, 1, 67, 100
3, 4991, Note_off_c, 1, 67, 64
3, 4992, Note_on_c, 1, 67, 100
3, 5087, Note_off_c, 1, 67, 64
3, 5088, Note_on_c, 1, 69, 100
3, 5135, Note_off_c, 1, 69, 64
3, 5136, Note_on_c, 1, 70, 100
3, 5231, Note_off_c, 1, 70, 64
3, 5232, Note_on_c, 1, 70, 100
3, 5327, Note_off_c, 1, 70, 64
3, 5328, Note_on_c, 1, 69, 100
3, 5423, Note_off_c, 1, 69, 64
3, 5424, Note_on_c, 1, 67, 100
3, 5471, Note_off_c, 1, 67, 64
3, 5472, Note_on_c, 1, 69, 100
3, 5519, Note_off_c, 1, 69, 64
3, 5520, Note_on_c, 1, 62, 100
3, 5663, Note_off_c, 1, 62, 64
3, 5664, Note_on_c, 1, 62, 100
3, 5711, Note_off_c, 1, 62, 64
3, 5712, Note_on_c, 1, 64, 100
3, 5759, Note_off_c, 1, 64, 64
3, 5760, Note_on_c, 1, 65, 100
3, 5855, Note_off_c, 1, 65, 64
3, 5856, Note_on_c, 1, 67, 100
3, 5951, Note_off_c, 1, 67, 64
3, 5952, Note_on_c, 1, 69, 100
3, 6047, Note_off_c, 1, 69, 64
3, 6048, Note_on_c, 1, 62, 100
3, 6191, Note_off_c, 1, 62, 64
3, 6192, Note_on_c, 1, 62, 100
3, 6239, Note_off_c, 1, 62, 64
3, 6240, Note_on_c, 1, 65, 100
3, 6287, Note_off_c, 1, 65, 64
3, 6288, Note_on_c, 1, 64, 100
3, 6383, Note_off_c, 1, 64, 64
3, 6384, Note_on_c, 1, 64, 100
3, 6479, Note_off_c, 1, 64, 64
3, 6480, Note_on_c, 1, 65, 100
3, 6527, Note_off_c, 1, 65, 64
3, 6528, Note_on_c, 1, 62, 100
3, 6575, Note_off_c, 1, 62, 64
3, 6576, Note_on_c, 1, 64, 100
3, 6815, Note_off_c, 1, 64, 64
3, 6816, Note_on_c, 1, 69, 100
3, 6863, Note_off_c, 1, 69, 64
3, 6864, Note_on_c, 1, 72, 100
3, 6911, Note_off_c, 1, 72, 64
3, 6912, Note_on_c, 1, 74, 100
3, 7007, Note_off_c, 1, 74, 64
3, 7008, Note_on_c, 1, 74, 100
3, 7103, Note_off_c, 1, 74, 64
3, 7104, Note_on_c, 1, 74, 100
3, 7151, Note_off_c, 1, 74, 64
3, 7152, Note_on_c, 1, 76, 100
3, 7199, Note_off_c, 1, 76, 64
3, 7200, Note_on_c, 1, 77, 100
3, 7295, Note_off_c, 1, 77, 64
3, 7296, Note_on_c, 1, 77, 100
3, 7391, Note_off_c, 1, 77, 64
3, 7392, Note_on_c, 1, 79, 100
3, 7487, Note_off_c, 1, 79, 64
3, 7488, Note_on_c, 1, 76, 100
3, 7583, Note_off_c, 1, 76, 64
3, 7584, Note_on_c, 1, 76, 100
3, 7679, Note_off_c, 1, 76, 64
3, 7680, Note_on_c, 1, 74, 100
3, 7727, Note_off_c, 1, 74, 64
3, 7728, Note_on_c, 1, 72, 100
3, 7775, Note_off_c, 1, 72, 64
3, 7776, Note_on_c, 1, 74, 100
3, 7967, Note_off_c, 1, 74, 64
3, 7968, Note_on_c, 1, 69, 100
3, 8015, Note_off_c, 1, 69, 64
3, 8016, Note_on_c, 1, 72, 100
3, 8063, Note_off_c, 1, 72, 64
3, 8064, Note_on_c, 1, 74, 100
3, 8159, Note_off_c, 1, 74, 64
3, 8160, Note_on_c, 1, 74, 100
3, 8255, Note_off_c, 1, 74, 64
3, 8256, Note_on_c, 1, 74, 100
3, 8303, Note_off_c, 1, 74, 64
3, 8304, Note_on_c, 1, 76, 100
3, 8351, Note_off_c, 1, 76, 64
3, 8352, Note_on_c, 1, 77, 100
3, 8447, Note_off_c, 1, 77, 64
3, 8448, Note_on_c, 1, 77, 100
3, 8543, Note_off_c, 1, 77, 64
3, 8544, Note_on_c, 1, 79, 100
3, 8639, Note_off_c, 1, 79, 64
3, 8640, Note_on_c, 1, 76, 100
3, 8735, Note_off_c, 1, 76, 64
3, 8736, Note_on_c, 1, 76, 100
3, 8831, Note_off_c, 1, 76, 64
3, 8832, Note_on_c, 1, 74, 100
3, 8879, Note_off_c, 1, 74, 64
3, 8880, Note_on_c, 1, 72, 100
3, 8927, Note_off_c, 1, 72, 64
3, 8928, Note_on_c, 1, 74, 100
3, 9119, Note_off_c, 1, 74, 64
3, 9120, Note_on_c, 1, 69, 100
3, 9167, Note_off_c, 1, 69, 64
3, 9168, Note_on_c, 1, 72, 100
3, 9215, Note_off_c, 1, 72, 64
3, 9216, Note_on_c, 1, 74, 100
3, 9311, Note_off_c, 1, 74, 64
3, 9312, Note_on_c, 1, 74, 100
3, 9407, Note_off_c, 1, 74, 64
3, 9408, Note_on_c, 1, 74, 100
3, 9455, Note_off_c, 1, 74, 64
3, 9456, Note_on_c, 1, 77, 100
3, 9503, Note_off_c, 1, 77, 64
3, 9504, Note_on_c, 1, 79, 100
3, 9599, Note_off_c, 1, 79, 64
3, 9600, Note_on_c, 1, 79, 100
3, 9695, Note_off_c, 1, 79, 64
3, 9696, Note_on_c, 1, 81, 100
3, 9743, Note_off_c, 1, 81, 64
3, 9744, Note_on_c, 1, 82, 100
3, 9839, Note_off_c, 1, 82, 64
3, 9840, Note_on_c, 1, 82, 100
3, 9935, Note_off_c, 1, 82, 64
3, 9936, Note_on_c, 1, 81, 100
3, 10031, Note_off_c, 1, 81, 64
3, 10032, Note_on_c, 1, 79, 100
3, 10079, Note_off_c, 1, 79, 64
3, 10080, Note_on_c, 1, 81, 100
3, 10127, Note_off_c, 1, 81, 64
3, 10128, Note_on_c, 1, 74, 100
3, 10271, Note_off_c, 1, 74, 64
3, 10272, Note_on_c, 1, 74, 100
3, 10319, Note_off_c, 1, 74, 64
3, 10320, Note_on_c, 1, 76, 100
3, 10367, Note_off_c, 1, 76, 64
3, 10368, Note_on_c, 1, 77, 100
3, 10463, Note_off_c, 1, 77, 64
3, 10464, Note_on_c, 1, 79, 100
3, 10559, Note_off_c, 1, 79, 64
3, 10560, Note_on_c, 1, 81, 100
3, 10655, Note_off_c, 1, 81, 64
3, 10656, Note_on_c, 1, 74, 100
3, 10799, Note_off_c, 1, 74, 64
3, 10800, Note_on_c, 1, 74, 100
3, 10847, Note_off_c, 1, 74, 64
3, 10848, Note_on_c, 1, 77, 100
3, 10895, Note_off_c, 1, 77, 64
3, 10896, Note_on_c, 1, 76, 110
3, 10991, Note_off_c, 1, 76, 0
3, 10992, Note_on_c, 1, 76, 110
3, 11135, Note_off_c, 1, 76, 0
3, 11136, Note_on_c, 1, 74, 110
3, 11183, Note_off_c, 1, 74, 0
3, 11184, Note_on_c, 1, 73, 110
3, 11231, Note_off_c, 1, 73, 0
3, 11232, Note_on_c, 1, 74, 110
3, 11327, Note_off_c, 1, 74, 0
3, 11328, Note_on_c, 1, 74, 110
3, 11423, Note_off_c, 1, 74, 0
3, 11424, Note_on_c, 1, 76, 110
3, 11519, Note_off_c, 1, 76, 0
3, 11520, Note_on_c, 1, 77, 110
3, 11615, Note_off_c, 1, 77, 0
3, 11616, Note_on_c, 1, 77, 110
3, 11711, Note_off_c, 1, 77, 0
3, 11712, Note_on_c, 1, 79, 110
3, 11807, Note_off_c, 1, 79, 0
3, 11808, Note_on_c, 1, 81, 110
3, 11855, Note_off_c, 1, 81, 0
3, 11856, Note_on_c, 1, 77, 110
3, 11999, Note_off_c, 1, 77, 0
3, 12384, Note_on_c, 1, 82, 100
3, 12575, Note_off_c, 1, 82, 64
3, 12576, Note_on_c, 1, 79, 100
3, 12623, Note_off_c, 1, 79, 64
3, 12624, Note_on_c, 1, 74, 100
3, 12671, Note_off_c, 1, 74, 64
3, 12672, Note_on_c, 1, 70, 100
3, 12959, Note_off_c, 1, 70, 64
3, 12960, Note_on_c, 1, 64, 100
3, 13007, Note_off_c, 1, 64, 64
3, 13008, Note_on_c, 1, 64, 100
3, 13103, Note_off_c, 1, 64, 64
3, 13104, Note_on_c, 1, 62, 100
3, 13247, Note_off_c, 1, 62, 64
3, 13248, Note_on_c, 1, 65, 100
3, 13295, Note_off_c, 1, 65, 64
3, 13296, Note_on_c, 1, 65, 100
3, 13343, Note_off_c, 1, 65, 64
3, 13344, Note_on_c, 1, 65, 100
3, 13391, Note_off_c, 1, 65, 64
3, 13392, Note_on_c, 1, 65, 100
3, 13439, Note_off_c, 1, 65, 64
3, 13440, Note_on_c, 1, 65, 100
3, 13487, Note_off_c, 1, 65, 64
3, 13488, Note_on_c, 1, 65, 100
3, 13535, Note_off_c, 1, 65, 64
3, 15744, Note_on_c, 1, 62, 110
3, 15791, Note_off_c, 1, 62, 0
3, 15792, Note_on_c, 1, 64, 110
3, 15839, Note_off_c, 1, 64, 0
3, 15840, Note_on_c, 1, 65, 110
3, 15983, Note_off_c, 1, 65, 0
3, 15984, Note_on_c, 1, 65, 110
3, 16031, Note_off_c, 1, 65, 0
3, 16032, Note_on_c, 1, 67, 110
3, 16079, Note_off_c, 1, 67, 0
3, 16080, Note_on_c, 1, 69, 110
3, 16127, Note_off_c, 1, 69, 0
3, 16128, Note_on_c, 1, 67, 110
3, 16223, Note_off_c, 1, 67, 0
3, 16224, Note_on_c, 1, 65, 110
3, 16319, Note_off_c, 1, 65, 0
3, 16320, Note_on_c, 1, 64, 110
3, 16415, Note_off_c, 1, 64, 0
3, 16416, Note_on_c, 1, 65, 110
3, 16511, Note_off_c, 1, 65, 0
3, 16512, Note_on_c, 1, 67, 110
3, 16607, Note_off_c, 1, 67, 0
3, 16608, Note_on_c, 1, 69, 110
3, 16703, Note_off_c, 1, 69, 0
3, 16704, Note_on_c, 1, 67, 110
3, 16895, Note_off_c, 1, 67, 0
3, 16896, Note_on_c, 1, 65, 110
3, 16943, Note_off_c, 1, 65, 0
3, 16944, Note_on_c, 1, 67, 110
3, 16991, Note_off_c, 1, 67, 0
3, 16992, Note_on_c, 1, 69, 110
3, 17183, Note_off_c, 1, 69, 0
3, 17184, Note_on_c, 1, 67, 110
3, 17231, Note_off_c, 1, 67, 0
3, 17232, Note_on_c, 1, 65, 110
3, 17279, Note_off_c, 1, 65, 0
3, 17280, Note_on_c, 1, 64, 110
3, 17375, Note_off_c, 1, 64, 0
3, 17376, Note_on_c, 1, 65, 110
3, 17471, Note_off_c, 1, 65, 0
3, 17472, Note_on_c, 1, 64, 110
3, 17567, Note_off_c, 1, 64, 0
3, 17568, Note_on_c, 1, 62, 110
3, 17759, Note_off_c, 1, 62, 0
3, 17760, Note_on_c, 1, 64, 110
3, 17807, Note_off_c, 1, 64, 0
3, 17808, Note_on_c, 1, 60, 110
3, 17855, Note_off_c, 1, 60, 0
3, 17856, Note_on_c, 1, 62, 110
3, 17951, Note_off_c, 1, 62, 0
3, 18048, Note_on_c, 1, 74, 110
3, 18095, Note_off_c, 1, 74, 0
3, 18096, Note_on_c, 1, 76, 110
3, 18143, Note_off_c, 1, 76, 0
3, 18144, Note_on_c, 1, 77, 110
3, 18335, Note_off_c, 1, 77, 0
3, 18336, Note_on_c, 1, 76, 110
3, 18383, Note_off_c, 1, 76, 0
3, 18384, Note_on_c, 1, 77, 110
3, 18431, Note_off_c, 1, 77, 0
3, 18432, Note_on_c, 1, 79, 110
3, 18527, Note_off_c, 1, 79, 0
3, 18528, Note_on_c, 1, 77, 110
3, 18623, Note_off_c, 1, 77, 0
3, 18624, Note_on_c, 1, 79, 110
3, 18719, Note_off_c, 1, 79, 0
3, 18720, Note_on_c, 1, 81, 110
3, 18815, Note_off_c, 1, 81, 0
3, 18816, Note_on_c, 1, 79, 110
3, 18911, Note_off_c, 1, 79, 0
3, 18912, Note_on_c, 1, 77, 110
3, 19007, Note_off_c, 1, 77, 0
3, 19008, Note_on_c, 1, 74, 110
3, 19199, Note_off_c, 1, 74, 0
3, 19200, Note_on_c, 1, 74, 110
3, 19247, Note_off_c, 1, 74, 0
3, 19248, Note_on_c, 1, 76, 110
3, 19295, Note_off_c, 1, 76, 0
3, 19296, Note_on_c, 1, 77, 110
3, 19391, Note_off_c, 1, 77, 0
3, 19392, Note_on_c, 1, 79, 110
3, 19487, Note_off_c, 1, 79, 0
3, 19488, Note_on_c, 1, 81, 110
3, 19583, Note_off_c, 1, 81, 0
3, 19584, Note_on_c, 1, 82, 110
3, 19679, Note_off_c, 1, 82, 0
3, 19680, Note_on_c, 1, 74, 110
3, 19775, Note_off_c, 1, 74, 0
3, 19776, Note_on_c, 1, 79, 110
3, 19871, Note_off_c, 1, 79, 0
3, 19872, Note_on_c, 1, 77, 110
3, 20063, Note_off_c, 1, 77, 0
3, 20064, Note_on_c, 1, 79, 110
3, 20111, Note_off_c, 1, 79, 0
3, 20112, Note_on_c, 1, 76, 110
3, 20159, Note_off_c, 1, 76, 0
3, 20160, Note_on_c, 1, 74, 110
3, 20303, Note_off_c, 1, 74, 0
3, 20304, Note_on_c, 1, 73, 110
3, 20447, Note_off_c, 1, 73, 0
3, 20448, Note_on_c, 1, 81, 110
3, 20735, Note_off_c, 1, 81, 0
3, 20736, Note_on_c, 1, 82, 110
3, 21023, Note_off_c, 1, 82, 0
3, 21024, Note_on_c, 1, 81, 110
3, 21119, Note_off_c, 1, 81, 0
3, 21120, Note_on_c, 1, 81, 110
3, 21215, Note_off_c, 1, 81, 0
3, 21216, Note_on_c, 1, 81, 110
3, 21311, Note_off_c, 1, 81, 0
3, 21312, Note_on_c, 1, 81, 110
3, 21359, Note_off_c, 1, 81, 0
3, 21360, Note_on_c, 1, 79, 110
3, 21599, Note_off_c, 1, 79, 0
3, 21600, Note_on_c, 1, 79, 110
3, 21887, Note_off_c, 1, 79, 0
3, 21888, Note_on_c, 1, 77, 110
3, 22175, Note_off_c, 1, 77, 0
3, 22176, Note_on_c, 1, 77, 110
3, 22271, Note_off_c, 1, 77, 0
3, 22272, Note_on_c, 1, 79, 110
3, 22367, Note_off_c, 1, 79, 0
3, 22368, Note_on_c, 1, 76, 110
3, 22463, Note_off_c, 1, 76, 0
3, 22464, Note_on_c, 1, 74, 110
3, 22751, Note_off_c, 1, 74, 0
3, 22752, Note_on_c, 1, 81, 110
3, 23039, Note_off_c, 1, 81, 0
3, 23040, Note_on_c, 1, 82, 110
3, 23327, Note_off_c, 1, 82, 0
3, 23328, Note_on_c, 1, 81, 110
3, 23423, Note_off_c, 1, 81, 0
3, 23424, Note_on_c, 1, 81, 110
3, 23519, Note_off_c, 1, 81, 0
3, 23520, Note_on_c, 1, 84, 110
3, 23615, Note_off_c, 1, 84, 0
3, 23616, Note_on_c, 1, 81, 110
3, 23663, Note_off_c, 1, 81, 0
3, 23664, Note_on_c, 1, 79, 110
3, 23903, Note_off_c, 1, 79, 0
3, 23904, Note_on_c, 1, 79, 110
3, 24191, Note_off_c, 1, 79, 0
3, 24192, Note_on_c, 1, 77, 110
3, 24479, Note_off_c, 1, 77, 0
3, 24480, Note_on_c, 1, 77, 110
3, 24575, Note_off_c, 1, 77, 0
3, 24576, Note_on_c, 1, 79, 110
3, 24671, Note_off_c, 1, 79, 0
3, 24672, Note_on_c, 1, 76, 110
3, 24767, Note_off_c, 1, 76, 0
3, 24768, Note_on_c, 1, 74, 110
3, 24863, Note_off_c, 1, 74, 0
3, 24960, Note_on_c, 1, 74, 100
3, 25007, Note_off_c, 1, 74, 64
3, 25008, Note_on_c, 1, 76, 100
3, 25055, Note_off_c, 1, 76, 64
3, 25056, Note_on_c, 1, 77, 100
3, 25151, Note_off_c, 1, 77, 64
3, 25152, Note_on_c, 1, 79, 100
3, 25247, Note_off_c, 1, 79, 64
3, 25248, Note_on_c, 1, 81, 100
3, 25343, Note_off_c, 1, 81, 64
3, 25344, Note_on_c, 1, 74, 100
3, 25487, Note_off_c, 1, 74, 64
3, 25488, Note_on_c, 1, 74, 100
3, 25535, Note_off_c, 1, 74, 64
3, 25536, Note_on_c, 1, 77, 100
3, 25583, Note_off_c, 1, 77, 64
3, 25584, Note_on_c, 1, 76, 110
3, 25679, Note_off_c, 1, 76, 0
3, 25680, Note_on_c, 1, 76, 110
3, 25823, Note_off_c, 1, 76, 0
3, 25824, Note_on_c, 1, 74, 110
3, 25871, Note_off_c, 1, 74, 0
3, 25872, Note_on_c, 1, 73, 110
3, 25919, Note_off_c, 1, 73, 0
3, 25920, Note_on_c, 1, 74, 110
3, 26015, Note_off_c, 1, 74, 0
3, 26016, Note_on_c, 1, 74, 110
3, 26111, Note_off_c, 1, 74, 0
3, 26496, Control_c, 1, 101, 0
3, 26496, Control_c, 1, 100, 0
3, 26496, Control_c, 1, 6, 12
3, 26496, Control_c, 1, 10, 64
3, 26496, Control_c, 1, 7, 100
3, 26496, Pitch_bend_c, 1, 8192
3, 26496, Program_c, 1, 0
3, 26496, Control_c, 1, 101, 0
3, 26496, Control_c, 1, 100, 0
3, 26496, Control_c, 1, 6, 12
3, 26496, Control_c, 1, 10, 64
3, 26496, Control_c, 1, 7, 100
3, 26496, Pitch_bend_c, 1, 8192
3, 26496, Program_c, 1, 0
3, 26496, Control_c, 1, 101, 0
3, 26496, Control_c, 1, 100, 0
3, 26496, Control_c, 1, 6, 12
3, 26496, Control_c, 1, 10, 64
3, 26496, Control_c, 1, 7, 100
3, 26496, Pitch_bend_c, 1, 8192
3, 26496, Program_c, 1, 0
3, 26496, End_track
4, 0, Start_track
4, 0, Title_t, "Keys (MIDI)"
4, 0, Control_c, 2, 10, 64
4, 0, Control_c, 2, 7, 100
4, 0, Pitch_bend_c, 2, 8192
4, 0, Control_c, 2, 101, 0
4, 0, Control_c, 2, 100, 0
4, 0, Control_c, 2, 6, 12
4, 0, Control_c, 2, 10, 64
4, 0, Control_c, 2, 7, 100
4, 0, Pitch_bend_c, 2, 8192
4, 0, Program_c, 2, 0
4, 2208, Note_on_c, 2, 57, 100
4, 2255, Note_off_c, 2, 57, 64
4, 2256, Note_on_c, 2, 60, 100
4, 2303, Note_off_c, 2, 60, 64
4, 2304, Note_on_c, 2, 62, 100
4, 2399, Note_off_c, 2, 62, 64
4, 2400, Note_on_c, 2, 62, 100
4, 2495, Note_off_c, 2, 62, 64
4, 2496, Note_on_c, 2, 62, 100
4, 2543, Note_off_c, 2, 62, 64
4, 2544, Note_on_c, 2, 64, 100
4, 2591, Note_off_c, 2, 64, 64
4, 2592, Note_on_c, 2, 65, 100
4, 2687, Note_off_c, 2, 65, 64
4, 2688, Note_on_c, 2, 65, 100
4, 2783, Note_off_c, 2, 65, 64
4, 2784, Note_on_c, 2, 67, 100
4, 2879, Note_off_c, 2, 67, 64
4, 2880, Note_on_c, 2, 64, 100
4, 2975, Note_off_c, 2, 64, 64
4, 2976, Note_on_c, 2, 64, 100
4, 3071, Note_off_c, 2, 64, 64
4, 3072, Note_on_c, 2, 62, 100
4, 3119, Note_off_c, 2, 62, 64
4, 3120, Note_on_c, 2, 60, 100
4, 3167, Note_off_c, 2, 60, 64
4, 3168, Note_on_c, 2, 62, 100
4, 3215, Note_off_c, 2, 62, 64
4, 3216, Note_on_c, 2, 74, 100
4, 3263, Note_off_c, 2, 74, 64
4, 3264, Note_on_c, 2, 72, 100
4, 3311, Note_off_c, 2, 72, 64
4, 3312, Note_on_c, 2, 74, 100
4, 3359, Note_off_c, 2, 74, 64
4, 3360, Note_on_c, 2, 57, 100
4, 3407, Note_off_c, 2, 57, 64
4, 3408, Note_on_c, 2, 60, 100
4, 3455, Note_off_c, 2, 60, 64
4, 3456, Note_on_c, 2, 62, 100
4, 3551, Note_off_c, 2, 62, 64
4, 3552, Note_on_c, 2, 62, 100
4, 3647, Note_off_c, 2, 62, 64
4, 3648, Note_on_c, 2, 62, 100
4, 3695, Note_off_c, 2, 62, 64
4, 3696, Note_on_c, 2, 64, 100
4, 3743, Note_off_c, 2, 64, 64
4, 3744, Note_on_c, 2, 65, 100
4, 3839, Note_off_c, 2, 65, 64
4, 3840, Note_on_c, 2, 65, 100
4, 3935, Note_off_c, 2, 65, 64
4, 3936, Note_on_c, 2, 67, 100
4, 4031, Note_off_c, 2, 67, 64
4, 4032, Note_on_c, 2, 64, 100
4, 4127, Note_off_c, 2, 64, 64
4, 4128, Note_on_c, 2, 64, 100
4, 4223, Note_off_c, 2, 64, 64
4, 4224, Note_on_c, 2, 62, 100
4, 4271, Note_off_c, 2, 62, 64
4, 4272, Note_on_c, 2, 60, 100
4, 4319, Note_off_c, 2, 60, 64
4, 4320, Note_on_c, 2, 62, 100
4, 4367, Note_off_c, 2, 62, 64
4, 4368, Note_on_c, 2, 74, 100
4, 4415, Note_off_c, 2, 74, 64
4, 4416, Note_on_c, 2, 72, 100
4, 4463, Note_off_c, 2, 72, 64
4, 4464, Note_on_c, 2, 74, 100
4, 4511, Note_off_c, 2, 74, 64
4, 4512, Note_on_c, 2, 57, 100
4, 4559, Note_off_c, 2, 57, 64
4, 4560, Note_on_c, 2, 60, 100
4, 4607, Note_off_c, 2, 60, 64
4, 4608, Note_on_c, 2, 62, 100
4, 4703, Note_off_c, 2, 62, 64
4, 4704, Note_on_c, 2, 62, 100
4, 4799, Note_off_c, 2, 62, 64
4, 4800, Note_on_c, 2, 62, 100
4, 4847, Note_off_c, 2, 62, 64
4, 4848, Note_on_c, 2, 65, 100
4, 4895, Note_off_c, 2, 65, 64
4, 4896, Note_on_c, 2, 67, 100
4, 4991, Note_off_c, 2, 67, 64
4, 4992, Note_on_c, 2, 67, 100
4, 5087, Note_off_c, 2, 67, 64
4, 5088, Note_on_c, 2, 69, 100
4, 5135, Note_off_c, 2, 69, 64
4, 5136, Note_on_c, 2, 70, 100
4, 5231, Note_off_c, 2, 70, 64
4, 5232, Note_on_c, 2, 70, 100
4, 5327, Note_off_c, 2, 70, 64
4, 5328, Note_on_c, 2, 69, 100
4, 5423, Note_off_c, 2, 69, 64
4, 5424, Note_on_c, 2, 67, 100
4, 5471, Note_off_c, 2, 67, 64
4, 5472, Note_on_c, 2, 69, 100
4, 5519, Note_off_c, 2, 69, 64
4, 5520, Note_on_c, 2, 62, 100
4, 5663, Note_off_c, 2, 62, 64
4, 5664, Note_on_c, 2, 62, 100
4, 5711, Note_off_c, 2, 62, 64
4, 5712, Note_on_c, 2, 64, 100
4, 5759, Note_off_c, 2, 64, 64
4, 5760, Note_on_c, 2, 65, 100
4, 5855, Note_off_c, 2, 65, 64
4, 5856, Note_on_c, 2, 67, 100
4, 5951, Note_off_c, 2, 67, 64
4, 5952, Note_on_c, 2, 69, 100
4, 6047, Note_off_c, 2, 69, 64
4, 6048, Note_on_c, 2, 62, 100
4, 6191, Note_off_c, 2, 62, 64
4, 6192, Note_on_c, 2, 62, 100
4, 6239, Note_off_c, 2, 62, 64
4, 6240, Note_on_c, 2, 65, 100
4, 6287, Note_off_c, 2, 65, 64
4, 6288, Note_on_c, 2, 64, 100
4, 6383, Note_off_c, 2, 64, 64
4, 6384, Note_on_c, 2, 64, 100
4, 6479, Note_off_c, 2, 64, 64
4, 6480, Note_on_c, 2, 65, 100
4, 6527, Note_off_c, 2, 65, 64
4, 6528, Note_on_c, 2, 62, 100
4, 6575, Note_off_c, 2, 62, 64
4, 6576, Note_on_c, 2, 64, 100
4, 6911, Note_off_c, 2, 64, 64
4, 6912, Note_on_c, 2, 74, 100
4, 7007, Note_off_c, 2, 74, 64
4, 7008, Note_on_c, 2, 74, 100
4, 7103, Note_off_c, 2, 74, 64
4, 7104, Note_on_c, 2, 74, 100
4, 7151, Note_off_c, 2, 74, 64
4, 7152, Note_on_c, 2, 76, 100
4, 7199, Note_off_c, 2, 76, 64
4, 7200, Note_on_c, 2, 77, 100
4, 7295, Note_off_c, 2, 77, 64
4, 7296, Note_on_c, 2, 77, 100
4, 7391, Note_off_c, 2, 77, 64
4, 7392, Note_on_c, 2, 79, 100
4, 7487, Note_off_c, 2, 79, 64
4, 7488, Note_on_c, 2, 76, 100
4, 7583, Note_off_c, 2, 76, 64
4, 7584, Note_on_c, 2, 76, 100
4, 7679, Note_off_c, 2, 76, 64
4, 7680, Note_on_c, 2, 74, 100
4, 7727, Note_off_c, 2, 74, 64
4, 7728, Note_on_c, 2, 72, 100
4, 7775, Note_off_c, 2, 72, 64
4, 7776, Note_on_c, 2, 74, 100
4, 7823, Note_off_c, 2, 74, 64
4, 7824, Note_on_c, 2, 86, 100
4, 7871, Note_off_c, 2, 86, 64
4, 7872, Note_on_c, 2, 84, 100
4, 7919, Note_off_c, 2, 84, 64
4, 7920, Note_on_c, 2, 86, 100
4, 7967, Note_off_c, 2, 86, 64
4, 7968, Note_on_c, 2, 69, 100
4, 8015, Note_off_c, 2, 69, 64
4, 8016, Note_on_c, 2, 72, 100
4, 8063, Note_off_c, 2, 72, 64
4, 8064, Note_on_c, 2, 74, 100
4, 8159, Note_off_c, 2, 74, 64
4, 8160, Note_on_c, 2, 74, 100
4, 8255, Note_off_c, 2, 74, 64
4, 8256, Note_on_c, 2, 74, 100
4, 8303, Note_off_c, 2, 74, 64
4, 8304, Note_on_c, 2, 76, 100
4, 8351, Note_off_c, 2, 76, 64
4, 8352, Note_on_c, 2, 77, 100
4, 8447, Note_off_c, 2, 77, 64
4, 8448, Note_on_c, 2, 77, 100
4, 8543, Note_off_c, 2, 77, 64
4, 8544, Note_on_c, 2, 79, 100
4, 8639, Note_off_c, 2, 79, 64
4, 8640, Note_on_c, 2, 76, 100
4, 8735, Note_off_c, 2, 76, 64
4, 8736, Note_on_c, 2, 76, 100
4, 8831, Note_off_c, 2, 76, 64
4, 8832, Note_on_c, 2, 74, 100
4, 8879, Note_off_c, 2, 74, 64
4, 8880, Note_on_c, 2, 72, 100
4, 8927, Note_off_c, 2, 72, 64
4, 8928, Note_on_c, 2, 74, 100
4, 8975, Note_off_c, 2, 74, 64
4, 8976, Note_on_c, 2, 86, 100
4, 9023, Note_off_c, 2, 86, 64
4, 9024, Note_on_c, 2, 84, 100
4, 9071, Note_off_c, 2, 84, 64
4, 9072, Note_on_c, 2, 86, 100
4, 9119, Note_off_c, 2, 86, 64
4, 9120, Note_on_c, 2, 69, 100
4, 9167, Note_off_c, 2, 69, 64
4, 9168, Note_on_c, 2, 72, 100
4, 9215, Note_off_c, 2, 72, 64
4, 9216, Note_on_c, 2, 74, 100
4, 9311, Note_off_c, 2, 74, 64
4, 9312, Note_on_c, 2, 74, 100
4, 9407, Note_off_c, 2, 74, 64
4, 9408, Note_on_c, 2, 74, 100
4, 9455, Note_off_c, 2, 74, 64
4, 9456, Note_on_c, 2, 77, 100
4, 9503, Note_off_c, 2, 77, 64
4, 9504, Note_on_c, 2, 79, 100
4, 9599, Note_off_c, 2, 79, 64
4, 9600, Note_on_c, 2, 79, 100
4, 9695, Note_off_c, 2, 79, 64
4, 9696, Note_on_c, 2, 81, 100
4, 9743, Note_off_c, 2, 81, 64
4, 9744, Note_on_c, 2, 82, 100
4, 9839, Note_off_c, 2, 82, 64
4, 9840, Note_on_c, 2, 82, 100
4, 9935, Note_off_c, 2, 82, 64
4, 9936, Note_on_c, 2, 81, 100
4, 10031, Note_off_c, 2, 81, 64
4, 10032, Note_on_c, 2, 79, 100
4, 10079, Note_off_c, 2, 79, 64
4, 10080, Note_on_c, 2, 81, 100
4, 10127, Note_off_c, 2, 81, 64
4, 10128, Note_on_c, 2, 74, 100
4, 10271, Note_off_c, 2, 74, 64
4, 10272, Note_on_c, 2, 74, 100
4, 10319, Note_off_c, 2, 74, 64
4, 10320, Note_on_c, 2, 76, 100
4, 10367, Note_off_c, 2, 76, 64
4, 10368, Note_on_c, 2, 77, 100
4, 10463, Note_off_c, 2, 77, 64
4, 10464, Note_on_c, 2, 79, 100
4, 10559, Note_off_c, 2, 79, 64
4, 10560, Note_on_c, 2, 81, 100
4, 10655, Note_off_c, 2, 81, 64
4, 10656, Note_on_c, 2, 74, 100
4, 10799, Note_off_c, 2, 74, 64
4, 10800, Note_on_c, 2, 74, 100
4, 10847, Note_off_c, 2, 74, 64
4, 10848, Note_on_c, 2, 77, 100
4, 10895, Note_off_c, 2, 77, 64
4, 10896, Note_on_c, 2, 76, 100
4, 10991, Note_off_c, 2, 76, 64
4, 10992, Note_on_c, 2, 76, 100
4, 11135, Note_off_c, 2, 76, 64
4, 11136, Note_on_c, 2, 74, 110
4, 11183, Note_off_c, 2, 74, 0
4, 11184, Note_on_c, 2, 73, 110
4, 11231, Note_off_c, 2, 73, 0
4, 11232, Note_on_c, 2, 74, 110
4, 11327, Note_off_c, 2, 74, 0
4, 11328, Note_on_c, 2, 74, 110
4, 11423, Note_off_c, 2, 74, 0
4, 11424, Note_on_c, 2, 76, 110
4, 11519, Note_off_c, 2, 76, 0
4, 11520, Note_on_c, 2, 77, 110
4, 11615, Note_off_c, 2, 77, 0
4, 11616, Note_on_c, 2, 77, 110
4, 11663, Note_off_c, 2, 77, 0
4, 11664, Note_on_c, 2, 77, 110
4, 11711, Note_off_c, 2, 77, 0
4, 11712, Note_on_c, 2, 79, 110
4, 11807, Note_off_c, 2, 79, 0
4, 11808, Note_on_c, 2, 81, 110
4, 11855, Note_off_c, 2, 81, 0
4, 11856, Note_on_c, 2, 77, 110
4, 11999, Note_off_c, 2, 77, 0
4, 12000, Note_on_c, 2, 77, 110
4, 12047, Note_off_c, 2, 77, 0
4, 12048, Note_on_c, 2, 74, 110
4, 12095, Note_off_c, 2, 74, 0
4, 12096, Note_on_c, 2, 69, 110
4, 12383, Note_off_c, 2, 69, 0
4, 12384, Note_on_c, 2, 82, 110
4, 12575, Note_off_c, 2, 82, 0
4, 12576, Note_on_c, 2, 79, 110
4, 12623, Note_off_c, 2, 79, 0
4, 12624, Note_on_c, 2, 74, 110
4, 12671, Note_off_c, 2, 74, 0
4, 12672, Note_on_c, 2, 70, 110
4, 13439, Note_off_c, 2, 70, 0
4, 13440, Note_on_c, 2, 65, 100
4, 13487, Note_off_c, 2, 65, 64
4, 13488, Note_on_c, 2, 67, 100
4, 13535, Note_off_c, 2, 67, 64
4, 13536, Note_on_c, 2, 69, 100
4, 13631, Note_off_c, 2, 69, 64
4, 13632, Note_on_c, 2, 69, 100
4, 13727, Note_off_c, 2, 69, 64
4, 13728, Note_on_c, 2, 69, 100
4, 13823, Note_off_c, 2, 69, 64
4, 13824, Note_on_c, 2, 70, 100
4, 13871, Note_off_c, 2, 70, 64
4, 13872, Note_on_c, 2, 69, 100
4, 14111, Note_off_c, 2, 69, 64
4, 14112, Note_on_c, 2, 67, 100
4, 14207, Note_off_c, 2, 67, 64
4, 14208, Note_on_c, 2, 67, 100
4, 14303, Note_off_c, 2, 67, 64
4, 14304, Note_on_c, 2, 67, 100
4, 14351, Note_off_c, 2, 67, 64
4, 14352, Note_on_c, 2, 67, 100
4, 14399, Note_off_c, 2, 67, 64
4, 14400, Note_on_c, 2, 69, 100
4, 14687, Note_off_c, 2, 69, 64
4, 14688, Note_on_c, 2, 69, 100
4, 14783, Note_off_c, 2, 69, 64
4, 14784, Note_on_c, 2, 69, 100
4, 14879, Note_off_c, 2, 69, 64
4, 14880, Note_on_c, 2, 69, 100
4, 14975, Note_off_c, 2, 69, 64
4, 14976, Note_on_c, 2, 70, 100
4, 15023, Note_off_c, 2, 70, 64
4, 15024, Note_on_c, 2, 69, 100
4, 15263, Note_off_c, 2, 69, 64
4, 15264, Note_on_c, 2, 67, 100
4, 15359, Note_off_c, 2, 67, 64
4, 15360, Note_on_c, 2, 65, 100
4, 15455, Note_off_c, 2, 65, 64
4, 15456, Note_on_c, 2, 64, 100
4, 15551, Note_off_c, 2, 64, 64
4, 15552, Note_on_c, 2, 62, 100
4, 18047, Note_off_c, 2, 62, 64
4, 18048, Note_on_c, 2, 74, 110
4, 18095, Note_off_c, 2, 74, 0
4, 18096, Note_on_c, 2, 76, 110
4, 18143, Note_off_c, 2, 76, 0
4, 18144, Note_on_c, 2, 77, 110
4, 18335, Note_off_c, 2, 77, 0
4, 18336, Note_on_c, 2, 76, 110
4, 18383, Note_off_c, 2, 76, 0
4, 18384, Note_on_c, 2, 77, 110
4, 18431, Note_off_c, 2, 77, 0
4, 18432, Note_on_c, 2, 79, 110
4, 18527, Note_off_c, 2, 79, 0
4, 18528, Note_on_c, 2, 77, 110
4, 18623, Note_off_c, 2, 77, 0
4, 18624, Note_on_c, 2, 79, 110
4, 18719, Note_off_c, 2, 79, 0
4, 18720, Note_on_c, 2, 81, 110
4, 18815, Note_off_c, 2, 81, 0
4, 18816, Note_on_c, 2, 79, 110
4, 18911, Note_off_c, 2, 79, 0
4, 18912, Note_on_c, 2, 77, 110
4, 19007, Note_off_c, 2, 77, 0
4, 19008, Note_on_c, 2, 74, 110
4, 19199, Note_off_c, 2, 74, 0
4, 19200, Note_on_c, 2, 74, 110
4, 19247, Note_off_c, 2, 74, 0
4, 19248, Note_on_c, 2, 76, 110
4, 19295, Note_off_c, 2, 76, 0
4, 19296, Note_on_c, 2, 77, 110
4, 19391, Note_off_c, 2, 77, 0
4, 19392, Note_on_c, 2, 79, 110
4, 19487, Note_off_c, 2, 79, 0
4, 19488, Note_on_c, 2, 81, 110
4, 19583, Note_off_c, 2, 81, 0
4, 19584, Note_on_c, 2, 82, 110
4, 19679, Note_off_c, 2, 82, 0
4, 19680, Note_on_c, 2, 74, 110
4, 19775, Note_off_c, 2, 74, 0
4, 19776, Note_on_c, 2, 79, 110
4, 19871, Note_off_c, 2, 79, 0
4, 19872, Note_on_c, 2, 77, 110
4, 20063, Note_off_c, 2, 77, 0
4, 20064, Note_on_c, 2, 79, 110
4, 20111, Note_off_c, 2, 79, 0
4, 20112, Note_on_c, 2, 76, 110
4, 20159, Note_off_c, 2, 76, 0
4, 20160, Note_on_c, 2, 74, 110
4, 20303, Note_off_c, 2, 74, 0
4, 20304, Note_on_c, 2, 73, 110
4, 20447, Note_off_c, 2, 73, 0
4, 20448, Note_on_c, 2, 81, 110
4, 20735, Note_off_c, 2, 81, 0
4, 20736, Note_on_c, 2, 82, 110
4, 21023, Note_off_c, 2, 82, 0
4, 21024, Note_on_c, 2, 81, 110
4, 21119, Note_off_c, 2, 81, 0
4, 21120, Note_on_c, 2, 81, 110
4, 21215, Note_off_c, 2, 81, 0
4, 21216, Note_on_c, 2, 81, 110
4, 21311, Note_off_c, 2, 81, 0
4, 21312, Note_on_c, 2, 81, 110
4, 21359, Note_off_c, 2, 81, 0
4, 21360, Note_on_c, 2, 79, 110
4, 21599, Note_off_c, 2, 79, 0
4, 21600, Note_on_c, 2, 79, 110
4, 21887, Note_off_c, 2, 79, 0
4, 21888, Note_on_c, 2, 77, 110
4, 22175, Note_off_c, 2, 77, 0
4, 22176, Note_on_c, 2, 77, 110
4, 22271, Note_off_c, 2, 77, 0
4, 22272, Note_on_c, 2, 79, 110
4, 22367, Note_off_c, 2, 79, 0
4, 22368, Note_on_c, 2, 76, 110
4, 22463, Note_off_c, 2, 76, 0
4, 22464, Note_on_c, 2, 74, 110
4, 22607, Note_off_c, 2, 74, 0
4, 22608, Note_on_c, 2, 74, 110
4, 22655, Note_off_c, 2, 74, 0
4, 22656, Note_on_c, 2, 76, 110
4, 22703, Note_off_c, 2, 76, 0
4, 22704, Note_on_c, 2, 77, 110
4, 22751, Note_off_c, 2, 77, 0
4, 22752, Note_on_c, 2, 81, 110
4, 22799, Note_off_c, 2, 81, 0
4, 22800, Note_on_c, 2, 77, 110
4, 22847, Note_off_c, 2, 77, 0
4, 22848, Note_on_c, 2, 76, 110
4, 22895, Note_off_c, 2, 76, 0
4, 22896, Note_on_c, 2, 74, 110
4, 22943, Note_off_c, 2, 74, 0
4, 22944, Note_on_c, 2, 76, 110
4, 22991, Note_off_c, 2, 76, 0
4, 22992, Note_on_c, 2, 77, 110
4, 23039, Note_off_c, 2, 77, 0
4, 23040, Note_on_c, 2, 82, 110
4, 23087, Note_off_c, 2, 82, 0
4, 23088, Note_on_c, 2, 77, 110
4, 23135, Note_off_c, 2, 77, 0
4, 23136, Note_on_c, 2, 76, 110
4, 23183, Note_off_c, 2, 76, 0
4, 23184, Note_on_c, 2, 74, 110
4, 23231, Note_off_c, 2, 74, 0
4, 23232, Note_on_c, 2, 76, 110
4, 23279, Note_off_c, 2, 76, 0
4, 23280, Note_on_c, 2, 77, 110
4, 23327, Note_off_c, 2, 77, 0
4, 23328, Note_on_c, 2, 81, 110
4, 23423, Note_off_c, 2, 81, 0
4, 23424, Note_on_c, 2, 81, 110
4, 23519, Note_off_c, 2, 81, 0
4, 23520, Note_on_c, 2, 84, 110
4, 23615, Note_off_c, 2, 84, 0
4, 23616, Note_on_c, 2, 81, 110
4, 23663, Note_off_c, 2, 81, 0
4, 23664, Note_on_c, 2, 79, 110
4, 23903, Note_off_c, 2, 79, 0
4, 23904, Note_on_c, 2, 79, 110
4, 24191, Note_off_c, 2, 79, 0
4, 24192, Note_on_c, 2, 77, 110
4, 24479, Note_off_c, 2, 77, 0
4, 24480, Note_on_c, 2, 77, 110
4, 24575, Note_off_c, 2, 77, 0
4, 24576, Note_on_c, 2, 79, 110
4, 24671, Note_off_c, 2, 79, 0
4, 24672, Note_on_c, 2, 76, 110
4, 24767, Note_off_c, 2, 76, 0
4, 24768, Note_on_c, 2, 74, 110
4, 24863, Note_off_c, 2, 74, 0
4, 24960, Note_on_c, 2, 74, 100
4, 25007, Note_off_c, 2, 74, 64
4, 25008, Note_on_c, 2, 76, 100
4, 25055, Note_off_c, 2, 76, 64
4, 25056, Note_on_c, 2, 77, 100
4, 25151, Note_off_c, 2, 77, 64
4, 25152, Note_on_c, 2, 79, 100
4, 25247, Note_off_c, 2, 79, 64
4, 25248, Note_on_c, 2, 81, 100
4, 25343, Note_off_c, 2, 81, 64
4, 25344, Note_on_c, 2, 74, 100
4, 25487, Note_off_c, 2, 74, 64
4, 25488, Note_on_c, 2, 74, 100
4, 25535, Note_off_c, 2, 74, 64
4, 25536, Note_on_c, 2, 77, 100
4, 25583, Note_off_c, 2, 77, 64
4, 25584, Note_on_c, 2, 76, 100
4, 25679, Note_off_c, 2, 76, 64
4, 25680, Note_on_c, 2, 76, 100
4, 25823, Note_off_c, 2, 76, 64
4, 25824, Note_on_c, 2, 74, 110
4, 25871, Note_off_c, 2, 74, 0
4, 25872, Note_on_c, 2, 73, 110
4, 25919, Note_off_c, 2, 73, 0
4, 25920, Note_on_c, 2, 74, 110
4, 26015, Note_off_c, 2, 74, 0
4, 26016, Note_on_c, 2, 74, 110
4, 26111, Note_off_c, 2, 74, 0
4, 26496, Control_c, 2, 101, 0
4, 26496, Control_c, 2, 100, 0
4, 26496, Control_c, 2, 6, 12
4, 26496, Control_c, 2, 10, 64
4, 26496, Control_c, 2, 7, 100
4, 26496, Pitch_bend_c, 2, 8192
4, 26496, Program_c, 2, 0
4, 26496, Control_c, 2, 101, 0
4, 26496, Control_c, 2, 100, 0
4, 26496, Control_c, 2, 6, 12
4, 26496, Control_c, 2, 10, 64
4, 26496, Control_c, 2, 7, 100
4, 26496, Pitch_bend_c, 2, 8192
4, 26496, Program_c, 2, 0
4, 26496, Control_c, 2, 101, 0
4, 26496, Control_c, 2, 100, 0
4, 26496, Control_c, 2, 6, 12
4, 26496, Control_c, 2, 10, 64
4, 26496, Control_c, 2, 7, 100
4, 26496, Pitch_bend_c, 2, 8192
4, 26496, Program_c, 2, 0
4, 26496, End_track
5, 0, Start_track
5, 0, Title_t, "DIST Rythm (MIDI)"
5, 0, Control_c, 3, 10, 64
5, 0, Control_c, 3, 7, 100
5, 0, Pitch_bend_c, 3, 8192
5, 0, Control_c, 3, 101, 0
5, 0, Control_c, 3, 100, 0
5, 0, Control_c, 3, 6, 12
5, 0, Control_c, 3, 10, 64
5, 0, Control_c, 3, 7, 100
5, 0, Pitch_bend_c, 3, 8192
5, 0, Program_c, 3, 0
5, 1152, Note_on_c, 3, 62, 100
5, 1247, Note_off_c, 3, 62, 64
5, 1248, Note_on_c, 3, 62, 100
5, 1295, Note_off_c, 3, 62, 64
5, 1296, Note_on_c, 3, 62, 100
5, 1391, Note_off_c, 3, 62, 64
5, 1392, Note_on_c, 3, 62, 100
5, 1439, Note_off_c, 3, 62, 64
5, 1440, Note_on_c, 3, 62, 100
5, 1535, Note_off_c, 3, 62, 64
5, 1536, Note_on_c, 3, 62, 110
5, 1583, Note_off_c, 3, 62, 0
5, 1584, Note_on_c, 3, 62, 110
5, 1631, Note_off_c, 3, 62, 0
5, 1632, Note_on_c, 3, 62, 100
5, 1679, Note_off_c, 3, 62, 64
5, 1680, Note_on_c, 3, 62, 110
5, 1727, Note_off_c, 3, 62, 0
5, 1728, Note_on_c, 3, 62, 110
5, 1823, Note_off_c, 3, 62, 0
5, 1824, Note_on_c, 3, 62, 110
5, 1871, Note_off_c, 3, 62, 0
5, 1872, Note_on_c, 3, 62, 110
5, 1967, Note_off_c, 3, 62, 0
5, 1968, Note_on_c, 3, 62, 110
5, 2015, Note_off_c, 3, 62, 0
5, 2016, Note_on_c, 3, 62, 110
5, 2111, Note_off_c, 3, 62, 0
5, 2112, Note_on_c, 3, 62, 110
5, 2159, Note_off_c, 3, 62, 0
5, 2160, Note_on_c, 3, 62, 110
5, 2207, Note_off_c, 3, 62, 0
5, 2208, Note_on_c, 3, 62, 100
5, 2255, Note_off_c, 3, 62, 64
5, 2256, Note_on_c, 3, 62, 100
5, 2303, Note_off_c, 3, 62, 64
5, 2304, Note_on_c, 3, 62, 110
5, 2399, Note_off_c, 3, 62, 0
5, 2400, Note_on_c, 3, 62, 110
5, 2447, Note_off_c, 3, 62, 0
5, 2448, Note_on_c, 3, 62, 110
5, 2543, Note_off_c, 3, 62, 0
5, 2544, Note_on_c, 3, 60, 110
5, 2591, Note_off_c, 3, 60, 0
5, 2592, Note_on_c, 3, 58, 110
5, 2687, Note_off_c, 3, 58, 0
5, 2688, Note_on_c, 3, 58, 110
5, 2735, Note_off_c, 3, 58, 0
5, 2736, Note_on_c, 3, 58, 110
5, 2831, Note_off_c, 3, 58, 0
5, 2832, Note_on_c, 3, 58, 110
5, 2879, Note_off_c, 3, 58, 0
5, 2880, Note_on_c, 3, 57, 110
5, 2975, Note_off_c, 3, 57, 0
5, 2976, Note_on_c, 3, 57, 110
5, 3023, Note_off_c, 3, 57, 0
5, 3024, Note_on_c, 3, 57, 110
5, 3119, Note_off_c, 3, 57, 0
5, 3120, Note_on_c, 3, 57, 110
5, 3167, Note_off_c, 3, 57, 0
5, 3168, Note_on_c, 3, 62, 110
5, 3263, Note_off_c, 3, 62, 0
5, 3264, Note_on_c, 3, 62, 110
5, 3311, Note_off_c, 3, 62, 0
5, 3312, Note_on_c, 3, 62, 110
5, 3407, Note_off_c, 3, 62, 0
5, 3408, Note_on_c, 3, 62, 110
5, 3455, Note_off_c, 3, 62, 0
5, 3456, Note_on_c, 3, 58, 110
5, 3551, Note_off_c, 3, 58, 0
5, 3552, Note_on_c, 3, 58, 110
5, 3599, Note_off_c, 3, 58, 0
5, 3600, Note_on_c, 3, 58, 110
5, 3695, Note_off_c, 3, 58, 0
5, 3696, Note_on_c, 3, 58, 110
5, 3743, Note_off_c, 3, 58, 0
5, 3744, Note_on_c, 3, 53, 110
5, 3839, Note_off_c, 3, 53, 0
5, 3840, Note_on_c, 3, 53, 110
5, 3887, Note_off_c, 3, 53, 0
5, 3888, Note_on_c, 3, 53, 110
5, 3983, Note_off_c, 3, 53, 0
5, 3984, Note_on_c, 3, 53, 110
5, 4031, Note_off_c, 3, 53, 0
5, 4032, Note_on_c, 3, 60, 110
5, 4127, Note_off_c, 3, 60, 0
5, 4128, Note_on_c, 3, 60, 110
5, 4175, Note_off_c, 3, 60, 0
5, 4176, Note_on_c, 3, 57, 110
5, 4271, Note_off_c, 3, 57, 0
5, 4272, Note_on_c, 3, 57, 110
5, 4319, Note_off_c, 3, 57, 0
5, 4320, Note_on_c, 3, 62, 110
5, 4415, Note_off_c, 3, 62, 0
5, 4416, Note_on_c, 3, 62, 110
5, 4463, Note_off_c, 3, 62, 0
5, 4464, Note_on_c, 3, 62, 110
5, 4559, Note_off_c, 3, 62, 0
5, 4560, Note_on_c, 3, 62, 110
5, 4607, Note_off_c, 3, 62, 0
5, 4608, Note_on_c, 3, 62, 110
5, 4703, Note_off_c, 3, 62, 0
5, 4704, Note_on_c, 3, 62, 110
5, 4751, Note_off_c, 3, 62, 0
5, 4752, Note_on_c, 3, 62, 110
5, 4847, Note_off_c, 3, 62, 0
5, 4848, Note_on_c, 3, 62, 110
5, 4895, Note_off_c, 3, 62, 0
5, 4896, Note_on_c, 3, 58, 110
5, 4991, Note_off_c, 3, 58, 0
5, 4992, Note_on_c, 3, 58, 110
5, 5039, Note_off_c, 3, 58, 0
5, 5040, Note_on_c, 3, 58, 110
5, 5135, Note_off_c, 3, 58, 0
5, 5136, Note_on_c, 3, 58, 110
5, 5183, Note_off_c, 3, 58, 0
5, 5184, Note_on_c, 3, 55, 110
5, 5279, Note_off_c, 3, 55, 0
5, 5280, Note_on_c, 3, 55, 110
5, 5327, Note_off_c, 3, 55, 0
5, 5328, Note_on_c, 3, 55, 110
5, 5423, Note_off_c, 3, 55, 0
5, 5424, Note_on_c, 3, 55, 110
5, 5471, Note_off_c, 3, 55, 0
5, 5472, Note_on_c, 3, 62, 110
5, 5567, Note_off_c, 3, 62, 0
5, 5568, Note_on_c, 3, 62, 110
5, 5615, Note_off_c, 3, 62, 0
5, 5616, Note_on_c, 3, 62, 110
5, 5711, Note_off_c, 3, 62, 0
5, 5712, Note_on_c, 3, 62, 110
5, 5759, Note_off_c, 3, 62, 0
5, 5760, Note_on_c, 3, 58, 110
5, 5855, Note_off_c, 3, 58, 0
5, 5856, Note_on_c, 3, 58, 110
5, 5903, Note_off_c, 3, 58, 0
5, 5904, Note_on_c, 3, 58, 110
5, 5999, Note_off_c, 3, 58, 0
5, 6000, Note_on_c, 3, 58, 110
5, 6047, Note_off_c, 3, 58, 0
5, 6048, Note_on_c, 3, 62, 110
5, 6143, Note_off_c, 3, 62, 0
5, 6144, Note_on_c, 3, 62, 110
5, 6191, Note_off_c, 3, 62, 0
5, 6192, Note_on_c, 3, 62, 110
5, 6287, Note_off_c, 3, 62, 0
5, 6288, Note_on_c, 3, 62, 110
5, 6335, Note_off_c, 3, 62, 0
5, 6336, Note_on_c, 3, 57, 110
5, 6431, Note_off_c, 3, 57, 0
5, 6432, Note_on_c, 3, 57, 110
5, 6479, Note_off_c, 3, 57, 0
5, 6480, Note_on_c, 3, 57, 110
5, 6575, Note_off_c, 3, 57, 0
5, 6576, Note_on_c, 3, 57, 110
5, 6623, Note_off_c, 3, 57, 0
5, 6624, Note_on_c, 3, 57, 110
5, 6719, Note_off_c, 3, 57, 0
5, 6720, Note_on_c, 3, 57, 110
5, 6767, Note_off_c, 3, 57, 0
5, 6768, Note_on_c, 3, 57, 110
5, 6863, Note_off_c, 3, 57, 0
5, 6864, Note_on_c, 3, 57, 110
5, 6911, Note_off_c, 3, 57, 0
5, 6912, Note_on_c, 3, 62, 110
5, 7007, Note_off_c, 3, 62, 0
5, 7008, Note_on_c, 3, 62, 110
5, 7055, Note_off_c, 3, 62, 0
5, 7056, Note_on_c, 3, 62, 110
5, 7151, Note_off_c, 3, 62, 0
5, 7152, Note_on_c, 3, 60, 110
5, 7199, Note_off_c, 3, 60, 0
5, 7200, Note_on_c, 3, 58, 110
5, 7295, Note_off_c, 3, 58, 0
5, 7296, Note_on_c, 3, 58, 110
5, 7343, Note_off_c, 3, 58, 0
5, 7344, Note_on_c, 3, 58, 110
5, 7439, Note_off_c, 3, 58, 0
5, 7440, Note_on_c, 3, 58, 110
5, 7487, Note_off_c, 3, 58, 0
5, 7488, Note_on_c, 3, 57, 110
5, 7583, Note_off_c, 3, 57, 0
5, 7584, Note_on_c, 3, 57, 110
5, 7631, Note_off_c, 3, 57, 0
5, 7632, Note_on_c, 3, 57, 110
5, 7727, Note_off_c, 3, 57, 0
5, 7728, Note_on_c, 3, 57, 110
5, 7775, Note_off_c, 3, 57, 0
5, 7776, Note_on_c, 3, 62, 110
5, 7871, Note_off_c, 3, 62, 0
5, 7872, Note_on_c, 3, 62, 110
5, 7919, Note_off_c, 3, 62, 0
5, 7920, Note_on_c, 3, 62, 110
5, 8015, Note_off_c, 3, 62, 0
5, 8016, Note_on_c, 3, 62, 110
5, 8063, Note_off_c, 3, 62, 0
5, 8064, Note_on_c, 3, 58, 110
5, 8159, Note_off_c, 3, 58, 0
5, 8160, Note_on_c, 3, 58, 110
5, 8207, Note_off_c, 3, 58, 0
5, 8208, Note_on_c, 3, 58, 110
5, 8303, Note_off_c, 3, 58, 0
5, 8304, Note_on_c, 3, 58, 110
5, 8351, Note_off_c, 3, 58, 0
5, 8352, Note_on_c, 3, 53, 110
5, 8447, Note_off_c, 3, 53, 0
5, 8448, Note_on_c, 3, 53, 110
5, 8495, Note_off_c, 3, 53, 0
5, 8496, Note_on_c, 3, 53, 110
5, 8591, Note_off_c, 3, 53, 0
5, 8592, Note_on_c, 3, 53, 110
5, 8639, Note_off_c, 3, 53, 0
5, 8640, Note_on_c, 3, 60, 110
5, 8735, Note_off_c, 3, 60, 0
5, 8736, Note_on_c, 3, 60, 110
5, 8783, Note_off_c, 3, 60, 0
5, 8784, Note_on_c, 3, 57, 110
5, 8879, Note_off_c, 3, 57, 0
5, 8880, Note_on_c, 3, 57, 110
5, 8927, Note_off_c, 3, 57, 0
5, 8928, Note_on_c, 3, 62, 110
5, 9023, Note_off_c, 3, 62, 0
5, 9024, Note_on_c, 3, 62, 110
5, 9071, Note_off_c, 3, 62, 0
5, 9072, Note_on_c, 3, 62, 110
5, 9167, Note_off_c, 3, 62, 0
5, 9168, Note_on_c, 3, 62, 110
5, 9215, Note_off_c, 3, 62, 0
5, 9216, Note_on_c, 3, 62, 110
5, 9311, Note_off_c, 3, 62, 0
5, 9312, Note_on_c, 3, 62, 110
5, 9359, Note_off_c, 3, 62, 0
5, 9360, Note_on_c, 3, 62, 110
5, 9455, Note_off_c, 3, 62, 0
5, 9456, Note_on_c, 3, 62, 110
5, 9503, Note_off_c, 3, 62, 0
5, 9504, Note_on_c, 3, 58, 110
5, 9599, Note_off_c, 3, 58, 0
5, 9600, Note_on_c, 3, 58, 110
5, 9647, Note_off_c, 3, 58, 0
5, 9648, Note_on_c, 3, 58, 110
5, 9743, Note_off_c, 3, 58, 0
5, 9744, Note_on_c, 3, 58, 110
5, 9791, Note_off_c, 3, 58, 0
5, 9792, Note_on_c, 3, 55, 110
5, 9887, Note_off_c, 3, 55, 0
5, 9888, Note_on_c, 3, 55, 110
5, 9935, Note_off_c, 3, 55, 0
5, 9936, Note_on_c, 3, 55, 110
5, 10031, Note_off_c, 3, 55, 0
5, 10032, Note_on_c, 3, 55, 110
5, 10079, Note_off_c, 3, 55, 0
5, 10080, Note_on_c, 3, 62, 110
5, 10175, Note_off_c, 3, 62, 0
5, 10176, Note_on_c, 3, 62, 110
5, 10223, Note_off_c, 3, 62, 0
5, 10224, Note_on_c, 3, 62, 110
5, 10319, Note_off_c, 3, 62, 0
5, 10320, Note_on_c, 3, 62, 110
5, 10367, Note_off_c, 3, 62, 0
5, 10368, Note_on_c, 3, 58, 110
5, 10463, Note_off_c, 3, 58, 0
5, 10464, Note_on_c, 3, 58, 110
5, 10511, Note_off_c, 3, 58, 0
5, 10512, Note_on_c, 3, 58, 110
5, 10607, Note_off_c, 3, 58, 0
5, 10608, Note_on_c, 3, 58, 110
5, 10655, Note_off_c, 3, 58, 0
5, 10656, Note_on_c, 3, 62, 110
5, 10751, Note_off_c, 3, 62, 0
5, 10752, Note_on_c, 3, 62, 110
5, 10799, Note_off_c, 3, 62, 0
5, 10800, Note_on_c, 3, 62, 110
5, 10895, Note_off_c, 3, 62, 0
5, 10896, Note_on_c, 3, 62, 110
5, 10943, Note_off_c, 3, 62, 0
5, 10944, Note_on_c, 3, 57, 110
5, 11039, Note_off_c, 3, 57, 0
5, 11040, Note_on_c, 3, 57, 110
5, 11087, Note_off_c, 3, 57, 0
5, 11088, Note_on_c, 3, 57, 110
5, 11183, Note_off_c, 3, 57, 0
5, 11184, Note_on_c, 3, 57, 110
5, 11231, Note_off_c, 3, 57, 0
5, 11232, Note_on_c, 3, 62, 110
5, 11327, Note_off_c, 3, 62, 0
5, 11328, Note_on_c, 3, 62, 110
5, 11423, Note_off_c, 3, 62, 0
5, 11424, Note_on_c, 3, 60, 110
5, 11519, Note_off_c, 3, 60, 0
5, 11520, Note_on_c, 3, 60, 110
5, 11615, Note_off_c, 3, 60, 0
5, 11616, Note_on_c, 3, 60, 110
5, 11711, Note_off_c, 3, 60, 0
5, 11712, Note_on_c, 3, 58, 110
5, 11807, Note_off_c, 3, 58, 0
5, 11808, Note_on_c, 3, 57, 110
5, 12383, Note_off_c, 3, 57, 0
5, 12384, Note_on_c, 3, 55, 110
5, 12959, Note_off_c, 3, 55, 0
5, 12960, Note_on_c, 3, 57, 110
5, 13055, Note_off_c, 3, 57, 0
5, 13056, Note_on_c, 3, 57, 110
5, 13103, Note_off_c, 3, 57, 0
5, 13104, Note_on_c, 3, 57, 110
5, 13199, Note_off_c, 3, 57, 0
5, 13200, Note_on_c, 3, 57, 110
5, 13247, Note_off_c, 3, 57, 0
5, 13248, Note_on_c, 3, 57, 110
5, 13343, Note_off_c, 3, 57, 0
5, 13344, Note_on_c, 3, 57, 110
5, 13391, Note_off_c, 3, 57, 0
5, 13392, Note_on_c, 3, 57, 110
5, 13487, Note_off_c, 3, 57, 0
5, 13488, Note_on_c, 3, 57, 110
5, 13535, Note_off_c, 3, 57, 0
5, 13536, Note_on_c, 3, 62, 110
5, 13631, Note_off_c, 3, 62, 0
5, 13632, Note_on_c, 3, 62, 110
5, 13679, Note_off_c, 3, 62, 0
5, 13680, Note_on_c, 3, 62, 110
5, 13775, Note_off_c, 3, 62, 0
5, 13776, Note_on_c, 3, 62, 110
5, 13823, Note_off_c, 3, 62, 0
5, 13824, Note_on_c, 3, 62, 110
5, 13919, Note_off_c, 3, 62, 0
5, 13920, Note_on_c, 3, 62, 110
5, 13967, Note_off_c, 3, 62, 0
5, 13968, Note_on_c, 3, 62, 110
5, 14015, Note_off_c, 3, 62, 0
5, 14016, Note_on_c, 3, 62, 110
5, 14063, Note_off_c, 3, 62, 0
5, 14064, Note_on_c, 3, 62, 110
5, 14111, Note_off_c, 3, 62, 0
5, 14112, Note_on_c, 3, 60, 110
5, 14207, Note_off_c, 3, 60, 0
5, 14208, Note_on_c, 3, 60, 110
5, 14255, Note_off_c, 3, 60, 0
5, 14256, Note_on_c, 3, 60, 110
5, 14351, Note_off_c, 3, 60, 0
5, 14352, Note_on_c, 3, 60, 110
5, 14399, Note_off_c, 3, 60, 0
5, 14400, Note_on_c, 3, 65, 110
5, 14495, Note_off_c, 3, 65, 0
5, 14496, Note_on_c, 3, 65, 110
5, 14543, Note_off_c, 3, 65, 0
5, 14544, Note_on_c, 3, 65, 110
5, 14591, Note_off_c, 3, 65, 0
5, 14592, Note_on_c, 3, 65, 110
5, 14639, Note_off_c, 3, 65, 0
5, 14640, Note_on_c, 3, 65, 110
5, 14687, Note_off_c, 3, 65, 0
5, 14688, Note_on_c, 3, 62, 110
5, 14783, Note_off_c, 3, 62, 0
5, 14784, Note_on_c, 3, 62, 110
5, 14831, Note_off_c, 3, 62, 0
5, 14832, Note_on_c, 3, 62, 110
5, 14927, Note_off_c, 3, 62, 0
5, 14928, Note_on_c, 3, 62, 110
5, 14975, Note_off_c, 3, 62, 0
5, 14976, Note_on_c, 3, 62, 110
5, 15071, Note_off_c, 3, 62, 0
5, 15072, Note_on_c, 3, 62, 110
5, 15119, Note_off_c, 3, 62, 0
5, 15120, Note_on_c, 3, 62, 110
5, 15167, Note_off_c, 3, 62, 0
5, 15168, Note_on_c, 3, 62, 110
5, 15215, Note_off_c, 3, 62, 0
5, 15216, Note_on_c, 3, 62, 110
5, 15263, Note_off_c, 3, 62, 0
5, 15264, Note_on_c, 3, 57, 100
5, 15359, Note_off_c, 3, 57, 64
5, 15360, Note_on_c, 3, 57, 100
5, 15407, Note_off_c, 3, 57, 64
5, 15408, Note_on_c, 3, 57, 110
5, 15503, Note_off_c, 3, 57, 0
5, 15504, Note_on_c, 3, 57, 110
5, 15551, Note_off_c, 3, 57, 0
5, 15552, Note_on_c, 3, 62, 110
5, 15647, Note_off_c, 3, 62, 0
5, 15648, Note_on_c, 3, 62, 110
5, 15695, Note_off_c, 3, 62, 0
5, 15696, Note_on_c, 3, 62, 110
5, 15791, Note_off_c, 3, 62, 0
5, 16992, Note_on_c, 3, 65, 110
5, 17087, Note_off_c, 3, 65, 0
5, 17088, Note_on_c, 3, 65, 110
5, 17135, Note_off_c, 3, 65, 0
5, 17136, Note_on_c, 3, 65, 110
5, 17183, Note_off_c, 3, 65, 0
5, 17184, Note_on_c, 3, 65, 110
5, 17231, Note_off_c, 3, 65, 0
5, 17232, Note_on_c, 3, 65, 110
5, 17279, Note_off_c, 3, 65, 0
5, 17280, Note_on_c, 3, 57, 110
5, 17375, Note_off_c, 3, 57, 0
5, 17376, Note_on_c, 3, 57, 110
5, 17423, Note_off_c, 3, 57, 0
5, 17424, Note_on_c, 3, 57, 110
5, 17471, Note_off_c, 3, 57, 0
5, 17472, Note_on_c, 3, 57, 110
5, 17519, Note_off_c, 3, 57, 0
5, 17520, Note_on_c, 3, 57, 110
5, 17567, Note_off_c, 3, 57, 0
5, 17568, Note_on_c, 3, 62, 110
5, 17663, Note_off_c, 3, 62, 0
5, 17664, Note_on_c, 3, 62, 110
5, 17711, Note_off_c, 3, 62, 0
5, 17712, Note_on_c, 3, 62, 110
5, 17807, Note_off_c, 3, 62, 0
5, 17808, Note_on_c, 3, 62, 110
5, 17855, Note_off_c, 3, 62, 0
5, 17856, Note_on_c, 3, 62, 110
5, 17951, Note_off_c, 3, 62, 0
5, 17952, Note_on_c, 3, 62, 110
5, 17999, Note_off_c, 3, 62, 0
5, 18000, Note_on_c, 3, 62, 110
5, 18047, Note_off_c, 3, 62, 0
5, 18048, Note_on_c, 3, 62, 110
5, 18095, Note_off_c, 3, 62, 0
5, 18096, Note_on_c, 3, 62, 110
5, 18143, Note_off_c, 3, 62, 0
5, 18144, Note_on_c, 3, 62, 110
5, 18239, Note_off_c, 3, 62, 0
5, 18240, Note_on_c, 3, 62, 110
5, 18287, Note_off_c, 3, 62, 0
5, 18288, Note_on_c, 3, 62, 110
5, 18335, Note_off_c, 3, 62, 0
5, 18336, Note_on_c, 3, 62, 110
5, 18383, Note_off_c, 3, 62, 0
5, 18384, Note_on_c, 3, 62, 110
5, 18431, Note_off_c, 3, 62, 0
5, 18432, Note_on_c, 3, 60, 110
5, 18527, Note_off_c, 3, 60, 0
5, 18528, Note_on_c, 3, 60, 110
5, 18575, Note_off_c, 3, 60, 0
5, 18576, Note_on_c, 3, 60, 110
5, 18623, Note_off_c, 3, 60, 0
5, 18624, Note_on_c, 3, 60, 110
5, 18671, Note_off_c, 3, 60, 0
5, 18672, Note_on_c, 3, 60, 110
5, 18719, Note_off_c, 3, 60, 0
5, 18720, Note_on_c, 3, 65, 110
5, 18815, Note_off_c, 3, 65, 0
5, 18816, Note_on_c, 3, 65, 110
5, 18863, Note_off_c, 3, 65, 0
5, 18864, Note_on_c, 3, 65, 110
5, 18911, Note_off_c, 3, 65, 0
5, 18912, Note_on_c, 3, 65, 110
5, 18959, Note_off_c, 3, 65, 0
5, 18960, Note_on_c, 3, 65, 110
5, 19007, Note_off_c, 3, 65, 0
5, 19008, Note_on_c, 3, 58, 110
5, 19103, Note_off_c, 3, 58, 0
5, 19104, Note_on_c, 3, 58, 110
5, 19151, Note_off_c, 3, 58, 0
5, 19152, Note_on_c, 3, 58, 110
5, 19199, Note_off_c, 3, 58, 0
5, 19200, Note_on_c, 3, 58, 110
5, 19247, Note_off_c, 3, 58, 0
5, 19248, Note_on_c, 3, 58, 110
5, 19295, Note_off_c, 3, 58, 0
5, 19296, Note_on_c, 3, 62, 110
5, 19391, Note_off_c, 3, 62, 0
5, 19392, Note_on_c, 3, 62, 110
5, 19439, Note_off_c, 3, 62, 0
5, 19440, Note_on_c, 3, 62, 110
5, 19487, Note_off_c, 3, 62, 0
5, 19488, Note_on_c, 3, 62, 110
5, 19535, Note_off_c, 3, 62, 0
5, 19536, Note_on_c, 3, 62, 110
5, 19583, Note_off_c, 3, 62, 0
5, 19584, Note_on_c, 3, 55, 110
5, 19679, Note_off_c, 3, 55, 0
5, 19680, Note_on_c, 3, 55, 110
5, 19727, Note_off_c, 3, 55, 0
5, 19728, Note_on_c, 3, 55, 110
5, 19775, Note_off_c, 3, 55, 0
5, 19776, Note_on_c, 3, 55, 110
5, 19823, Note_off_c, 3, 55, 0
5, 19824, Note_on_c, 3, 55, 110
5, 19871, Note_off_c, 3, 55, 0
5, 19872, Note_on_c, 3, 57, 110
5, 19967, Note_off_c, 3, 57, 0
5, 19968, Note_on_c, 3, 57, 110
5, 20015, Note_off_c, 3, 57, 0
5, 20016, Note_on_c, 3, 57, 110
5, 20063, Note_off_c, 3, 57, 0
5, 20064, Note_on_c, 3, 57, 110
5, 20111, Note_off_c, 3, 57, 0
5, 20112, Note_on_c, 3, 57, 110
5, 20159, Note_off_c, 3, 57, 0
5, 20160, Note_on_c, 3, 57, 110
5, 20255, Note_off_c, 3, 57, 0
5, 20256, Note_on_c, 3, 57, 110
5, 20303, Note_off_c, 3, 57, 0
5, 20304, Note_on_c, 3, 57, 110
5, 20351, Note_off_c, 3, 57, 0
5, 20352, Note_on_c, 3, 57, 110
5, 20399, Note_off_c, 3, 57, 0
5, 20400, Note_on_c, 3, 57, 110
5, 20447, Note_off_c, 3, 57, 0
5, 20448, Note_on_c, 3, 62, 110
5, 20543, Note_off_c, 3, 62, 0
5, 20544, Note_on_c, 3, 62, 110
5, 20591, Note_off_c, 3, 62, 0
5, 20592, Note_on_c, 3, 62, 110
5, 20639, Note_off_c, 3, 62, 0
5, 20640, Note_on_c, 3, 62, 110
5, 20687, Note_off_c, 3, 62, 0
5, 20688, Note_on_c, 3, 62, 110
5, 20735, Note_off_c, 3, 62, 0
5, 20736, Note_on_c, 3, 55, 110
5, 20831, Note_off_c, 3, 55, 0
5, 20832, Note_on_c, 3, 55, 110
5, 20879, Note_off_c, 3, 55, 0
5, 20880, Note_on_c, 3, 55, 110
5, 20927, Note_off_c, 3, 55, 0
5, 20928, Note_on_c, 3, 55, 110
5, 20975, Note_off_c, 3, 55, 0
5, 20976, Note_on_c, 3, 55, 110
5, 21023, Note_off_c, 3, 55, 0
5, 21408, Note_on_c, 3, 60, 110
5, 21455, Note_off_c, 3, 60, 0
5, 21456, Note_on_c, 3, 60, 110
5, 21503, Note_off_c, 3, 60, 0
5, 21504, Note_on_c, 3, 60, 110
5, 21551, Note_off_c, 3, 60, 0
5, 21552, Note_on_c, 3, 60, 110
5, 21599, Note_off_c, 3, 60, 0
5, 21600, Note_on_c, 3, 55, 110
5, 21695, Note_off_c, 3, 55, 0
5, 21696, Note_on_c, 3, 55, 110
5, 21743, Note_off_c, 3, 55, 0
5, 21744, Note_on_c, 3, 55, 110
5, 21791, Note_off_c, 3, 55, 0
5, 21792, Note_on_c, 3, 55, 110
5, 21839, Note_off_c, 3, 55, 0
5, 21840, Note_on_c, 3, 55, 110
5, 21887, Note_off_c, 3, 55, 0
5, 21888, Note_on_c, 3, 57, 110
5, 21983, Note_off_c, 3, 57, 0
5, 21984, Note_on_c, 3, 57, 110
5, 22031, Note_off_c, 3, 57, 0
5, 22032, Note_on_c, 3, 57, 110
5, 22079, Note_off_c, 3, 57, 0
5, 22080, Note_on_c, 3, 57, 110
5, 22127, Note_off_c, 3, 57, 0
5, 22128, Note_on_c, 3, 57, 110
5, 22175, Note_off_c, 3, 57, 0
5, 22176, Note_on_c, 3, 57, 110
5, 22271, Note_off_c, 3, 57, 0
5, 22272, Note_on_c, 3, 57, 110
5, 22319, Note_off_c, 3, 57, 0
5, 22320, Note_on_c, 3, 57, 110
5, 22367, Note_off_c, 3, 57, 0
5, 22368, Note_on_c, 3, 57, 110
5, 22415, Note_off_c, 3, 57, 0
5, 22416, Note_on_c, 3, 57, 110
5, 22463, Note_off_c, 3, 57, 0
5, 22464, Note_on_c, 3, 62, 110
5, 22559, Note_off_c, 3, 62, 0
5, 22560, Note_on_c, 3, 62, 110
5, 22607, Note_off_c, 3, 62, 0
5, 22608, Note_on_c, 3, 62, 110
5, 22655, Note_off_c, 3, 62, 0
5, 22656, Note_on_c, 3, 62, 110
5, 22703, Note_off_c, 3, 62, 0
5, 22704, Note_on_c, 3, 62, 110
5, 22751, Note_off_c, 3, 62, 0
5, 22752, Note_on_c, 3, 62, 110
5, 22847, Note_off_c, 3, 62, 0
5, 22848, Note_on_c, 3, 62, 110
5, 22895, Note_off_c, 3, 62, 0
5, 22896, Note_on_c, 3, 62, 110
5, 22943, Note_off_c, 3, 62, 0
5, 22944, Note_on_c, 3, 62, 110
5, 22991, Note_off_c, 3, 62, 0
5, 22992, Note_on_c, 3, 62, 110
5, 23039, Note_off_c, 3, 62, 0
5, 23040, Note_on_c, 3, 58, 110
5, 23135, Note_off_c, 3, 58, 0
5, 23136, Note_on_c, 3, 58, 110
5, 23183, Note_off_c, 3, 58, 0
5, 23184, Note_on_c, 3, 58, 110
5, 23231, Note_off_c, 3, 58, 0
5, 23232, Note_on_c, 3, 58, 110
5, 23279, Note_off_c, 3, 58, 0
5, 23280, Note_on_c, 3, 58, 110
5, 23327, Note_off_c, 3, 58, 0
5, 23328, Note_on_c, 3, 65, 110
5, 23423, Note_off_c, 3, 65, 0
5, 23424, Note_on_c, 3, 65, 110
5, 23471, Note_off_c, 3, 65, 0
5, 23472, Note_on_c, 3, 65, 110
5, 23519, Note_off_c, 3, 65, 0
5, 23520, Note_on_c, 3, 65, 110
5, 23567, Note_off_c, 3, 65, 0
5, 23568, Note_on_c, 3, 65, 110
5, 23615, Note_off_c, 3, 65, 0
5, 23616, Note_on_c, 3, 60, 110
5, 23711, Note_off_c, 3, 60, 0
5, 23712, Note_on_c, 3, 60, 110
5, 23759, Note_off_c, 3, 60, 0
5, 23760, Note_on_c, 3, 60, 110
5, 23807, Note_off_c, 3, 60, 0
5, 23808, Note_on_c, 3, 60, 110
5, 23855, Note_off_c, 3, 60, 0
5, 23856, Note_on_c, 3, 60, 110
5, 23903, Note_off_c, 3, 60, 0
5, 23904, Note_on_c, 3, 55, 110
5, 23999, Note_off_c, 3, 55, 0
5, 24000, Note_on_c, 3, 55, 110
5, 24047, Note_off_c, 3, 55, 0
5, 24048, Note_on_c, 3, 55, 110
5, 24095, Note_off_c, 3, 55, 0
5, 24096, Note_on_c, 3, 55, 110
5, 24143, Note_off_c, 3, 55, 0
5, 24144, Note_on_c, 3, 55, 110
5, 24191, Note_off_c, 3, 55, 0
5, 24192, Note_on_c, 3, 57, 110
5, 24287, Note_off_c, 3, 57, 0
5, 24288, Note_on_c, 3, 57, 110
5, 24335, Note_off_c, 3, 57, 0
5, 24336, Note_on_c, 3, 57, 110
5, 24383, Note_off_c, 3, 57, 0
5, 24384, Note_on_c, 3, 57, 110
5, 24431, Note_off_c, 3, 57, 0
5, 24432, Note_on_c, 3, 57, 110
5, 24479, Note_off_c, 3, 57, 0
5, 24480, Note_on_c, 3, 57, 110
5, 24575, Note_off_c, 3, 57, 0
5, 24576, Note_on_c, 3, 57, 110
5, 24623, Note_off_c, 3, 57, 0
5, 24624, Note_on_c, 3, 57, 110
5, 24671, Note_off_c, 3, 57, 0
5, 24672, Note_on_c, 3, 57, 110
5, 24719, Note_off_c, 3, 57, 0
5, 24720, Note_on_c, 3, 57, 110
5, 24767, Note_off_c, 3, 57, 0
5, 24768, Note_on_c, 3, 62, 110
5, 24911, Note_off_c, 3, 62, 0
5, 24912, Note_on_c, 3, 62, 110
5, 25007, Note_off_c, 3, 62, 0
5, 25008, Note_on_c, 3, 62, 110
5, 25055, Note_off_c, 3, 62, 0
5, 25056, Note_on_c, 3, 58, 110
5, 25151, Note_off_c, 3, 58, 0
5, 25152, Note_on_c, 3, 58, 110
5, 25199, Note_off_c, 3, 58, 0
5, 25200, Note_on_c, 3, 58, 110
5, 25295, Note_off_c, 3, 58, 0
5, 25296, Note_on_c, 3, 58, 110
5, 25343, Note_off_c, 3, 58, 0
5, 25344, Note_on_c, 3, 62, 110
5, 25439, Note_off_c, 3, 62, 0
5, 25440, Note_on_c, 3, 62, 110
5, 25487, Note_off_c, 3, 62, 0
5, 25488, Note_on_c, 3, 62, 110
5, 25583, Note_off_c, 3, 62, 0
5, 25584, Note_on_c, 3, 62, 110
5, 25631, Note_off_c, 3, 62, 0
5, 25632, Note_on_c, 3, 57, 110
5, 25727, Note_off_c, 3, 57, 0
5, 25728, Note_on_c, 3, 57, 110
5, 25775, Note_off_c, 3, 57, 0
5, 25776, Note_on_c, 3, 57, 110
5, 25871, Note_off_c, 3, 57, 0
5, 25872, Note_on_c, 3, 57, 110
5, 25919, Note_off_c, 3, 57, 0
5, 25920, Note_on_c, 3, 62, 110
5, 26015, Note_off_c, 3, 62, 0
5, 26016, Note_on_c, 3, 62, 110
5, 26111, Note_off_c, 3, 62, 0
5, 26496, Control_c, 3, 101, 0
5, 26496, Control_c, 3, 100, 0
5, 26496, Control_c, 3, 6, 12
5, 26496, Control_c, 3, 10, 64
5, 26496, Control_c, 3, 7, 100
5, 26496, Pitch_bend_c, 3, 8192
5, 26496, Program_c, 3, 0
5, 26496, Control_c, 3, 101, 0
5, 26496, Control_c, 3, 100, 0
5, 26496, Control_c, 3, 6, 12
5, 26496, Control_c, 3, 10, 64
5, 26496, Control_c, 3, 7, 100
5, 26496, Pitch_bend_c, 3, 8192
5, 26496, Program_c, 3, 0
5, 26496, Control_c, 3, 101, 0
5, 26496, Control_c, 3, 100, 0
5, 26496, Control_c, 3, 6, 12
5, 26496, Control_c, 3, 10, 64
5, 26496, Control_c, 3, 7, 100
5, 26496, Pitch_bend_c, 3, 8192
5, 26496, Program_c, 3, 0
5, 26496, End_track
6, 0, Start_track
6, 0, Title_t, "FPC (MIDI)"
6, 0, Control_c, 9, 10, 64
6, 0, Control_c, 9, 7, 100
6, 0, Pitch_bend_c, 9, 8192
6, 0, Control_c, 9, 101, 0
6, 0, Control_c, 9, 100, 0
6, 0, Control_c, 9, 6, 12
6, 0, Control_c, 9, 10, 64
6, 0, Control_c, 9, 7, 100
6, 0, Pitch_bend_c, 9, 8192
6, 0, Program_c, 9, 0
6, 1728, Note_on_c, 9, 46, 100
6, 1871, Note_off_c, 9, 46, 64
6, 1872, Note_on_c, 9, 46, 100
6, 2015, Note_off_c, 9, 46, 64
6, 2016, Note_on_c, 9, 46, 100
6, 2111, Note_off_c, 9, 46, 64
6, 2112, Note_on_c, 9, 36, 100
6, 2159, Note_off_c, 9, 36, 64
6, 2160, Note_on_c, 9, 40, 100
6, 2303, Note_off_c, 9, 40, 64
6, 2304, Note_on_c, 9, 49, 100
6, 2304, Note_on_c, 9, 36, 100
6, 2351, Note_off_c, 9, 36, 64
6, 2351, Note_off_c, 9, 49, 64
6, 2352, Note_on_c, 9, 36, 100
6, 2399, Note_off_c, 9, 36, 64
6, 2400, Note_on_c, 9, 36, 100
6, 2447, Note_off_c, 9, 36, 64
6, 2448, Note_on_c, 9, 46, 100
6, 2448, Note_on_c, 9, 40, 100
6, 2448, Note_on_c, 9, 36, 100
6, 2495, Note_off_c, 9, 36, 64
6, 2495, Note_off_c, 9, 40, 64
6, 2496, Note_on_c, 9, 36, 100
6, 2543, Note_off_c, 9, 36, 64
6, 2544, Note_on_c, 9, 36, 100
6, 2591, Note_off_c, 9, 36, 64
6, 2591, Note_off_c, 9, 46, 64
6, 2592, Note_on_c, 9, 46, 100
6, 2592, Note_on_c, 9, 36, 100
6, 2639, Note_off_c, 9, 36, 64
6, 2640, Note_on_c, 9, 36, 100
6, 2687, Note_off_c, 9, 36, 64
6, 2688, Note_on_c, 9, 36, 100
6, 2735, Note_off_c, 9, 36, 64
6, 2735, Note_off_c, 9, 46, 64
6, 2736, Note_on_c, 9, 46, 100
6, 2736, Note_on_c, 9, 40, 100
6, 2736, Note_on_c, 9, 36, 100
6, 2783, Note_off_c, 9, 36, 64
6, 2783, Note_off_c, 9, 40, 64
6, 2784, Note_on_c, 9, 36, 100
6, 2831, Note_off_c, 9, 36, 64
6, 2832, Note_on_c, 9, 36, 100
6, 2879, Note_off_c, 9, 36, 64
6, 2879, Note_off_c, 9, 46, 64
6, 2880, Note_on_c, 9, 46, 100
6, 2880, Note_on_c, 9, 36, 100
6, 2927, Note_off_c, 9, 36, 64
6, 2928, Note_on_c, 9, 36, 100
6, 2975, Note_off_c, 9, 36, 64
6, 2976, Note_on_c, 9, 36, 100
6, 3023, Note_off_c, 9, 36, 64
6, 3023, Note_off_c, 9, 46, 64
6, 3024, Note_on_c, 9, 46, 100
6, 3024, Note_on_c, 9, 40, 100
6, 3024, Note_on_c, 9, 36, 100
6, 3071, Note_off_c, 9, 36, 64
6, 3071, Note_off_c, 9, 40, 64
6, 3072, Note_on_c, 9, 36, 100
6, 3119, Note_off_c, 9, 36, 64
6, 3120, Note_on_c, 9, 36, 100
6, 3167, Note_off_c, 9, 36, 64
6, 3167, Note_off_c, 9, 46, 64
6, 3168, Note_on_c, 9, 36, 100
6, 3168, Note_on_c, 9, 46, 100
6, 3215, Note_off_c, 9, 36, 64
6, 3216, Note_on_c, 9, 49, 100
6, 3216, Note_on_c, 9, 36, 100
6, 3263, Note_off_c, 9, 36, 64
6, 3263, Note_off_c, 9, 49, 64
6, 3264, Note_on_c, 9, 36, 100
6, 3311, Note_off_c, 9, 46, 64
6, 3311, Note_off_c, 9, 36, 64
6, 3312, Note_on_c, 9, 55, 100
6, 3312, Note_on_c, 9, 46, 100
6, 3312, Note_on_c, 9, 40, 100
6, 3312, Note_on_c, 9, 36, 100
6, 3359, Note_off_c, 9, 36, 64
6, 3359, Note_off_c, 9, 40, 64
6, 3359, Note_off_c, 9, 55, 64
6, 3360, Note_on_c, 9, 36, 100
6, 3407, Note_off_c, 9, 36, 64
6, 3408, Note_on_c, 9, 36, 100
6, 3455, Note_off_c, 9, 36, 64
6, 3455, Note_off_c, 9, 46, 64
6, 3456, Note_on_c, 9, 49, 100
6, 3456, Note_on_c, 9, 36, 100
6, 3503, Note_off_c, 9, 36, 64
6, 3503, Note_off_c, 9, 49, 64
6, 3504, Note_on_c, 9, 36, 100
6, 3551, Note_off_c, 9, 36, 64
6, 3552, Note_on_c, 9, 36, 100
6, 3599, Note_off_c, 9, 36, 64
6, 3600, Note_on_c, 9, 36, 100
6, 3600, Note_on_c, 9, 40, 100
6, 3600, Note_on_c, 9, 46, 100
6, 3647, Note_off_c, 9, 36, 64
6, 3647, Note_off_c, 9, 40, 64
6, 3648, Note_on_c, 9, 36, 100
6, 3695, Note_off_c, 9, 36, 64
6, 3696, Note_on_c, 9, 36, 100
6, 3743, Note_off_c, 9, 46, 64
6, 3743, Note_off_c, 9, 36, 64
6, 3744, Note_on_c, 9, 36, 100
6, 3744, Note_on_c, 9, 46, 100
6, 3791, Note_off_c, 9, 36, 64
6, 3792, Note_on_c, 9, 36, 100
6, 3839, Note_off_c, 9, 36, 64
6, 3840, Note_on_c, 9, 36, 100
6, 3887, Note_off_c, 9, 46, 64
6, 3887, Note_off_c, 9, 36, 64
6, 3888, Note_on_c, 9, 36, 100
6, 3888, Note_on_c, 9, 40, 100
6, 3888, Note_on_c, 9, 46, 100
6, 3935, Note_off_c, 9, 40, 64
6, 3935, Note_off_c, 9, 36, 64
6, 3936, Note_on_c, 9, 36, 100
6, 3983, Note_off_c, 9, 36, 64
6, 3984, Note_on_c, 9, 36, 100
6, 4031, Note_off_c, 9, 46, 64
6, 4031, Note_off_c, 9, 36, 64
6, 4032, Note_on_c, 9, 36, 100
6, 4032, Note_on_c, 9, 46, 100
6, 4079, Note_off_c, 9, 36, 64
6, 4080, Note_on_c, 9, 36, 100
6, 4127, Note_off_c, 9, 36, 64
6, 4128, Note_on_c, 9, 36, 100
6, 4175, Note_off_c, 9, 46, 64
6, 4175, Note_off_c, 9, 36, 64
6, 4176, Note_on_c, 9, 36, 100
6, 4176, Note_on_c, 9, 40, 100
6, 4176, Note_on_c, 9, 46, 100
6, 4223, Note_off_c, 9, 40, 64
6, 4223, Note_off_c, 9, 36, 64
6, 4224, Note_on_c, 9, 36, 100
6, 4271, Note_off_c, 9, 36, 64
6, 4272, Note_on_c, 9, 36, 100
6, 4319, Note_off_c, 9, 46, 64
6, 4319, Note_off_c, 9, 36, 64
6, 4320, Note_on_c, 9, 36, 100
6, 4320, Note_on_c, 9, 46, 100
6, 4367, Note_off_c, 9, 36, 64
6, 4368, Note_on_c, 9, 49, 100
6, 4368, Note_on_c, 9, 36, 100
6, 4415, Note_off_c, 9, 36, 64
6, 4415, Note_off_c, 9, 49, 64
6, 4416, Note_on_c, 9, 36, 100
6, 4463, Note_off_c, 9, 46, 64
6, 4463, Note_off_c, 9, 36, 64
6, 4464, Note_on_c, 9, 55, 100
6, 4464, Note_on_c, 9, 46, 100
6, 4464, Note_on_c, 9, 40, 100
6, 4464, Note_on_c, 9, 36, 100
6, 4511, Note_off_c, 9, 36, 64
6, 4511, Note_off_c, 9, 40, 64
6, 4511, Note_off_c, 9, 55, 64
6, 4512, Note_on_c, 9, 36, 100
6, 4559, Note_off_c, 9, 36, 64
6, 4560, Note_on_c, 9, 36, 100
6, 4607, Note_off_c, 9, 36, 64
6, 4607, Note_off_c, 9, 46, 64
6, 4608, Note_on_c, 9, 36, 100
6, 4608, Note_on_c, 9, 49, 100
6, 4655, Note_off_c, 9, 49, 64
6, 4655, Note_off_c, 9, 36, 64
6, 4656, Note_on_c, 9, 36, 100
6, 4703, Note_off_c, 9, 36, 64
6, 4704, Note_on_c, 9, 36, 100
6, 4751, Note_off_c, 9, 36, 64
6, 4752, Note_on_c, 9, 46, 100
6, 4752, Note_on_c, 9, 40, 100
6, 4752, Note_on_c, 9, 36, 100
6, 4799, Note_off_c, 9, 36, 64
6, 4799, Note_off_c, 9, 40, 64
6, 4800, Note_on_c, 9, 36, 100
6, 4847, Note_off_c, 9, 36, 64
6, 4848, Note_on_c, 9, 36, 100
6, 4895, Note_off_c, 9, 36, 64
6, 4895, Note_off_c, 9, 46, 64
6, 4896, Note_on_c, 9, 46, 100
6, 4896, Note_on_c, 9, 36, 100
6, 4943, Note_off_c, 9, 36, 64
6, 4944, Note_on_c, 9, 36, 100
6, 4991, Note_off_c, 9, 36, 64
6, 4992, Note_on_c, 9, 36, 100
6, 5039, Note_off_c, 9, 36, 64
6, 5039, Note_off_c, 9, 46, 64
6, 5040, Note_on_c, 9, 46, 100
6, 5040, Note_on_c, 9, 40, 100
6, 5040, Note_on_c, 9, 36, 100
6, 5087, Note_off_c, 9, 36, 64
6, 5087, Note_off_c, 9, 40, 64
6, 5088, Note_on_c, 9, 36, 100
6, 5135, Note_off_c, 9, 36, 64
6, 5136, Note_on_c, 9, 36, 100
6, 5183, Note_off_c, 9, 36, 64
6, 5183, Note_off_c, 9, 46, 64
6, 5184, Note_on_c, 9, 46, 100
6, 5184, Note_on_c, 9, 36, 100
6, 5231, Note_off_c, 9, 36, 64
6, 5232, Note_on_c, 9, 36, 100
6, 5279, Note_off_c, 9, 36, 64
6, 5280, Note_on_c, 9, 36, 100
6, 5327, Note_off_c, 9, 36, 64
6, 5327, Note_off_c, 9, 46, 64
6, 5328, Note_on_c, 9, 46, 100
6, 5328, Note_on_c, 9, 40, 100
6, 5328, Note_on_c, 9, 36, 100
6, 5375, Note_off_c, 9, 36, 64
6, 5375, Note_off_c, 9, 40, 64
6, 5376, Note_on_c, 9, 36, 100
6, 5423, Note_off_c, 9, 36, 64
6, 5424, Note_on_c, 9, 36, 100
6, 5471, Note_off_c, 9, 36, 64
6, 5471, Note_off_c, 9, 46, 64
6, 5472, Note_on_c, 9, 46, 100
6, 5472, Note_on_c, 9, 36, 100
6, 5519, Note_off_c, 9, 36, 64
6, 5520, Note_on_c, 9, 49, 100
6, 5520, Note_on_c, 9, 36, 100
6, 5567, Note_off_c, 9, 36, 64
6, 5567, Note_off_c, 9, 49, 64
6, 5568, Note_on_c, 9, 36, 100
6, 5615, Note_off_c, 9, 36, 64
6, 5615, Note_off_c, 9, 46, 64
6, 5616, Note_on_c, 9, 55, 100
6, 5616, Note_on_c, 9, 46, 100
6, 5616, Note_on_c, 9, 40, 100
6, 5616, Note_on_c, 9, 36, 100
6, 5663, Note_off_c, 9, 36, 64
6, 5663, Note_off_c, 9, 40, 64
6, 5663, Note_off_c, 9, 55, 64
6, 5664, Note_on_c, 9, 36, 100
6, 5711, Note_off_c, 9, 36, 64
6, 5712, Note_on_c, 9, 36, 100
6, 5759, Note_off_c, 9, 36, 64
6, 5759, Note_off_c, 9, 46, 64
6, 5760, Note_on_c, 9, 36, 100
6, 5760, Note_on_c, 9, 49, 100
6, 5807, Note_off_c, 9, 49, 64
6, 5807, Note_off_c, 9, 36, 64
6, 5808, Note_on_c, 9, 36, 100
6, 5855, Note_off_c, 9, 36, 64
6, 5856, Note_on_c, 9, 36, 100
6, 5903, Note_off_c, 9, 36, 64
6, 5904, Note_on_c, 9, 46, 100
6, 5904, Note_on_c, 9, 40, 100
6, 5904, Note_on_c, 9, 36, 100
6, 5951, Note_off_c, 9, 36, 64
6, 5951, Note_off_c, 9, 40, 64
6, 5952, Note_on_c, 9, 36, 100
6, 5999, Note_off_c, 9, 36, 64
6, 6000, Note_on_c, 9, 36, 100
6, 6047, Note_off_c, 9, 36, 64
6, 6047, Note_off_c, 9, 46, 64
6, 6048, Note_on_c, 9, 36, 100
6, 6048, Note_on_c, 9, 46, 100
6, 6095, Note_off_c, 9, 36, 64
6, 6096, Note_on_c, 9, 36, 100
6, 6143, Note_off_c, 9, 36, 64
6, 6144, Note_on_c, 9, 36, 100
6, 6191, Note_off_c, 9, 46, 64
6, 6191, Note_off_c, 9, 36, 64
6, 6192, Note_on_c, 9, 36, 100
6, 6192, Note_on_c, 9, 40, 100
6, 6192, Note_on_c, 9, 46, 100
6, 6239, Note_off_c, 9, 40, 64
6, 6239, Note_off_c, 9, 36, 64
6, 6240, Note_on_c, 9, 36, 100
6, 6287, Note_off_c, 9, 36, 64
6, 6288, Note_on_c, 9, 36, 100
6, 6335, Note_off_c, 9, 46, 64
6, 6335, Note_off_c, 9, 36, 64
6, 6336, Note_on_c, 9, 36, 100
6, 6336, Note_on_c, 9, 46, 100
6, 6383, Note_off_c, 9, 36, 64
6, 6384, Note_on_c, 9, 36, 100
6, 6431, Note_off_c, 9, 36, 64
6, 6432, Note_on_c, 9, 36, 100
6, 6479, Note_off_c, 9, 46, 64
6, 6479, Note_off_c, 9, 36, 64
6, 6480, Note_on_c, 9, 46, 100
6, 6480, Note_on_c, 9, 40, 100
6, 6480, Note_on_c, 9, 36, 100
6, 6527, Note_off_c, 9, 36, 64
6, 6527, Note_off_c, 9, 40, 64
6, 6528, Note_on_c, 9, 48, 110
6, 6528, Note_on_c, 9, 36, 100
6, 6575, Note_off_c, 9, 36, 64
6, 6575, Note_off_c, 9, 48, 0
6, 6576, Note_on_c, 9, 48, 110
6, 6576, Note_on_c, 9, 36, 100
6, 6623, Note_off_c, 9, 36, 64
6, 6623, Note_off_c, 9, 48, 0
6, 6623, Note_off_c, 9, 46, 64
6, 6624, Note_on_c, 9, 47, 110
6, 6624, Note_on_c, 9, 36, 100
6, 6671, Note_off_c, 9, 36, 64
6, 6671, Note_off_c, 9, 47, 0
6, 6672, Note_on_c, 9, 47, 110
6, 6672, Note_on_c, 9, 36, 100
6, 6719, Note_off_c, 9, 36, 64
6, 6719, Note_off_c, 9, 47, 0
6, 6720, Note_on_c, 9, 45, 110
6, 6720, Note_on_c, 9, 36, 100
6, 6767, Note_off_c, 9, 36, 64
6, 6767, Note_off_c, 9, 45, 0
6, 6768, Note_on_c, 9, 45, 110
6, 6768, Note_on_c, 9, 36, 100
6, 6815, Note_off_c, 9, 36, 64
6, 6815, Note_off_c, 9, 45, 0
6, 6816, Note_on_c, 9, 43, 110
6, 6816, Note_on_c, 9, 36, 100
6, 6863, Note_off_c, 9, 36, 64
6, 6863, Note_off_c, 9, 43, 0
6, 6864, Note_on_c, 9, 43, 110
6, 6864, Note_on_c, 9, 36, 100
6, 6911, Note_off_c, 9, 36, 64
6, 6911, Note_off_c, 9, 43, 0
6, 6912, Note_on_c, 9, 49, 100
6, 6912, Note_on_c, 9, 36, 100
6, 6959, Note_off_c, 9, 36, 64
6, 6959, Note_off_c, 9, 49, 64
6, 6960, Note_on_c, 9, 36, 100
6, 7007, Note_off_c, 9, 36, 64
6, 7008, Note_on_c, 9, 36, 100
6, 7055, Note_off_c, 9, 36, 64
6, 7056, Note_on_c, 9, 36, 100
6, 7056, Note_on_c, 9, 40, 100
6, 7056, Note_on_c, 9, 46, 100
6, 7103, Note_off_c, 9, 36, 64
6, 7103, Note_off_c, 9, 40, 64
6, 7104, Note_on_c, 9, 36, 100
6, 7151, Note_off_c, 9, 36, 64
6, 7152, Note_on_c, 9, 36, 100
6, 7199, Note_off_c, 9, 46, 64
6, 7199, Note_off_c, 9, 36, 64
6, 7200, Note_on_c, 9, 36, 100
6, 7200, Note_on_c, 9, 46, 100
6, 7247, Note_off_c, 9, 36, 64
6, 7248, Note_on_c, 9, 36, 100
6, 7295, Note_off_c, 9, 36, 64
6, 7296, Note_on_c, 9, 36, 100
6, 7343, Note_off_c, 9, 46, 64
6, 7343, Note_off_c, 9, 36, 64
6, 7344, Note_on_c, 9, 36, 100
6, 7344, Note_on_c, 9, 40, 100
6, 7344, Note_on_c, 9, 46, 100
6, 7391, Note_off_c, 9, 40, 64
6, 7391, Note_off_c, 9, 36, 64
6, 7392, Note_on_c, 9, 36, 100
6, 7439, Note_off_c, 9, 36, 64
6, 7440, Note_on_c, 9, 36, 100
6, 7487, Note_off_c, 9, 46, 64
6, 7487, Note_off_c, 9, 36, 64
6, 7488, Note_on_c, 9, 36, 100
6, 7488, Note_on_c, 9, 46, 100
6, 7535, Note_off_c, 9, 36, 64
6, 7536, Note_on_c, 9, 36, 100
6, 7583, Note_off_c, 9, 36, 64
6, 7584, Note_on_c, 9, 36, 100
6, 7631, Note_off_c, 9, 46, 64
6, 7631, Note_off_c, 9, 36, 64
6, 7632, Note_on_c, 9, 46, 100
6, 7632, Note_on_c, 9, 40, 100
6, 7632, Note_on_c, 9, 36, 100
6, 7679, Note_off_c, 9, 36, 64
6, 7679, Note_off_c, 9, 40, 64
6, 7680, Note_on_c, 9, 36, 100
6, 7727, Note_off_c, 9, 36, 64
6, 7728, Note_on_c, 9, 36, 100
6, 7775, Note_off_c, 9, 36, 64
6, 7775, Note_off_c, 9, 46, 64
6, 7776, Note_on_c, 9, 46, 100
6, 7776, Note_on_c, 9, 36, 100
6, 7823, Note_off_c, 9, 36, 64
6, 7824, Note_on_c, 9, 49, 100
6, 7824, Note_on_c, 9, 36, 100
6, 7871, Note_off_c, 9, 36, 64
6, 7872, Note_on_c, 9, 36, 100
6, 7919, Note_off_c, 9, 36, 64
6, 7919, Note_off_c, 9, 46, 64
6, 7919, Note_off_c, 9, 49, 64
6, 7920, Note_on_c, 9, 55, 100
6, 7920, Note_on_c, 9, 36, 100
6, 7920, Note_on_c, 9, 40, 100
6, 7920, Note_on_c, 9, 46, 100
6, 7967, Note_off_c, 9, 40, 64
6, 7967, Note_off_c, 9, 36, 64
6, 7968, Note_on_c, 9, 36, 100
6, 8015, Note_off_c, 9, 36, 64
6, 8015, Note_off_c, 9, 55, 64
6, 8016, Note_on_c, 9, 36, 100
6, 8063, Note_off_c, 9, 46, 64
6, 8063, Note_off_c, 9, 36, 64
6, 8064, Note_on_c, 9, 49, 100
6, 8064, Note_on_c, 9, 36, 100
6, 8111, Note_off_c, 9, 36, 64
6, 8111, Note_off_c, 9, 49, 64
6, 8112, Note_on_c, 9, 36, 100
6, 8159, Note_off_c, 9, 36, 64
6, 8160, Note_on_c, 9, 36, 100
6, 8207, Note_off_c, 9, 36, 64
6, 8208, Note_on_c, 9, 46, 100
6, 8208, Note_on_c, 9, 40, 100
6, 8208, Note_on_c, 9, 36, 100
6, 8255, Note_off_c, 9, 36, 64
6, 8255, Note_off_c, 9, 40, 64
6, 8256, Note_on_c, 9, 36, 100
6, 8303, Note_off_c, 9, 36, 64
6, 8304, Note_on_c, 9, 36, 100
6, 8351, Note_off_c, 9, 36, 64
6, 8351, Note_off_c, 9, 46, 64
6, 8352, Note_on_c, 9, 46, 100
6, 8352, Note_on_c, 9, 36, 100
6, 8399, Note_off_c, 9, 36, 64
6, 8400, Note_on_c, 9, 36, 100
6, 8447, Note_off_c, 9, 36, 64
6, 8448, Note_on_c, 9, 36, 100
6, 8495, Note_off_c, 9, 36, 64
6, 8495, Note_off_c, 9, 46, 64
6, 8496, Note_on_c, 9, 46, 100
6, 8496, Note_on_c, 9, 40, 100
6, 8496, Note_on_c, 9, 36, 100
6, 8543, Note_off_c, 9, 36, 64
6, 8543, Note_off_c, 9, 40, 64
6, 8544, Note_on_c, 9, 36, 100
6, 8591, Note_off_c, 9, 36, 64
6, 8592, Note_on_c, 9, 36, 100
6, 8639, Note_off_c, 9, 36, 64
6, 8639, Note_off_c, 9, 46, 64
6, 8640, Note_on_c, 9, 46, 100
6, 8640, Note_on_c, 9, 36, 100
6, 8687, Note_off_c, 9, 36, 64
6, 8688, Note_on_c, 9, 36, 100
6, 8735, Note_off_c, 9, 36, 64
6, 8736, Note_on_c, 9, 36, 100
6, 8783, Note_off_c, 9, 36, 64
6, 8783, Note_off_c, 9, 46, 64
6, 8784, Note_on_c, 9, 46, 100
6, 8784, Note_on_c, 9, 40, 100
6, 8784, Note_on_c, 9, 36, 100
6, 8831, Note_off_c, 9, 36, 64
6, 8831, Note_off_c, 9, 40, 64
6, 8832, Note_on_c, 9, 36, 100
6, 8879, Note_off_c, 9, 36, 64
6, 8880, Note_on_c, 9, 36, 100
6, 8927, Note_off_c, 9, 36, 64
6, 8927, Note_off_c, 9, 46, 64
6, 8928, Note_on_c, 9, 36, 100
6, 8928, Note_on_c, 9, 46, 100
6, 8975, Note_off_c, 9, 36, 64
6, 8976, Note_on_c, 9, 49, 100
6, 8976, Note_on_c, 9, 36, 100
6, 9023, Note_off_c, 9, 36, 64
6, 9023, Note_off_c, 9, 49, 64
6, 9024, Note_on_c, 9, 36, 100
6, 9071, Note_off_c, 9, 46, 64
6, 9071, Note_off_c, 9, 36, 64
6, 9072, Note_on_c, 9, 55, 100
6, 9072, Note_on_c, 9, 46, 100
6, 9072, Note_on_c, 9, 40, 100
6, 9072, Note_on_c, 9, 36, 100
6, 9119, Note_off_c, 9, 36, 64
6, 9119, Note_off_c, 9, 40, 64
6, 9119, Note_off_c, 9, 55, 64
6, 9120, Note_on_c, 9, 36, 100
6, 9167, Note_off_c, 9, 36, 64
6, 9168, Note_on_c, 9, 36, 100
6, 9215, Note_off_c, 9, 36, 64
6, 9215, Note_off_c, 9, 46, 64
6, 9216, Note_on_c, 9, 49, 100
6, 9216, Note_on_c, 9, 36, 100
6, 9263, Note_off_c, 9, 36, 64
6, 9263, Note_off_c, 9, 49, 64
6, 9264, Note_on_c, 9, 36, 100
6, 9311, Note_off_c, 9, 36, 64
6, 9312, Note_on_c, 9, 36, 100
6, 9359, Note_off_c, 9, 36, 64
6, 9360, Note_on_c, 9, 46, 100
6, 9360, Note_on_c, 9, 40, 100
6, 9360, Note_on_c, 9, 36, 100
6, 9407, Note_off_c, 9, 36, 64
6, 9407, Note_off_c, 9, 40, 64
6, 9408, Note_on_c, 9, 36, 100
6, 9455, Note_off_c, 9, 36, 64
6, 9456, Note_on_c, 9, 36, 100
6, 9503, Note_off_c, 9, 36, 64
6, 9503, Note_off_c, 9, 46, 64
6, 9504, Note_on_c, 9, 46, 100
6, 9504, Note_on_c, 9, 36, 100
6, 9551, Note_off_c, 9, 36, 64
6, 9552, Note_on_c, 9, 36, 100
6, 9599, Note_off_c, 9, 36, 64
6, 9600, Note_on_c, 9, 36, 100
6, 9647, Note_off_c, 9, 36, 64
6, 9647, Note_off_c, 9, 46, 64
6, 9648, Note_on_c, 9, 46, 100
6, 9648, Note_on_c, 9, 40, 100
6, 9648, Note_on_c, 9, 36, 100
6, 9695, Note_off_c, 9, 36, 64
6, 9695, Note_off_c, 9, 40, 64
6, 9696, Note_on_c, 9, 36, 100
6, 9743, Note_off_c, 9, 36, 64
6, 9744, Note_on_c, 9, 36, 100
6, 9791, Note_off_c, 9, 36, 64
6, 9791, Note_off_c, 9, 46, 64
6, 9792, Note_on_c, 9, 46, 100
6, 9792, Note_on_c, 9, 36, 100
6, 9839, Note_off_c, 9, 36, 64
6, 9840, Note_on_c, 9, 36, 100
6, 9887, Note_off_c, 9, 36, 64
6, 9888, Note_on_c, 9, 36, 100
6, 9935, Note_off_c, 9, 36, 64
6, 9935, Note_off_c, 9, 46, 64
6, 9936, Note_on_c, 9, 46, 100
6, 9936, Note_on_c, 9, 40, 100
6, 9936, Note_on_c, 9, 36, 100
6, 9983, Note_off_c, 9, 36, 64
6, 9983, Note_off_c, 9, 40, 64
6, 9984, Note_on_c, 9, 36, 100
6, 10031, Note_off_c, 9, 36, 64
6, 10032, Note_on_c, 9, 36, 100
6, 10079, Note_off_c, 9, 36, 64
6, 10079, Note_off_c, 9, 46, 64
6, 10080, Note_on_c, 9, 36, 100
6, 10080, Note_on_c, 9, 46, 100
6, 10127, Note_off_c, 9, 36, 64
6, 10128, Note_on_c, 9, 49, 100
6, 10128, Note_on_c, 9, 36, 100
6, 10175, Note_off_c, 9, 36, 64
6, 10175, Note_off_c, 9, 49, 64
6, 10176, Note_on_c, 9, 36, 100
6, 10223, Note_off_c, 9, 46, 64
6, 10223, Note_off_c, 9, 36, 64
6, 10224, Note_on_c, 9, 55, 100
6, 10224, Note_on_c, 9, 46, 100
6, 10224, Note_on_c, 9, 40, 100
6, 10224, Note_on_c, 9, 36, 100
6, 10271, Note_off_c, 9, 36, 64
6, 10271, Note_off_c, 9, 40, 64
6, 10271, Note_off_c, 9, 55, 64
6, 10272, Note_on_c, 9, 36, 100
6, 10319, Note_off_c, 9, 36, 64
6, 10320, Note_on_c, 9, 36, 100
6, 10367, Note_off_c, 9, 36, 64
6, 10367, Note_off_c, 9, 46, 64
6, 10368, Note_on_c, 9, 49, 100
6, 10368, Note_on_c, 9, 36, 100
6, 10415, Note_off_c, 9, 36, 64
6, 10415, Note_off_c, 9, 49, 64
6, 10416, Note_on_c, 9, 36, 100
6, 10463, Note_off_c, 9, 36, 64
6, 10464, Note_on_c, 9, 36, 100
6, 10511, Note_off_c, 9, 36, 64
6, 10512, Note_on_c, 9, 46, 100
6, 10512, Note_on_c, 9, 40, 100
6, 10512, Note_on_c, 9, 36, 100
6, 10559, Note_off_c, 9, 36, 64
6, 10559, Note_off_c, 9, 40, 64
6, 10560, Note_on_c, 9, 36, 100
6, 10607, Note_off_c, 9, 36, 64
6, 10608, Note_on_c, 9, 36, 100
6, 10655, Note_off_c, 9, 36, 64
6, 10655, Note_off_c, 9, 46, 64
6, 10656, Note_on_c, 9, 46, 100
6, 10656, Note_on_c, 9, 36, 100
6, 10703, Note_off_c, 9, 36, 64
6, 10704, Note_on_c, 9, 36, 100
6, 10751, Note_off_c, 9, 36, 64
6, 10752, Note_on_c, 9, 36, 100
6, 10799, Note_off_c, 9, 36, 64
6, 10799, Note_off_c, 9, 46, 64
6, 10800, Note_on_c, 9, 46, 100
6, 10800, Note_on_c, 9, 40, 100
6, 10800, Note_on_c, 9, 36, 100
6, 10847, Note_off_c, 9, 36, 64
6, 10847, Note_off_c, 9, 40, 64
6, 10848, Note_on_c, 9, 36, 100
6, 10895, Note_off_c, 9, 36, 64
6, 10896, Note_on_c, 9, 36, 100
6, 10943, Note_off_c, 9, 36, 64
6, 10943, Note_off_c, 9, 46, 64
6, 10944, Note_on_c, 9, 46, 100
6, 10944, Note_on_c, 9, 36, 100
6, 10991, Note_off_c, 9, 36, 64
6, 10992, Note_on_c, 9, 36, 100
6, 11039, Note_off_c, 9, 36, 64
6, 11040, Note_on_c, 9, 36, 100
6, 11087, Note_off_c, 9, 36, 64
6, 11087, Note_off_c, 9, 46, 64
6, 11088, Note_on_c, 9, 46, 100
6, 11088, Note_on_c, 9, 40, 100
6, 11088, Note_on_c, 9, 36, 100
6, 11135, Note_off_c, 9, 36, 64
6, 11135, Note_off_c, 9, 40, 64
6, 11136, Note_on_c, 9, 36, 100
6, 11183, Note_off_c, 9, 36, 64
6, 11184, Note_on_c, 9, 36, 100
6, 11231, Note_off_c, 9, 36, 64
6, 11231, Note_off_c, 9, 46, 64
6, 11232, Note_on_c, 9, 47, 100
6, 11232, Note_on_c, 9, 36, 100
6, 11327, Note_off_c, 9, 36, 64
6, 11327, Note_off_c, 9, 47, 64
6, 11328, Note_on_c, 9, 45, 100
6, 11328, Note_on_c, 9, 36, 100
6, 11423, Note_off_c, 9, 36, 64
6, 11423, Note_off_c, 9, 45, 64
6, 11424, Note_on_c, 9, 40, 100
6, 11424, Note_on_c, 9, 36, 100
6, 11519, Note_off_c, 9, 36, 64
6, 11519, Note_off_c, 9, 40, 64
6, 11520, Note_on_c, 9, 36, 100
6, 11520, Note_on_c, 9, 48, 100
6, 11567, Note_off_c, 9, 48, 64
6, 11567, Note_off_c, 9, 36, 64
6, 11568, Note_on_c, 9, 48, 100
6, 11568, Note_on_c, 9, 36, 100
6, 11615, Note_off_c, 9, 36, 64
6, 11615, Note_off_c, 9, 48, 64
6, 11616, Note_on_c, 9, 47, 100
6, 11616, Note_on_c, 9, 36, 100
6, 11663, Note_off_c, 9, 36, 64
6, 11663, Note_off_c, 9, 47, 64
6, 11664, Note_on_c, 9, 47, 100
6, 11664, Note_on_c, 9, 36, 100
6, 11711, Note_off_c, 9, 36, 64
6, 11711, Note_off_c, 9, 47, 64
6, 11712, Note_on_c, 9, 45, 100
6, 11712, Note_on_c, 9, 36, 100
6, 11759, Note_off_c, 9, 36, 64
6, 11759, Note_off_c, 9, 45, 64
6, 11760, Note_on_c, 9, 45, 100
6, 11760, Note_on_c, 9, 36, 100
6, 11807, Note_off_c, 9, 36, 64
6, 11807, Note_off_c, 9, 45, 64
6, 11808, Note_on_c, 9, 49, 100
6, 11808, Note_on_c, 9, 36, 100
6, 11855, Note_off_c, 9, 36, 64
6, 11855, Note_off_c, 9, 49, 64
6, 12384, Note_on_c, 9, 55, 100
6, 12384, Note_on_c, 9, 36, 100
6, 12431, Note_off_c, 9, 55, 64
6, 12431, Note_off_c, 9, 36, 64
6, 12960, Note_on_c, 9, 49, 100
6, 12960, Note_on_c, 9, 36, 100
6, 12960, Note_on_c, 9, 40, 110
6, 13007, Note_off_c, 9, 49, 64
6, 13007, Note_off_c, 9, 36, 64
6, 13007, Note_off_c, 9, 40, 0
6, 13008, Note_on_c, 9, 36, 100
6, 13008, Note_on_c, 9, 48, 110
6, 13055, Note_off_c, 9, 48, 0
6, 13055, Note_off_c, 9, 36, 64
6, 13056, Note_on_c, 9, 36, 100
6, 13056, Note_on_c, 9, 47, 110
6, 13103, Note_off_c, 9, 47, 0
6, 13103, Note_off_c, 9, 36, 64
6, 13104, Note_on_c, 9, 36, 100
6, 13104, Note_on_c, 9, 45, 110
6, 13151, Note_off_c, 9, 45, 0
6, 13151, Note_off_c, 9, 36, 64
6, 13152, Note_on_c, 9, 36, 100
6, 13152, Note_on_c, 9, 43, 110
6, 13199, Note_off_c, 9, 43, 0
6, 13199, Note_off_c, 9, 36, 64
6, 13200, Note_on_c, 9, 36, 100
6, 13200, Note_on_c, 9, 48, 110
6, 13247, Note_off_c, 9, 48, 0
6, 13247, Note_off_c, 9, 36, 64
6, 13248, Note_on_c, 9, 55, 100
6, 13248, Note_on_c, 9, 36, 100
6, 13248, Note_on_c, 9, 47, 110
6, 13295, Note_off_c, 9, 47, 0
6, 13295, Note_off_c, 9, 36, 64
6, 13295, Note_off_c, 9, 55, 64
6, 13296, Note_on_c, 9, 36, 100
6, 13296, Note_on_c, 9, 40, 110
6, 13343, Note_off_c, 9, 40, 0
6, 13343, Note_off_c, 9, 36, 64
6, 13344, Note_on_c, 9, 40, 110
6, 13391, Note_off_c, 9, 40, 0
6, 13392, Note_on_c, 9, 40, 110
6, 13439, Note_off_c, 9, 40, 0
6, 13440, Note_on_c, 9, 40, 110
6, 13487, Note_off_c, 9, 40, 0
6, 13488, Note_on_c, 9, 40, 110
6, 13535, Note_off_c, 9, 40, 0
6, 13536, Note_on_c, 9, 49, 100
6, 13536, Note_on_c, 9, 36, 100
6, 13583, Note_off_c, 9, 36, 64
6, 13583, Note_off_c, 9, 49, 64
6, 13584, Note_on_c, 9, 36, 100
6, 13631, Note_off_c, 9, 36, 64
6, 13632, Note_on_c, 9, 36, 100
6, 13679, Note_off_c, 9, 36, 64
6, 13680, Note_on_c, 9, 46, 100
6, 13680, Note_on_c, 9, 40, 100
6, 13680, Note_on_c, 9, 36, 100
6, 13727, Note_off_c, 9, 36, 64
6, 13727, Note_off_c, 9, 40, 64
6, 13728, Note_on_c, 9, 36, 100
6, 13775, Note_off_c, 9, 36, 64
6, 13776, Note_on_c, 9, 36, 100
6, 13823, Note_off_c, 9, 36, 64
6, 13823, Note_off_c, 9, 46, 64
6, 13824, Note_on_c, 9, 36, 100
6, 13824, Note_on_c, 9, 46, 100
6, 13871, Note_off_c, 9, 36, 64
6, 13872, Note_on_c, 9, 36, 100
6, 13919, Note_off_c, 9, 36, 64
6, 13920, Note_on_c, 9, 36, 100
6, 13967, Note_off_c, 9, 46, 64
6, 13967, Note_off_c, 9, 36, 64
6, 13968, Note_on_c, 9, 46, 100
6, 13968, Note_on_c, 9, 40, 100
6, 13968, Note_on_c, 9, 36, 100
6, 14015, Note_off_c, 9, 36, 64
6, 14015, Note_off_c, 9, 40, 64
6, 14016, Note_on_c, 9, 36, 100
6, 14063, Note_off_c, 9, 36, 64
6, 14064, Note_on_c, 9, 36, 100
6, 14111, Note_off_c, 9, 36, 64
6, 14111, Note_off_c, 9, 46, 64
6, 14112, Note_on_c, 9, 36, 100
6, 14112, Note_on_c, 9, 46, 100
6, 14159, Note_off_c, 9, 36, 64
6, 14160, Note_on_c, 9, 36, 100
6, 14207, Note_off_c, 9, 36, 64
6, 14208, Note_on_c, 9, 36, 100
6, 14255, Note_off_c, 9, 46, 64
6, 14255, Note_off_c, 9, 36, 64
6, 14256, Note_on_c, 9, 46, 100
6, 14256, Note_on_c, 9, 40, 100
6, 14256, Note_on_c, 9, 36, 100
6, 14303, Note_off_c, 9, 36, 64
6, 14303, Note_off_c, 9, 40, 64
6, 14304, Note_on_c, 9, 36, 100
6, 14351, Note_off_c, 9, 36, 64
6, 14352, Note_on_c, 9, 36, 100
6, 14399, Note_off_c, 9, 36, 64
6, 14399, Note_off_c, 9, 46, 64
6, 14400, Note_on_c, 9, 36, 100
6, 14400, Note_on_c, 9, 46, 100
6, 14447, Note_off_c, 9, 36, 64
6, 14448, Note_on_c, 9, 36, 100
6, 14495, Note_off_c, 9, 36, 64
6, 14496, Note_on_c, 9, 36, 100
6, 14543, Note_off_c, 9, 46, 64
6, 14543, Note_off_c, 9, 36, 64
6, 14544, Note_on_c, 9, 46, 100
6, 14544, Note_on_c, 9, 40, 100
6, 14544, Note_on_c, 9, 36, 100
6, 14591, Note_off_c, 9, 36, 64
6, 14591, Note_off_c, 9, 40, 64
6, 14592, Note_on_c, 9, 36, 100
6, 14639, Note_off_c, 9, 36, 64
6, 14640, Note_on_c, 9, 36, 100
6, 14687, Note_off_c, 9, 36, 64
6, 14687, Note_off_c, 9, 46, 64
6, 14688, Note_on_c, 9, 46, 100
6, 14688, Note_on_c, 9, 36, 100
6, 14735, Note_off_c, 9, 36, 64
6, 14736, Note_on_c, 9, 36, 100
6, 14783, Note_off_c, 9, 36, 64
6, 14784, Note_on_c, 9, 36, 100
6, 14831, Note_off_c, 9, 36, 64
6, 14831, Note_off_c, 9, 46, 64
6, 14832, Note_on_c, 9, 46, 100
6, 14832, Note_on_c, 9, 40, 100
6, 14832, Note_on_c, 9, 36, 100
6, 14879, Note_off_c, 9, 36, 64
6, 14879, Note_off_c, 9, 40, 64
6, 14880, Note_on_c, 9, 36, 100
6, 14927, Note_off_c, 9, 36, 64
6, 14928, Note_on_c, 9, 36, 100
6, 14975, Note_off_c, 9, 36, 64
6, 14975, Note_off_c, 9, 46, 64
6, 14976, Note_on_c, 9, 46, 100
6, 14976, Note_on_c, 9, 36, 100
6, 15023, Note_off_c, 9, 36, 64
6, 15024, Note_on_c, 9, 36, 100
6, 15071, Note_off_c, 9, 36, 64
6, 15072, Note_on_c, 9, 36, 100
6, 15119, Note_off_c, 9, 36, 64
6, 15119, Note_off_c, 9, 46, 64
6, 15120, Note_on_c, 9, 46, 100
6, 15120, Note_on_c, 9, 40, 100
6, 15120, Note_on_c, 9, 36, 100
6, 15167, Note_off_c, 9, 36, 64
6, 15167, Note_off_c, 9, 40, 64
6, 15168, Note_on_c, 9, 36, 100
6, 15215, Note_off_c, 9, 36, 64
6, 15216, Note_on_c, 9, 36, 100
6, 15263, Note_off_c, 9, 36, 64
6, 15263, Note_off_c, 9, 46, 64
6, 15264, Note_on_c, 9, 46, 100
6, 15264, Note_on_c, 9, 36, 100
6, 15311, Note_off_c, 9, 36, 64
6, 15312, Note_on_c, 9, 36, 100
6, 15359, Note_off_c, 9, 36, 64
6, 15360, Note_on_c, 9, 36, 100
6, 15407, Note_off_c, 9, 36, 64
6, 15407, Note_off_c, 9, 46, 64
6, 15408, Note_on_c, 9, 46, 100
6, 15408, Note_on_c, 9, 40, 100
6, 15408, Note_on_c, 9, 36, 100
6, 15455, Note_off_c, 9, 36, 64
6, 15455, Note_off_c, 9, 40, 64
6, 15456, Note_on_c, 9, 36, 100
6, 15503, Note_off_c, 9, 36, 64
6, 15504, Note_on_c, 9, 36, 100
6, 15551, Note_off_c, 9, 36, 64
6, 15551, Note_off_c, 9, 46, 64
6, 15552, Note_on_c, 9, 36, 100
6, 15552, Note_on_c, 9, 48, 100
6, 15599, Note_off_c, 9, 48, 64
6, 15599, Note_off_c, 9, 36, 64
6, 15600, Note_on_c, 9, 47, 100
6, 15600, Note_on_c, 9, 36, 100
6, 15647, Note_off_c, 9, 36, 64
6, 15647, Note_off_c, 9, 47, 64
6, 15648, Note_on_c, 9, 36, 100
6, 15648, Note_on_c, 9, 47, 100
6, 15695, Note_off_c, 9, 47, 64
6, 15695, Note_off_c, 9, 36, 64
6, 15696, Note_on_c, 9, 45, 100
6, 15696, Note_on_c, 9, 36, 100
6, 15743, Note_off_c, 9, 36, 64
6, 15743, Note_off_c, 9, 45, 64
6, 15744, Note_on_c, 9, 36, 100
6, 15744, Note_on_c, 9, 45, 100
6, 15791, Note_off_c, 9, 45, 64
6, 15791, Note_off_c, 9, 36, 64
6, 15792, Note_on_c, 9, 43, 100
6, 15792, Note_on_c, 9, 36, 100
6, 15839, Note_off_c, 9, 36, 64
6, 15839, Note_off_c, 9, 43, 64
6, 15840, Note_on_c, 9, 36, 100
6, 15840, Note_on_c, 9, 49, 100
6, 15887, Note_off_c, 9, 49, 64
6, 15887, Note_off_c, 9, 36, 64
6, 16992, Note_on_c, 9, 36, 100
6, 16992, Note_on_c, 9, 49, 100
6, 17039, Note_off_c, 9, 36, 64
6, 17039, Note_off_c, 9, 49, 64
6, 17040, Note_on_c, 9, 36, 100
6, 17087, Note_off_c, 9, 36, 64
6, 17088, Note_on_c, 9, 36, 100
6, 17135, Note_off_c, 9, 36, 64
6, 17136, Note_on_c, 9, 46, 100
6, 17136, Note_on_c, 9, 40, 100
6, 17136, Note_on_c, 9, 36, 100
6, 17183, Note_off_c, 9, 36, 64
6, 17183, Note_off_c, 9, 40, 64
6, 17184, Note_on_c, 9, 36, 100
6, 17231, Note_off_c, 9, 36, 64
6, 17232, Note_on_c, 9, 36, 100
6, 17279, Note_off_c, 9, 36, 64
6, 17279, Note_off_c, 9, 46, 64
6, 17280, Note_on_c, 9, 46, 100
6, 17280, Note_on_c, 9, 36, 100
6, 17327, Note_off_c, 9, 36, 64
6, 17328, Note_on_c, 9, 36, 100
6, 17375, Note_off_c, 9, 36, 64
6, 17376, Note_on_c, 9, 36, 100
6, 17423, Note_off_c, 9, 36, 64
6, 17423, Note_off_c, 9, 46, 64
6, 17424, Note_on_c, 9, 46, 100
6, 17424, Note_on_c, 9, 40, 100
6, 17424, Note_on_c, 9, 36, 100
6, 17471, Note_off_c, 9, 36, 64
6, 17471, Note_off_c, 9, 40, 64
6, 17472, Note_on_c, 9, 36, 100
6, 17519, Note_off_c, 9, 36, 64
6, 17520, Note_on_c, 9, 36, 100
6, 17567, Note_off_c, 9, 36, 64
6, 17567, Note_off_c, 9, 46, 64
6, 17568, Note_on_c, 9, 46, 100
6, 17568, Note_on_c, 9, 36, 100
6, 17615, Note_off_c, 9, 36, 64
6, 17616, Note_on_c, 9, 36, 100
6, 17663, Note_off_c, 9, 36, 64
6, 17664, Note_on_c, 9, 36, 100
6, 17711, Note_off_c, 9, 36, 64
6, 17711, Note_off_c, 9, 46, 64
6, 17712, Note_on_c, 9, 46, 100
6, 17712, Note_on_c, 9, 40, 100
6, 17712, Note_on_c, 9, 36, 100
6, 17759, Note_off_c, 9, 36, 64
6, 17759, Note_off_c, 9, 40, 64
6, 17760, Note_on_c, 9, 36, 100
6, 17807, Note_off_c, 9, 36, 64
6, 17808, Note_on_c, 9, 36, 100
6, 17855, Note_off_c, 9, 36, 64
6, 17855, Note_off_c, 9, 46, 64
6, 17856, Note_on_c, 9, 46, 100
6, 17856, Note_on_c, 9, 36, 100
6, 17903, Note_off_c, 9, 36, 64
6, 17904, Note_on_c, 9, 36, 100
6, 17951, Note_off_c, 9, 36, 64
6, 17952, Note_on_c, 9, 36, 100
6, 17999, Note_off_c, 9, 36, 64
6, 17999, Note_off_c, 9, 46, 64
6, 18000, Note_on_c, 9, 46, 100
6, 18000, Note_on_c, 9, 40, 100
6, 18000, Note_on_c, 9, 36, 100
6, 18047, Note_off_c, 9, 36, 64
6, 18047, Note_off_c, 9, 40, 64
6, 18048, Note_on_c, 9, 36, 100
6, 18095, Note_off_c, 9, 36, 64
6, 18096, Note_on_c, 9, 36, 100
6, 18143, Note_off_c, 9, 36, 64
6, 18143, Note_off_c, 9, 46, 64
6, 18144, Note_on_c, 9, 36, 100
6, 18144, Note_on_c, 9, 49, 100
6, 18191, Note_off_c, 9, 49, 64
6, 18191, Note_off_c, 9, 36, 64
6, 18192, Note_on_c, 9, 36, 100
6, 18239, Note_off_c, 9, 36, 64
6, 18240, Note_on_c, 9, 36, 100
6, 18287, Note_off_c, 9, 36, 64
6, 18288, Note_on_c, 9, 46, 100
6, 18288, Note_on_c, 9, 40, 100
6, 18288, Note_on_c, 9, 36, 100
6, 18335, Note_off_c, 9, 36, 64
6, 18335, Note_off_c, 9, 40, 64
6, 18336, Note_on_c, 9, 36, 100
6, 18383, Note_off_c, 9, 36, 64
6, 18384, Note_on_c, 9, 36, 100
6, 18431, Note_off_c, 9, 36, 64
6, 18431, Note_off_c, 9, 46, 64
6, 18432, Note_on_c, 9, 46, 100
6, 18432, Note_on_c, 9, 36, 100
6, 18479, Note_off_c, 9, 36, 64
6, 18480, Note_on_c, 9, 36, 100
6, 18527, Note_off_c, 9, 36, 64
6, 18528, Note_on_c, 9, 36, 100
6, 18575, Note_off_c, 9, 36, 64
6, 18575, Note_off_c, 9, 46, 64
6, 18576, Note_on_c, 9, 46, 100
6, 18576, Note_on_c, 9, 40, 100
6, 18576, Note_on_c, 9, 36, 100
6, 18623, Note_off_c, 9, 36, 64
6, 18623, Note_off_c, 9, 40, 64
6, 18624, Note_on_c, 9, 36, 100
6, 18671, Note_off_c, 9, 36, 64
6, 18672, Note_on_c, 9, 36, 100
6, 18719, Note_off_c, 9, 36, 64
6, 18719, Note_off_c, 9, 46, 64
6, 18720, Note_on_c, 9, 46, 100
6, 18720, Note_on_c, 9, 36, 100
6, 18767, Note_off_c, 9, 36, 64
6, 18768, Note_on_c, 9, 36, 100
6, 18815, Note_off_c, 9, 36, 64
6, 18816, Note_on_c, 9, 36, 100
6, 18863, Note_off_c, 9, 36, 64
6, 18863, Note_off_c, 9, 46, 64
6, 18864, Note_on_c, 9, 46, 100
6, 18864, Note_on_c, 9, 40, 100
6, 18864, Note_on_c, 9, 36, 100
6, 18911, Note_off_c, 9, 36, 64
6, 18911, Note_off_c, 9, 40, 64
6, 18912, Note_on_c, 9, 36, 100
6, 18959, Note_off_c, 9, 36, 64
6, 18960, Note_on_c, 9, 36, 100
6, 19007, Note_off_c, 9, 36, 64
6, 19007, Note_off_c, 9, 46, 64
6, 19008, Note_on_c, 9, 46, 100
6, 19008, Note_on_c, 9, 36, 100
6, 19055, Note_off_c, 9, 36, 64
6, 19056, Note_on_c, 9, 36, 100
6, 19103, Note_off_c, 9, 36, 64
6, 19104, Note_on_c, 9, 36, 100
6, 19151, Note_off_c, 9, 36, 64
6, 19151, Note_off_c, 9, 46, 64
6, 19152, Note_on_c, 9, 46, 100
6, 19152, Note_on_c, 9, 40, 100
6, 19152, Note_on_c, 9, 36, 100
6, 19199, Note_off_c, 9, 36, 64
6, 19199, Note_off_c, 9, 40, 64
6, 19200, Note_on_c, 9, 36, 100
6, 19247, Note_off_c, 9, 36, 64
6, 19248, Note_on_c, 9, 36, 100
6, 19295, Note_off_c, 9, 36, 64
6, 19295, Note_off_c, 9, 46, 64
6, 19296, Note_on_c, 9, 36, 100
6, 19296, Note_on_c, 9, 49, 100
6, 19343, Note_off_c, 9, 49, 64
6, 19343, Note_off_c, 9, 36, 64
6, 19344, Note_on_c, 9, 36, 100
6, 19391, Note_off_c, 9, 36, 64
6, 19392, Note_on_c, 9, 36, 100
6, 19439, Note_off_c, 9, 36, 64
6, 19440, Note_on_c, 9, 36, 100
6, 19440, Note_on_c, 9, 40, 100
6, 19440, Note_on_c, 9, 46, 100
6, 19487, Note_off_c, 9, 36, 64
6, 19487, Note_off_c, 9, 40, 64
6, 19488, Note_on_c, 9, 36, 100
6, 19535, Note_off_c, 9, 36, 64
6, 19536, Note_on_c, 9, 36, 100
6, 19583, Note_off_c, 9, 46, 64
6, 19583, Note_off_c, 9, 36, 64
6, 19584, Note_on_c, 9, 46, 100
6, 19584, Note_on_c, 9, 36, 100
6, 19631, Note_off_c, 9, 36, 64
6, 19632, Note_on_c, 9, 36, 100
6, 19679, Note_off_c, 9, 36, 64
6, 19680, Note_on_c, 9, 36, 100
6, 19727, Note_off_c, 9, 36, 64
6, 19727, Note_off_c, 9, 46, 64
6, 19728, Note_on_c, 9, 46, 100
6, 19728, Note_on_c, 9, 40, 100
6, 19728, Note_on_c, 9, 36, 100
6, 19775, Note_off_c, 9, 36, 64
6, 19775, Note_off_c, 9, 40, 64
6, 19776, Note_on_c, 9, 36, 100
6, 19823, Note_off_c, 9, 36, 64
6, 19824, Note_on_c, 9, 36, 100
6, 19871, Note_off_c, 9, 36, 64
6, 19871, Note_off_c, 9, 46, 64
6, 19872, Note_on_c, 9, 46, 100
6, 19872, Note_on_c, 9, 36, 100
6, 19919, Note_off_c, 9, 36, 64
6, 19920, Note_on_c, 9, 36, 100
6, 19967, Note_off_c, 9, 36, 64
6, 19968, Note_on_c, 9, 36, 100
6, 20015, Note_off_c, 9, 36, 64
6, 20015, Note_off_c, 9, 46, 64
6, 20016, Note_on_c, 9, 46, 100
6, 20016, Note_on_c, 9, 40, 100
6, 20016, Note_on_c, 9, 36, 100
6, 20063, Note_off_c, 9, 36, 64
6, 20063, Note_off_c, 9, 40, 64
6, 20064, Note_on_c, 9, 36, 100
6, 20111, Note_off_c, 9, 36, 64
6, 20112, Note_on_c, 9, 36, 100
6, 20159, Note_off_c, 9, 36, 64
6, 20159, Note_off_c, 9, 46, 64
6, 20160, Note_on_c, 9, 36, 100
6, 20160, Note_on_c, 9, 46, 100
6, 20207, Note_off_c, 9, 36, 64
6, 20208, Note_on_c, 9, 36, 100
6, 20255, Note_off_c, 9, 36, 64
6, 20256, Note_on_c, 9, 36, 100
6, 20303, Note_off_c, 9, 46, 64
6, 20303, Note_off_c, 9, 36, 64
6, 20304, Note_on_c, 9, 46, 100
6, 20304, Note_on_c, 9, 40, 100
6, 20304, Note_on_c, 9, 36, 100
6, 20351, Note_off_c, 9, 36, 64
6, 20351, Note_off_c, 9, 40, 64
6, 20352, Note_on_c, 9, 36, 100
6, 20399, Note_off_c, 9, 36, 64
6, 20400, Note_on_c, 9, 36, 100
6, 20447, Note_off_c, 9, 36, 64
6, 20447, Note_off_c, 9, 46, 64
6, 20448, Note_on_c, 9, 36, 100
6, 20448, Note_on_c, 9, 46, 110
6, 20495, Note_off_c, 9, 36, 64
6, 20496, Note_on_c, 9, 36, 100
6, 20543, Note_off_c, 9, 36, 64
6, 20544, Note_on_c, 9, 36, 100
6, 20591, Note_off_c, 9, 46, 0
6, 20591, Note_off_c, 9, 36, 64
6, 20592, Note_on_c, 9, 49, 100
6, 20592, Note_on_c, 9, 36, 100
6, 20592, Note_on_c, 9, 40, 100
6, 20639, Note_off_c, 9, 40, 64
6, 20639, Note_off_c, 9, 36, 64
6, 20640, Note_on_c, 9, 36, 100
6, 20687, Note_off_c, 9, 36, 64
6, 20688, Note_on_c, 9, 36, 100
6, 20735, Note_off_c, 9, 36, 64
6, 20735, Note_off_c, 9, 49, 64
6, 20736, Note_on_c, 9, 36, 100
6, 20736, Note_on_c, 9, 46, 100
6, 20783, Note_off_c, 9, 36, 64
6, 20784, Note_on_c, 9, 36, 100
6, 20831, Note_off_c, 9, 36, 64
6, 20832, Note_on_c, 9, 36, 100
6, 20879, Note_off_c, 9, 46, 64
6, 20879, Note_off_c, 9, 36, 64
6, 20880, Note_on_c, 9, 49, 100
6, 20880, Note_on_c, 9, 40, 100
6, 20880, Note_on_c, 9, 36, 100
6, 20927, Note_off_c, 9, 36, 64
6, 20927, Note_off_c, 9, 40, 64
6, 20928, Note_on_c, 9, 36, 100
6, 20975, Note_off_c, 9, 36, 64
6, 20976, Note_on_c, 9, 36, 100
6, 21023, Note_off_c, 9, 36, 64
6, 21023, Note_off_c, 9, 49, 64
6, 21024, Note_on_c, 9, 36, 100
6, 21024, Note_on_c, 9, 55, 100
6, 21071, Note_off_c, 9, 36, 64
6, 21072, Note_on_c, 9, 36, 100
6, 21119, Note_off_c, 9, 55, 64
6, 21119, Note_off_c, 9, 36, 64
6, 21120, Note_on_c, 9, 40, 100
6, 21120, Note_on_c, 9, 49, 100
6, 21120, Note_on_c, 9, 36, 100
6, 21167, Note_off_c, 9, 36, 64
6, 21167, Note_off_c, 9, 40, 64
6, 21168, Note_on_c, 9, 36, 100
6, 21215, Note_off_c, 9, 36, 64
6, 21215, Note_off_c, 9, 49, 64
6, 21216, Note_on_c, 9, 55, 100
6, 21216, Note_on_c, 9, 36, 100
6, 21263, Note_off_c, 9, 36, 64
6, 21264, Note_on_c, 9, 36, 100
6, 21311, Note_off_c, 9, 36, 64
6, 21311, Note_off_c, 9, 55, 64
6, 21312, Note_on_c, 9, 36, 100
6, 21312, Note_on_c, 9, 46, 100
6, 21359, Note_off_c, 9, 36, 64
6, 21360, Note_on_c, 9, 36, 100
6, 21407, Note_off_c, 9, 36, 64
6, 21408, Note_on_c, 9, 36, 100
6, 21455, Note_off_c, 9, 46, 64
6, 21455, Note_off_c, 9, 36, 64
6, 21456, Note_on_c, 9, 49, 100
6, 21456, Note_on_c, 9, 40, 100
6, 21456, Note_on_c, 9, 36, 100
6, 21503, Note_off_c, 9, 36, 64
6, 21503, Note_off_c, 9, 40, 64
6, 21504, Note_on_c, 9, 36, 100
6, 21551, Note_off_c, 9, 36, 64
6, 21552, Note_on_c, 9, 36, 100
6, 21599, Note_off_c, 9, 36, 64
6, 21599, Note_off_c, 9, 49, 64
6, 21600, Note_on_c, 9, 49, 100
6, 21600, Note_on_c, 9, 36, 100
6, 21647, Note_off_c, 9, 36, 64
6, 21647, Note_off_c, 9, 49, 64
6, 21648, Note_on_c, 9, 36, 100
6, 21695, Note_off_c, 9, 36, 64
6, 21696, Note_on_c, 9, 36, 100
6, 21743, Note_off_c, 9, 36, 64
6, 21744, Note_on_c, 9, 36, 100
6, 21744, Note_on_c, 9, 40, 100
6, 21744, Note_on_c, 9, 46, 100
6, 21791, Note_off_c, 9, 36, 64
6, 21791, Note_off_c, 9, 40, 64
6, 21792, Note_on_c, 9, 36, 100
6, 21839, Note_off_c, 9, 36, 64
6, 21840, Note_on_c, 9, 36, 100
6, 21887, Note_off_c, 9, 46, 64
6, 21887, Note_off_c, 9, 36, 64
6, 21888, Note_on_c, 9, 46, 100
6, 21888, Note_on_c, 9, 36, 100
6, 21935, Note_off_c, 9, 36, 64
6, 21936, Note_on_c, 9, 36, 100
6, 21983, Note_off_c, 9, 36, 64
6, 21984, Note_on_c, 9, 36, 100
6, 22031, Note_off_c, 9, 36, 64
6, 22031, Note_off_c, 9, 46, 64
6, 22032, Note_on_c, 9, 46, 100
6, 22032, Note_on_c, 9, 40, 100
6, 22032, Note_on_c, 9, 36, 100
6, 22079, Note_off_c, 9, 36, 64
6, 22079, Note_off_c, 9, 40, 64
6, 22080, Note_on_c, 9, 36, 100
6, 22127, Note_off_c, 9, 36, 64
6, 22128, Note_on_c, 9, 36, 100
6, 22175, Note_off_c, 9, 36, 64
6, 22175, Note_off_c, 9, 46, 64
6, 22176, Note_on_c, 9, 46, 100
6, 22176, Note_on_c, 9, 36, 100
6, 22223, Note_off_c, 9, 36, 64
6, 22224, Note_on_c, 9, 36, 100
6, 22271, Note_off_c, 9, 36, 64
6, 22272, Note_on_c, 9, 36, 100
6, 22319, Note_off_c, 9, 36, 64
6, 22319, Note_off_c, 9, 46, 64
6, 22320, Note_on_c, 9, 46, 100
6, 22320, Note_on_c, 9, 40, 100
6, 22320, Note_on_c, 9, 36, 100
6, 22367, Note_off_c, 9, 36, 64
6, 22367, Note_off_c, 9, 40, 64
6, 22368, Note_on_c, 9, 36, 100
6, 22415, Note_off_c, 9, 36, 64
6, 22416, Note_on_c, 9, 36, 100
6, 22463, Note_off_c, 9, 36, 64
6, 22463, Note_off_c, 9, 46, 64
6, 22464, Note_on_c, 9, 46, 100
6, 22464, Note_on_c, 9, 36, 100
6, 22511, Note_off_c, 9, 36, 64
6, 22512, Note_on_c, 9, 36, 100
6, 22559, Note_off_c, 9, 36, 64
6, 22560, Note_on_c, 9, 36, 100
6, 22607, Note_off_c, 9, 36, 64
6, 22607, Note_off_c, 9, 46, 64
6, 22608, Note_on_c, 9, 46, 100
6, 22608, Note_on_c, 9, 40, 100
6, 22608, Note_on_c, 9, 36, 100
6, 22655, Note_off_c, 9, 36, 64
6, 22655, Note_off_c, 9, 40, 64
6, 22656, Note_on_c, 9, 36, 100
6, 22703, Note_off_c, 9, 36, 64
6, 22704, Note_on_c, 9, 36, 100
6, 22751, Note_off_c, 9, 36, 64
6, 22751, Note_off_c, 9, 46, 64
6, 22752, Note_on_c, 9, 36, 100
6, 22752, Note_on_c, 9, 46, 110
6, 22799, Note_off_c, 9, 36, 64
6, 22800, Note_on_c, 9, 36, 100
6, 22847, Note_off_c, 9, 36, 64
6, 22848, Note_on_c, 9, 36, 100
6, 22895, Note_off_c, 9, 46, 0
6, 22895, Note_off_c, 9, 36, 64
6, 22896, Note_on_c, 9, 49, 100
6, 22896, Note_on_c, 9, 36, 100
6, 22896, Note_on_c, 9, 40, 100
6, 22943, Note_off_c, 9, 40, 64
6, 22943, Note_off_c, 9, 36, 64
6, 22944, Note_on_c, 9, 36, 100
6, 22991, Note_off_c, 9, 36, 64
6, 22992, Note_on_c, 9, 36, 100
6, 23039, Note_off_c, 9, 36, 64
6, 23039, Note_off_c, 9, 49, 64
6, 23040, Note_on_c, 9, 36, 100
6, 23040, Note_on_c, 9, 46, 100
6, 23087, Note_off_c, 9, 36, 64
6, 23088, Note_on_c, 9, 36, 100
6, 23135, Note_off_c, 9, 36, 64
6, 23136, Note_on_c, 9, 36, 100
6, 23183, Note_off_c, 9, 46, 64
6, 23183, Note_off_c, 9, 36, 64
6, 23184, Note_on_c, 9, 49, 100
6, 23184, Note_on_c, 9, 40, 100
6, 23184, Note_on_c, 9, 36, 100
6, 23231, Note_off_c, 9, 36, 64
6, 23231, Note_off_c, 9, 40, 64
6, 23232, Note_on_c, 9, 36, 100
6, 23279, Note_off_c, 9, 36, 64
6, 23280, Note_on_c, 9, 36, 100
6, 23327, Note_off_c, 9, 36, 64
6, 23327, Note_off_c, 9, 49, 64
6, 23328, Note_on_c, 9, 36, 100
6, 23328, Note_on_c, 9, 55, 100
6, 23375, Note_off_c, 9, 36, 64
6, 23376, Note_on_c, 9, 36, 100
6, 23423, Note_off_c, 9, 55, 64
6, 23423, Note_off_c, 9, 36, 64
6, 23424, Note_on_c, 9, 36, 100
6, 23424, Note_on_c, 9, 49, 100
6, 23424, Note_on_c, 9, 40, 100
6, 23471, Note_off_c, 9, 40, 64
6, 23471, Note_off_c, 9, 36, 64
6, 23472, Note_on_c, 9, 36, 100
6, 23519, Note_off_c, 9, 36, 64
6, 23519, Note_off_c, 9, 49, 64
6, 23520, Note_on_c, 9, 36, 100
6, 23520, Note_on_c, 9, 55, 100
6, 23567, Note_off_c, 9, 36, 64
6, 23568, Note_on_c, 9, 36, 100
6, 23615, Note_off_c, 9, 55, 64
6, 23615, Note_off_c, 9, 36, 64
6, 23616, Note_on_c, 9, 46, 100
6, 23616, Note_on_c, 9, 36, 100
6, 23663, Note_off_c, 9, 36, 64
6, 23664, Note_on_c, 9, 36, 100
6, 23711, Note_off_c, 9, 36, 64
6, 23712, Note_on_c, 9, 36, 100
6, 23759, Note_off_c, 9, 36, 64
6, 23759, Note_off_c, 9, 46, 64
6, 23760, Note_on_c, 9, 49, 100
6, 23760, Note_on_c, 9, 40, 100
6, 23760, Note_on_c, 9, 36, 100
6, 23807, Note_off_c, 9, 36, 64
6, 23807, Note_off_c, 9, 40, 64
6, 23808, Note_on_c, 9, 36, 100
6, 23855, Note_off_c, 9, 36, 64
6, 23856, Note_on_c, 9, 36, 100
6, 23903, Note_off_c, 9, 36, 64
6, 23903, Note_off_c, 9, 49, 64
6, 23904, Note_on_c, 9, 46, 100
6, 23904, Note_on_c, 9, 36, 100
6, 23951, Note_off_c, 9, 36, 64
6, 23952, Note_on_c, 9, 36, 100
6, 23999, Note_off_c, 9, 36, 64
6, 24000, Note_on_c, 9, 36, 100
6, 24047, Note_off_c, 9, 36, 64
6, 24047, Note_off_c, 9, 46, 64
6, 24048, Note_on_c, 9, 46, 100
6, 24048, Note_on_c, 9, 40, 100
6, 24048, Note_on_c, 9, 36, 100
6, 24095, Note_off_c, 9, 36, 64
6, 24095, Note_off_c, 9, 40, 64
6, 24096, Note_on_c, 9, 36, 100
6, 24143, Note_off_c, 9, 36, 64
6, 24144, Note_on_c, 9, 36, 100
6, 24191, Note_off_c, 9, 36, 64
6, 24191, Note_off_c, 9, 46, 64
6, 24192, Note_on_c, 9, 46, 100
6, 24192, Note_on_c, 9, 36, 100
6, 24239, Note_off_c, 9, 36, 64
6, 24240, Note_on_c, 9, 36, 100
6, 24287, Note_off_c, 9, 36, 64
6, 24288, Note_on_c, 9, 36, 100
6, 24335, Note_off_c, 9, 36, 64
6, 24335, Note_off_c, 9, 46, 64
6, 24336, Note_on_c, 9, 46, 100
6, 24336, Note_on_c, 9, 40, 100
6, 24336, Note_on_c, 9, 36, 100
6, 24383, Note_off_c, 9, 36, 64
6, 24383, Note_off_c, 9, 40, 64
6, 24384, Note_on_c, 9, 36, 100
6, 24431, Note_off_c, 9, 36, 64
6, 24432, Note_on_c, 9, 36, 100
6, 24479, Note_off_c, 9, 36, 64
6, 24479, Note_off_c, 9, 46, 64
6, 24480, Note_on_c, 9, 36, 100
6, 24480, Note_on_c, 9, 46, 100
6, 24527, Note_off_c, 9, 36, 64
6, 24528, Note_on_c, 9, 36, 100
6, 24575, Note_off_c, 9, 36, 64
6, 24576, Note_on_c, 9, 36, 100
6, 24623, Note_off_c, 9, 46, 64
6, 24623, Note_off_c, 9, 36, 64
6, 24624, Note_on_c, 9, 36, 100
6, 24624, Note_on_c, 9, 40, 100
6, 24624, Note_on_c, 9, 46, 100
6, 24671, Note_off_c, 9, 40, 64
6, 24671, Note_off_c, 9, 36, 64
6, 24672, Note_on_c, 9, 36, 100
6, 24719, Note_off_c, 9, 36, 64
6, 24720, Note_on_c, 9, 36, 100
6, 24767, Note_off_c, 9, 46, 64
6, 24767, Note_off_c, 9, 36, 64
6, 24768, Note_on_c, 9, 36, 100
6, 24768, Note_on_c, 9, 46, 100
6, 24815, Note_off_c, 9, 36, 64
6, 24816, Note_on_c, 9, 36, 100
6, 24863, Note_off_c, 9, 36, 64
6, 24864, Note_on_c, 9, 36, 100
6, 24911, Note_off_c, 9, 46, 64
6, 24911, Note_off_c, 9, 36, 64
6, 24912, Note_on_c, 9, 46, 100
6, 24912, Note_on_c, 9, 36, 100
6, 24912, Note_on_c, 9, 40, 100
6, 24959, Note_off_c, 9, 40, 64
6, 24959, Note_off_c, 9, 36, 64
6, 24960, Note_on_c, 9, 36, 100
6, 24960, Note_on_c, 9, 36, 100
6, 25007, Note_off_c, 9, 36, 64
6, 25007, Note_off_c, 9, 36, 64
6, 25008, Note_on_c, 9, 36, 100
6, 25055, Note_off_c, 9, 46, 64
6, 25055, Note_off_c, 9, 36, 64
6, 25056, Note_on_c, 9, 46, 100
6, 25056, Note_on_c, 9, 36, 100
6, 25103, Note_off_c, 9, 36, 64
6, 25104, Note_on_c, 9, 36, 100
6, 25151, Note_off_c, 9, 36, 64
6, 25152, Note_on_c, 9, 36, 100
6, 25199, Note_off_c, 9, 36, 64
6, 25199, Note_off_c, 9, 46, 64
6, 25200, Note_on_c, 9, 46, 100
6, 25200, Note_on_c, 9, 40, 100
6, 25200, Note_on_c, 9, 36, 100
6, 25247, Note_off_c, 9, 36, 64
6, 25247, Note_off_c, 9, 40, 64
6, 25248, Note_on_c, 9, 36, 100
6, 25295, Note_off_c, 9, 36, 64
6, 25296, Note_on_c, 9, 36, 100
6, 25343, Note_off_c, 9, 36, 64
6, 25343, Note_off_c, 9, 46, 64
6, 25344, Note_on_c, 9, 46, 100
6, 25344, Note_on_c, 9, 36, 100
6, 25391, Note_off_c, 9, 36, 64
6, 25392, Note_on_c, 9, 36, 100
6, 25439, Note_off_c, 9, 36, 64
6, 25440, Note_on_c, 9, 36, 100
6, 25487, Note_off_c, 9, 36, 64
6, 25487, Note_off_c, 9, 46, 64
6, 25488, Note_on_c, 9, 46, 100
6, 25488, Note_on_c, 9, 40, 100
6, 25488, Note_on_c, 9, 36, 100
6, 25535, Note_off_c, 9, 36, 64
6, 25535, Note_off_c, 9, 40, 64
6, 25536, Note_on_c, 9, 36, 100
6, 25583, Note_off_c, 9, 36, 64
6, 25584, Note_on_c, 9, 36, 100
6, 25631, Note_off_c, 9, 36, 64
6, 25631, Note_off_c, 9, 46, 64
6, 25632, Note_on_c, 9, 46, 100
6, 25632, Note_on_c, 9, 36, 100
6, 25679, Note_off_c, 9, 36, 64
6, 25680, Note_on_c, 9, 36, 100
6, 25727, Note_off_c, 9, 36, 64
6, 25728, Note_on_c, 9, 36, 100
6, 25775, Note_off_c, 9, 36, 64
6, 25775, Note_off_c, 9, 46, 64
6, 25776, Note_on_c, 9, 46, 100
6, 25776, Note_on_c, 9, 40, 100
6, 25776, Note_on_c, 9, 36, 100
6, 25823, Note_off_c, 9, 36, 64
6, 25823, Note_off_c, 9, 40, 64
6, 25824, Note_on_c, 9, 36, 100
6, 25871, Note_off_c, 9, 36, 64
6, 25872, Note_on_c, 9, 36, 100
6, 25919, Note_off_c, 9, 36, 64
6, 25919, Note_off_c, 9, 46, 64
6, 25920, Note_on_c, 9, 36, 100
6, 25920, Note_on_c, 9, 46, 110
6, 25967, Note_off_c, 9, 36, 64
6, 25968, Note_on_c, 9, 36, 100
6, 26015, Note_off_c, 9, 36, 64
6, 26016, Note_on_c, 9, 36, 100
6, 26063, Note_off_c, 9, 46, 0
6, 26063, Note_off_c, 9, 36, 64
6, 26064, Note_on_c, 9, 49, 100
6, 26064, Note_on_c, 9, 36, 100
6, 26064, Note_on_c, 9, 40, 100
6, 26111, Note_off_c, 9, 40, 64
6, 26111, Note_off_c, 9, 36, 64
6, 26207, Note_off_c, 9, 49, 64
6, 26496, Control_c, 9, 101, 0
6, 26496, Control_c, 9, 100, 0
6, 26496, Control_c, 9, 6, 12
6, 26496, Control_c, 9, 10, 64
6, 26496, Control_c, 9, 7, 100
6, 26496, Pitch_bend_c, 9, 8192
6, 26496, Program_c, 9, 0
6, 26496, Control_c, 9, 101, 0
6, 26496, Control_c, 9, 100, 0
6, 26496, Control_c, 9, 6, 12
6, 26496, Control_c, 9, 10, 64
6, 26496, Control_c, 9, 7, 100
6, 26496, Pitch_bend_c, 9, 8192
6, 26496, Program_c, 9, 0
6, 26496, Control_c, 9, 101, 0
6, 26496, Control_c, 9, 100, 0
6, 26496, Control_c, 9, 6, 12
6, 26496, Control_c, 9, 10, 64
6, 26496, Control_c, 9, 7, 100
6, 26496, Pitch_bend_c, 9, 8192
6, 26496, Program_c, 9, 0
6, 26496, End_track
7, 0, Start_track
7, 0, Title_t, "Keys #2 (MIDI)"
7, 0, Control_c, 4, 10, 64
7, 0, Control_c, 4, 7, 100
7, 0, Pitch_bend_c, 4, 8192
7, 0, Control_c, 4, 101, 0
7, 0, Control_c, 4, 100, 0
7, 0, Control_c, 4, 6, 12
7, 0, Control_c, 4, 10, 64
7, 0, Control_c, 4, 7, 100
7, 0, Pitch_bend_c, 4, 8192
7, 0, Program_c, 4, 0
7, 26496, Control_c, 4, 101, 0
7, 26496, Control_c, 4, 100, 0
7, 26496, Control_c, 4, 6, 12
7, 26496, Control_c, 4, 10, 64
7, 26496, Control_c, 4, 7, 100
7, 26496, Pitch_bend_c, 4, 8192
7, 26496, Program_c, 4, 0
7, 26496, Control_c, 4, 101, 0
7, 26496, Control_c, 4, 100, 0
7, 26496, Control_c, 4, 6, 12
7, 26496, Control_c, 4, 10, 64
7, 26496, Control_c, 4, 7, 100
7, 26496, Pitch_bend_c, 4, 8192
7, 26496, Program_c, 4, 0
7, 26496, Control_c, 4, 101, 0
7, 26496, Control_c, 4, 100, 0
7, 26496, Control_c, 4, 6, 12
7, 26496, Control_c, 4, 10, 64
7, 26496, Control_c, 4, 7, 100
7, 26496, Pitch_bend_c, 4, 8192
7, 26496, Program_c, 4, 0
7, 26496, End_track
8, 0, Start_track
8, 0, Title_t, "Keys #3 (MIDI)"
8, 0, Control_c, 5, 10, 64
8, 0, Control_c, 5, 7, 100
8, 0, Pitch_bend_c, 5, 8192
8, 0, Control_c, 5, 101, 0
8, 0, Control_c, 5, 100, 0
8, 0, Control_c, 5, 6, 12
8, 0, Control_c, 5, 10, 64
8, 0, Control_c, 5, 7, 100
8, 0, Pitch_bend_c, 5, 8192
8, 0, Program_c, 5, 0
8, 26496, Control_c, 5, 101, 0
8, 26496, Control_c, 5, 100, 0
8, 26496, Control_c, 5, 6, 12
8, 26496, Control_c, 5, 10, 64
8, 26496, Control_c, 5, 7, 100
8, 26496, Pitch_bend_c, 5, 8192
8, 26496, Program_c, 5, 0
8, 26496, Control_c, 5, 101, 0
8, 26496, Control_c, 5, 100, 0
8, 26496, Control_c, 5, 6, 12
8, 26496, Control_c, 5, 10, 64
8, 26496, Control_c, 5, 7, 100
8, 26496, Pitch_bend_c, 5, 8192
8, 26496, Program_c, 5, 0
8, 26496, Control_c, 5, 101, 0
8, 26496, Control_c, 5, 100, 0
8, 26496, Control_c, 5, 6, 12
8, 26496, Control_c, 5, 10, 64
8, 26496, Control_c, 5, 7, 100
8, 26496, Pitch_bend_c, 5, 8192
8, 26496, Program_c, 5, 0
8, 26496, End_track
0, 0, End_of_file